%TF.GenerationSoftware,KiCad,Pcbnew,10.0.3*%
%TF.CreationDate,2026-06-28T18:01:10+05:30*%
%TF.ProjectId,ESP32 DevKit,45535033-3220-4446-9576-4b69742e6b69,rev?*%
%TF.SameCoordinates,Original*%
%TF.FileFunction,Copper,L1,Top*%
%TF.FilePolarity,Positive*%
%FSLAX46Y46*%
G04 Gerber Fmt 4.6, Leading zero omitted, Abs format (unit mm)*
G04 Created by KiCad (PCBNEW 10.0.3) date 2026-06-28 18:01:10*
%MOMM*%
%LPD*%
G01*
G04 APERTURE LIST*
G04 Aperture macros list*
%AMRoundRect*
0 Rectangle with rounded corners*
0 $1 Rounding radius*
0 $2 $3 $4 $5 $6 $7 $8 $9 X,Y pos of 4 corners*
0 Add a 4 corners polygon primitive as box body*
4,1,4,$2,$3,$4,$5,$6,$7,$8,$9,$2,$3,0*
0 Add four circle primitives for the rounded corners*
1,1,$1+$1,$2,$3*
1,1,$1+$1,$4,$5*
1,1,$1+$1,$6,$7*
1,1,$1+$1,$8,$9*
0 Add four rect primitives between the rounded corners*
20,1,$1+$1,$2,$3,$4,$5,0*
20,1,$1+$1,$4,$5,$6,$7,0*
20,1,$1+$1,$6,$7,$8,$9,0*
20,1,$1+$1,$8,$9,$2,$3,0*%
G04 Aperture macros list end*
%TA.AperFunction,SMDPad,CuDef*%
%ADD10RoundRect,0.225000X0.250000X-0.225000X0.250000X0.225000X-0.250000X0.225000X-0.250000X-0.225000X0*%
%TD*%
%TA.AperFunction,SMDPad,CuDef*%
%ADD11R,0.900000X0.800000*%
%TD*%
%TA.AperFunction,SMDPad,CuDef*%
%ADD12RoundRect,0.200000X-0.200000X-0.275000X0.200000X-0.275000X0.200000X0.275000X-0.200000X0.275000X0*%
%TD*%
%TA.AperFunction,SMDPad,CuDef*%
%ADD13RoundRect,0.218750X-0.218750X-0.256250X0.218750X-0.256250X0.218750X0.256250X-0.218750X0.256250X0*%
%TD*%
%TA.AperFunction,SMDPad,CuDef*%
%ADD14RoundRect,0.200000X0.200000X0.275000X-0.200000X0.275000X-0.200000X-0.275000X0.200000X-0.275000X0*%
%TD*%
%TA.AperFunction,SMDPad,CuDef*%
%ADD15RoundRect,0.200000X-0.275000X0.200000X-0.275000X-0.200000X0.275000X-0.200000X0.275000X0.200000X0*%
%TD*%
%TA.AperFunction,SMDPad,CuDef*%
%ADD16RoundRect,0.100000X-0.100000X-0.600000X0.100000X-0.600000X0.100000X0.600000X-0.100000X0.600000X0*%
%TD*%
%TA.AperFunction,ComponentPad*%
%ADD17O,1.050000X1.900000*%
%TD*%
%TA.AperFunction,SMDPad,CuDef*%
%ADD18RoundRect,0.250000X-0.325000X-0.475000X0.325000X-0.475000X0.325000X0.475000X-0.325000X0.475000X0*%
%TD*%
%TA.AperFunction,SMDPad,CuDef*%
%ADD19RoundRect,0.250000X-0.625000X-0.700000X0.625000X-0.700000X0.625000X0.700000X-0.625000X0.700000X0*%
%TD*%
%TA.AperFunction,SMDPad,CuDef*%
%ADD20R,1.550000X1.300000*%
%TD*%
%TA.AperFunction,SMDPad,CuDef*%
%ADD21R,2.000000X0.900000*%
%TD*%
%TA.AperFunction,SMDPad,CuDef*%
%ADD22R,0.900000X2.000000*%
%TD*%
%TA.AperFunction,SMDPad,CuDef*%
%ADD23R,1.330000X1.330000*%
%TD*%
%TA.AperFunction,ComponentPad*%
%ADD24C,0.500000*%
%TD*%
%TA.AperFunction,ComponentPad*%
%ADD25R,1.700000X1.700000*%
%TD*%
%TA.AperFunction,ComponentPad*%
%ADD26C,1.700000*%
%TD*%
%TA.AperFunction,ViaPad*%
%ADD27C,0.600000*%
%TD*%
%TA.AperFunction,Conductor*%
%ADD28C,0.200000*%
%TD*%
G04 APERTURE END LIST*
D10*
%TO.P,C15,1*%
%TO.N,GND*%
X98000000Y-141450000D03*
%TO.P,C15,2*%
%TO.N,/IO0*%
X98000000Y-139900000D03*
%TD*%
%TO.P,C14,1*%
%TO.N,GND*%
X100900000Y-141500000D03*
%TO.P,C14,2*%
%TO.N,/EN*%
X100900000Y-139950000D03*
%TD*%
D11*
%TO.P,Q1,1*%
%TO.N,Net-(Q1-Pad1)*%
X91700000Y-135150000D03*
%TO.P,Q1,2*%
%TO.N,/RTS*%
X91700000Y-137050000D03*
%TO.P,Q1,3*%
%TO.N,/EN*%
X93700000Y-136100000D03*
%TD*%
D12*
%TO.P,R22,1*%
%TO.N,/RTS*%
X107400000Y-142100000D03*
%TO.P,R22,2*%
%TO.N,Net-(Q2-Pad1)*%
X109050000Y-142100000D03*
%TD*%
D13*
%TO.P,D1,1,K_1*%
%TO.N,GND*%
X99225000Y-132500000D03*
%TO.P,D1,2,A_2*%
%TO.N,Net-(D1-A)*%
X100800000Y-132500000D03*
%TD*%
D14*
%TO.P,R25,1*%
%TO.N,Net-(U1-VBUS)*%
X97950000Y-152700000D03*
%TO.P,R25,2*%
%TO.N,/VBUS*%
X96300000Y-152700000D03*
%TD*%
D15*
%TO.P,R18,1*%
%TO.N,/RXD0*%
X98800000Y-135550000D03*
%TO.P,R18,2*%
%TO.N,/TXD*%
X98800000Y-137200000D03*
%TD*%
D16*
%TO.P,J1,1,VBUS_1*%
%TO.N,/VBUS*%
X98704224Y-156000000D03*
%TO.P,J1,2,D-_2*%
%TO.N,/USB_DN*%
X99354224Y-156000000D03*
%TO.P,J1,3,D+_3*%
%TO.N,/USB_DP*%
X100004224Y-156000000D03*
%TO.P,J1,4,ID_4*%
%TO.N,unconnected-(J1-ID-Pad4)*%
X100654224Y-156000000D03*
%TO.P,J1,5,GND_5*%
%TO.N,GND*%
X101304224Y-156000000D03*
D17*
%TO.P,J1,SH,Shield_SH*%
X96429224Y-158650000D03*
D18*
X97684224Y-156420000D03*
D19*
X98879224Y-158650000D03*
X101129224Y-158650000D03*
D18*
X102324224Y-156420000D03*
D17*
X103579224Y-158650000D03*
%TD*%
D20*
%TO.P,SW2,1,1_1*%
%TO.N,GND*%
X101950000Y-145700000D03*
X109900000Y-145700000D03*
%TO.P,SW2,2,2_2*%
%TO.N,/EN*%
X101950000Y-150200000D03*
X109900000Y-150200000D03*
%TD*%
D21*
%TO.P,MOD1,1,GND_1*%
%TO.N,GND*%
X91665000Y-111200000D03*
%TO.P,MOD1,2,3V3_2*%
%TO.N,Net-(MOD1-3V3)*%
X91665000Y-112470000D03*
%TO.P,MOD1,3,EN_3*%
%TO.N,/EN*%
X91665000Y-113740000D03*
%TO.P,MOD1,4,SENSOR_VP_4*%
%TO.N,/SENSOR_VP*%
X91665000Y-115010000D03*
%TO.P,MOD1,5,SENSOR_VN_5*%
%TO.N,/SENSOR_VN*%
X91665000Y-116280000D03*
%TO.P,MOD1,6,IO34_6*%
%TO.N,/IO34*%
X91665000Y-117550000D03*
%TO.P,MOD1,7,IO35_7*%
%TO.N,/IO35*%
X91665000Y-118820000D03*
%TO.P,MOD1,8,IO32_8*%
%TO.N,/IO32*%
X91665000Y-120090000D03*
%TO.P,MOD1,9,IO33_9*%
%TO.N,/IO33*%
X91665000Y-121360000D03*
%TO.P,MOD1,10,IO25_10*%
%TO.N,/IO25*%
X91665000Y-122630000D03*
%TO.P,MOD1,11,IO26_11*%
%TO.N,/IO26*%
X91665000Y-123900000D03*
%TO.P,MOD1,12,IO27_12*%
%TO.N,/IO27*%
X91665000Y-125170000D03*
%TO.P,MOD1,13,IO14_13*%
%TO.N,/IO14*%
X91665000Y-126440000D03*
%TO.P,MOD1,14,IO12_14*%
%TO.N,/IO12*%
X91665000Y-127710000D03*
D22*
%TO.P,MOD1,15,GND_15*%
%TO.N,GND*%
X94450000Y-128710000D03*
%TO.P,MOD1,16,IO13_16*%
%TO.N,/IO13*%
X95720000Y-128710000D03*
%TO.P,MOD1,17,SHD/SD2_17*%
%TO.N,/SD2*%
X96990000Y-128710000D03*
%TO.P,MOD1,18,SWP/SD3_18*%
%TO.N,/SD3*%
X98260000Y-128710000D03*
%TO.P,MOD1,19,SCS/CMD_19*%
%TO.N,/CMD*%
X99530000Y-128710000D03*
%TO.P,MOD1,20,SCK/CLK_20*%
%TO.N,/CLK*%
X100800000Y-128710000D03*
%TO.P,MOD1,21,SDO/SD0_21*%
%TO.N,/SD0*%
X102070000Y-128710000D03*
%TO.P,MOD1,22,SDI/SD1_22*%
%TO.N,/SD1*%
X103340000Y-128710000D03*
%TO.P,MOD1,23,IO15_23*%
%TO.N,/IO15*%
X104610000Y-128710000D03*
%TO.P,MOD1,24,IO2_24*%
%TO.N,/IO2*%
X105880000Y-128710000D03*
D21*
%TO.P,MOD1,25,IO0_25*%
%TO.N,/IO0*%
X108665000Y-127710000D03*
%TO.P,MOD1,26,IO4_26*%
%TO.N,/IO4*%
X108665000Y-126440000D03*
%TO.P,MOD1,27,IO16_27*%
%TO.N,/IO16*%
X108665000Y-125170000D03*
%TO.P,MOD1,28,IO17_28*%
%TO.N,/IO17*%
X108665000Y-123900000D03*
%TO.P,MOD1,29,IO5_29*%
%TO.N,/IO5*%
X108665000Y-122630000D03*
%TO.P,MOD1,30,IO18_30*%
%TO.N,/IO18*%
X108665000Y-121360000D03*
%TO.P,MOD1,31,IO19_31*%
%TO.N,/IO19*%
X108665000Y-120090000D03*
%TO.P,MOD1,32*%
%TO.N,N/C*%
X108665000Y-118820000D03*
%TO.P,MOD1,33,IO21_33*%
%TO.N,/IO21*%
X108665000Y-117550000D03*
%TO.P,MOD1,34,RXD0_34*%
%TO.N,/RXD0*%
X108665000Y-116280000D03*
%TO.P,MOD1,35,TXD0_35*%
%TO.N,/TXD0*%
X108665000Y-115010000D03*
%TO.P,MOD1,36,IO22_36*%
%TO.N,/IO22*%
X108665000Y-113740000D03*
%TO.P,MOD1,37,IO23_37*%
%TO.N,/IO23*%
X108665000Y-112470000D03*
%TO.P,MOD1,38,GND_38*%
%TO.N,GND*%
X108665000Y-111200000D03*
D23*
%TO.P,MOD1,39_1,GND_39_1*%
X97330000Y-116865000D03*
%TO.P,MOD1,39_2,GND_39_2*%
X99165000Y-116865000D03*
%TO.P,MOD1,39_3,GND_39_3*%
X101000000Y-116865000D03*
%TO.P,MOD1,39_4,GND_39_4*%
X97330000Y-118700000D03*
%TO.P,MOD1,39_5,GND_39_5*%
X99165000Y-118700000D03*
%TO.P,MOD1,39_6,GND_39_6*%
X101000000Y-118700000D03*
%TO.P,MOD1,39_7,GND_39_7*%
X97330000Y-120535000D03*
%TO.P,MOD1,39_8,GND_39_8*%
X99165000Y-120535000D03*
%TO.P,MOD1,39_9,GND_39_9*%
X101000000Y-120535000D03*
D24*
%TO.P,MOD1,39_10,GND_39_10*%
X98247500Y-116865000D03*
%TO.P,MOD1,39_11,GND_39_11*%
X100082500Y-116865000D03*
%TO.P,MOD1,39_12,GND_39_12*%
X97330000Y-117782500D03*
%TO.P,MOD1,39_13,GND_39_13*%
X99165000Y-117782500D03*
%TO.P,MOD1,39_14,GND_39_14*%
X101000000Y-117782500D03*
%TO.P,MOD1,39_15,GND_39_15*%
X98247500Y-118700000D03*
%TO.P,MOD1,39_16,GND_39_16*%
X100082500Y-118700000D03*
%TO.P,MOD1,39_17,GND_39_17*%
X97330000Y-119617500D03*
%TO.P,MOD1,39_18,GND_39_18*%
X99165000Y-119617500D03*
%TO.P,MOD1,39_19,GND_39_19*%
X101000000Y-119617500D03*
%TO.P,MOD1,39_20,GND_39_20*%
X98247500Y-120535000D03*
%TO.P,MOD1,39_21,GND_39_21*%
X100082500Y-120535000D03*
%TD*%
D25*
%TO.P,J2,1,Pin_1_1*%
%TO.N,/VDD33*%
X86600000Y-111780000D03*
D26*
%TO.P,J2,2,Pin_2_2*%
%TO.N,/EN*%
X86600000Y-114320000D03*
%TO.P,J2,3,Pin_3_3*%
%TO.N,/SENSOR_VP*%
X86600000Y-116860000D03*
%TO.P,J2,4,Pin_4_4*%
%TO.N,/SENSOR_VN*%
X86600000Y-119400000D03*
%TO.P,J2,5,Pin_5_5*%
%TO.N,/IO34*%
X86600000Y-121940000D03*
%TO.P,J2,6,Pin_6_6*%
%TO.N,/IO35*%
X86600000Y-124480000D03*
%TO.P,J2,7,Pin_7_7*%
%TO.N,/IO32*%
X86600000Y-127020000D03*
%TO.P,J2,8,Pin_8_8*%
%TO.N,/IO33*%
X86600000Y-129560000D03*
%TO.P,J2,9,Pin_9_9*%
%TO.N,/IO25*%
X86600000Y-132100000D03*
%TO.P,J2,10,Pin_10_10*%
%TO.N,/IO26*%
X86600000Y-134640000D03*
%TO.P,J2,11,Pin_11_11*%
%TO.N,/IO27*%
X86600000Y-137180000D03*
%TO.P,J2,12,Pin_12_12*%
%TO.N,/IO14*%
X86600000Y-139720000D03*
%TO.P,J2,13,Pin_13_13*%
%TO.N,/IO12*%
X86600000Y-142260000D03*
%TO.P,J2,14,Pin_14_14*%
%TO.N,GND*%
X86600000Y-144800000D03*
%TO.P,J2,15,Pin_15_15*%
%TO.N,/IO13*%
X86600000Y-147340000D03*
%TO.P,J2,16,Pin_16_16*%
%TO.N,/SD2*%
X86600000Y-149880000D03*
%TO.P,J2,17,Pin_17_17*%
%TO.N,/SD3*%
X86600000Y-152420000D03*
%TO.P,J2,18,Pin_18_18*%
%TO.N,/CMD*%
X86600000Y-154960000D03*
%TO.P,J2,19,Pin_19_19*%
%TO.N,/EXT_5V*%
X86600000Y-157500000D03*
%TD*%
D11*
%TO.P,Q2,1*%
%TO.N,Net-(Q2-Pad1)*%
X109100000Y-136900000D03*
%TO.P,Q2,2*%
%TO.N,/IO0*%
X109100000Y-135000000D03*
%TO.P,Q2,3*%
%TO.N,/DTR*%
X107100000Y-135950000D03*
%TD*%
D25*
%TO.P,J3,1,Pin_1_1*%
%TO.N,GND*%
X113600000Y-111680000D03*
D26*
%TO.P,J3,2,Pin_2_2*%
%TO.N,/IO23*%
X113600000Y-114220000D03*
%TO.P,J3,3,Pin_3_3*%
%TO.N,/IO22*%
X113600000Y-116760000D03*
%TO.P,J3,4,Pin_4_4*%
%TO.N,/TXD0*%
X113600000Y-119300000D03*
%TO.P,J3,5,Pin_5_5*%
%TO.N,/RXD0*%
X113600000Y-121840000D03*
%TO.P,J3,6,Pin_6_6*%
%TO.N,/IO21*%
X113600000Y-124380000D03*
%TO.P,J3,7,Pin_7_7*%
%TO.N,GND*%
X113600000Y-126920000D03*
%TO.P,J3,8,Pin_8_8*%
%TO.N,/IO19*%
X113600000Y-129460000D03*
%TO.P,J3,9,Pin_9_9*%
%TO.N,/IO18*%
X113600000Y-132000000D03*
%TO.P,J3,10,Pin_10_10*%
%TO.N,/IO5*%
X113600000Y-134540000D03*
%TO.P,J3,11,Pin_11_11*%
%TO.N,/IO17*%
X113600000Y-137080000D03*
%TO.P,J3,12,Pin_12_12*%
%TO.N,/IO16*%
X113600000Y-139620000D03*
%TO.P,J3,13,Pin_13_13*%
%TO.N,/IO4*%
X113600000Y-142160000D03*
%TO.P,J3,14,Pin_14_14*%
%TO.N,/IO0*%
X113600000Y-144700000D03*
%TO.P,J3,15,Pin_15_15*%
%TO.N,/IO2*%
X113600000Y-147240000D03*
%TO.P,J3,16,Pin_16_16*%
%TO.N,/IO15*%
X113600000Y-149780000D03*
%TO.P,J3,17,Pin_17_17*%
%TO.N,/SD1*%
X113600000Y-152320000D03*
%TO.P,J3,18,Pin_18_18*%
%TO.N,/SD0*%
X113600000Y-154860000D03*
%TO.P,J3,19,Pin_19_19*%
%TO.N,/CLK*%
X113600000Y-157400000D03*
%TD*%
D20*
%TO.P,SW1,1,1_1*%
%TO.N,GND*%
X90250000Y-145700000D03*
X98200000Y-145700000D03*
%TO.P,SW1,2,2_2*%
%TO.N,/IO0*%
X90250000Y-150200000D03*
X98200000Y-150200000D03*
%TD*%
D12*
%TO.P,R26,1*%
%TO.N,Net-(U1-VBUS)*%
X103475000Y-152900000D03*
%TO.P,R26,2*%
%TO.N,GND*%
X105125000Y-152900000D03*
%TD*%
D14*
%TO.P,R21,1*%
%TO.N,/DTR*%
X93500000Y-142100000D03*
%TO.P,R21,2*%
%TO.N,Net-(Q1-Pad1)*%
X91850000Y-142100000D03*
%TD*%
D15*
%TO.P,R17,1*%
%TO.N,/TXD0*%
X103000000Y-135450000D03*
%TO.P,R17,2*%
%TO.N,/RXD*%
X103000000Y-137100000D03*
%TD*%
D27*
%TO.N,Net-(Q2-Pad1)*%
X108300000Y-140600000D03*
X108549263Y-138600735D03*
%TO.N,/IO0*%
X109399265Y-138000735D03*
X105331911Y-142068089D03*
X106600000Y-139600000D03*
X108400000Y-147100000D03*
X109100000Y-133600000D03*
X104500000Y-139600000D03*
X99975735Y-149175735D03*
X108400000Y-152100000D03*
X102300000Y-152300000D03*
%TO.N,/DTR*%
X99200000Y-134100000D03*
X102200000Y-140600000D03*
X100600000Y-137500000D03*
X105900000Y-135900000D03*
X95400000Y-138500000D03*
X97300000Y-136600000D03*
%TO.N,/VBUS*%
X96300000Y-155000000D03*
%TO.N,/RTS*%
X93800000Y-139100000D03*
X102650000Y-139250000D03*
%TO.N,/USB_DN*%
X99300000Y-154000000D03*
%TO.N,/USB_DP*%
X110100000Y-158600000D03*
X100000000Y-154600000D03*
%TO.N,GND*%
X90800000Y-129500000D03*
X107800000Y-149100000D03*
X103100000Y-140200000D03*
X95000000Y-154800000D03*
%TO.N,/VDD33*%
X103600000Y-144100000D03*
X104400000Y-142200000D03*
%TO.N,/EN*%
X99500000Y-131100000D03*
X96600000Y-133800000D03*
X96614152Y-135925730D03*
X94200000Y-113900000D03*
X99600000Y-126400000D03*
%TO.N,/IO27*%
X93400000Y-125200000D03*
%TO.N,/IO14*%
X93400000Y-126400000D03*
%TO.N,/IO12*%
X89400000Y-127900000D03*
%TO.N,/IO13*%
X89800000Y-132900000D03*
%TO.N,/SD2*%
X90400000Y-133465687D03*
%TO.N,/SD3*%
X91300000Y-133500000D03*
%TO.N,/CMD*%
X92000000Y-133900000D03*
%TO.N,Net-(MOD1-3V3)*%
X93200000Y-112500000D03*
%TO.N,/SD0*%
X107991302Y-136914496D03*
X109400000Y-139300000D03*
%TO.N,/SD1*%
X105600000Y-133700000D03*
%TO.N,/IO15*%
X107000000Y-133500000D03*
%TO.N,/IO2*%
X108330778Y-133380222D03*
%TO.N,/RXD0*%
X101300000Y-135500000D03*
%TO.N,/TXD0*%
X102400000Y-134200000D03*
%TO.N,Net-(D1-A)*%
X100800000Y-133800000D03*
%TO.N,/RXD*%
X99600000Y-139100000D03*
%TO.N,Net-(U1-VBUS)*%
X103487500Y-147400000D03*
%TO.N,/TXD*%
X101000000Y-139000000D03*
%TD*%
%TO.N,Net-(Q2-Pad1)*%
D28*
X108549263Y-138600735D02*
X108549263Y-137450737D01*
X109050000Y-141350000D02*
X108300000Y-140600000D01*
X108549263Y-137450737D02*
X109100000Y-136900000D01*
X109050000Y-142100000D02*
X109050000Y-141350000D01*
%TO.N,/IO0*%
X108665000Y-127710000D02*
X109215000Y-127710000D01*
X99275000Y-149125000D02*
X99275000Y-141175000D01*
X109215000Y-127710000D02*
X110050000Y-128545000D01*
X105200000Y-138900000D02*
X106000000Y-138900000D01*
X102300000Y-152300000D02*
X102500000Y-152100000D01*
X112100000Y-143200000D02*
X112100000Y-141400000D01*
X112100000Y-141400000D02*
X110050000Y-139350000D01*
X110050000Y-138000000D02*
X110050000Y-135950000D01*
X108400000Y-147100000D02*
X108400000Y-145136178D01*
X106600000Y-139500000D02*
X106600000Y-139600000D01*
X98200000Y-150200000D02*
X99275000Y-149125000D01*
X99275000Y-149125000D02*
X99925000Y-149125000D01*
X110050000Y-128545000D02*
X110050000Y-132650000D01*
X108400000Y-145136178D02*
X105331911Y-142068089D01*
X113600000Y-144700000D02*
X112100000Y-143200000D01*
X102500000Y-152100000D02*
X108400000Y-152100000D01*
X104500000Y-139600000D02*
X105200000Y-138900000D01*
X110049265Y-138000735D02*
X110050000Y-138000000D01*
X99275000Y-141175000D02*
X98000000Y-139900000D01*
X110050000Y-135950000D02*
X109100000Y-135000000D01*
X110050000Y-139350000D02*
X110050000Y-138000000D01*
X99925000Y-149125000D02*
X99975735Y-149175735D01*
X109399265Y-138000735D02*
X110049265Y-138000735D01*
X110050000Y-132650000D02*
X109100000Y-133600000D01*
X106000000Y-138900000D02*
X106600000Y-139500000D01*
X109100000Y-135000000D02*
X109100000Y-133600000D01*
X90250000Y-150200000D02*
X98200000Y-150200000D01*
%TO.N,/DTR*%
X99200000Y-134100000D02*
X99062352Y-134100000D01*
X105950000Y-135950000D02*
X105900000Y-135900000D01*
X99062352Y-134100000D02*
X97300000Y-135862352D01*
X93500000Y-140400000D02*
X93500000Y-142100000D01*
X102050000Y-140450000D02*
X102200000Y-140600000D01*
X97300000Y-135862352D02*
X97300000Y-136600000D01*
X95400000Y-138500000D02*
X93500000Y-140400000D01*
X102050000Y-138950000D02*
X102050000Y-140450000D01*
X100600000Y-137500000D02*
X102050000Y-138950000D01*
X107100000Y-135950000D02*
X105950000Y-135950000D01*
%TO.N,/VBUS*%
X96300000Y-152700000D02*
X96300000Y-155000000D01*
X98704224Y-155300001D02*
X98404223Y-155000000D01*
X98404223Y-155000000D02*
X96300000Y-155000000D01*
X98704224Y-156000000D02*
X98704224Y-155300001D01*
%TO.N,/RTS*%
X93800000Y-139100000D02*
X91750000Y-137050000D01*
X106800000Y-138500000D02*
X107400000Y-139100000D01*
X103400000Y-138500000D02*
X106800000Y-138500000D01*
X102650000Y-139250000D02*
X103400000Y-138500000D01*
X91750000Y-137050000D02*
X91700000Y-137050000D01*
X107400000Y-139100000D02*
X107400000Y-142100000D01*
%TO.N,/USB_DN*%
X99354224Y-156000000D02*
X99354224Y-154054224D01*
X99354224Y-154054224D02*
X99300000Y-154000000D01*
%TO.N,/USB_DP*%
X100304225Y-155000000D02*
X106500000Y-155000000D01*
X100004224Y-155300001D02*
X100304225Y-155000000D01*
X100004224Y-154604224D02*
X100000000Y-154600000D01*
X100004224Y-156000000D02*
X100004224Y-155300001D01*
X106500000Y-155000000D02*
X110100000Y-158600000D01*
X100004224Y-156000000D02*
X100004224Y-154604224D01*
%TO.N,GND*%
X110700000Y-158848529D02*
X110348529Y-159200000D01*
X109900000Y-145700000D02*
X109900000Y-147000000D01*
X101000000Y-116865000D02*
X101000000Y-117782500D01*
X109900000Y-147000000D02*
X107800000Y-149100000D01*
X87500000Y-145700000D02*
X86600000Y-144800000D01*
X96325000Y-135400000D02*
X92950000Y-135400000D01*
X105125000Y-152900000D02*
X105525000Y-152900000D01*
X97330000Y-116865000D02*
X98247500Y-116865000D01*
X92950000Y-135400000D02*
X92950000Y-136800000D01*
X96429224Y-156229224D02*
X96429224Y-158650000D01*
X98879224Y-158650000D02*
X96429224Y-158650000D01*
X101000000Y-118700000D02*
X101000000Y-119617500D01*
X99165000Y-120535000D02*
X98247500Y-120535000D01*
X97225000Y-140675000D02*
X98000000Y-141450000D01*
X101000000Y-120535000D02*
X100082500Y-120535000D01*
X95000000Y-154800000D02*
X96429224Y-156229224D01*
X101904224Y-156000000D02*
X102324224Y-156420000D01*
X108665000Y-111200000D02*
X113120000Y-111200000D01*
X97684224Y-156420000D02*
X97684224Y-157395000D01*
X97684224Y-157395000D02*
X96429224Y-158650000D01*
X101129224Y-158650000D02*
X103579224Y-158650000D01*
X92865000Y-111200000D02*
X97330000Y-115665000D01*
X104400000Y-145700000D02*
X107800000Y-149100000D01*
X97330000Y-115665000D02*
X97330000Y-116865000D01*
X97225000Y-139476471D02*
X97225000Y-140675000D01*
X110700000Y-158075000D02*
X110700000Y-158848529D01*
X101000000Y-118700000D02*
X100082500Y-118700000D01*
X101304224Y-156000000D02*
X101904224Y-156000000D01*
X94450000Y-128710000D02*
X91590000Y-128710000D01*
X98200000Y-145700000D02*
X90250000Y-145700000D01*
X90250000Y-145700000D02*
X87500000Y-145700000D01*
X105525000Y-152900000D02*
X110700000Y-158075000D01*
X100900000Y-141500000D02*
X100900000Y-144650000D01*
X102324224Y-156420000D02*
X102324224Y-157455000D01*
X98000000Y-145500000D02*
X98200000Y-145700000D01*
X104129224Y-159200000D02*
X103579224Y-158650000D01*
X100900000Y-144650000D02*
X101950000Y-145700000D01*
X99165000Y-116865000D02*
X100082500Y-116865000D01*
X91665000Y-111200000D02*
X92865000Y-111200000D01*
X103100000Y-140200000D02*
X104312352Y-140200000D01*
X97330000Y-118700000D02*
X97330000Y-117782500D01*
X104312352Y-140200000D02*
X109812352Y-145700000D01*
X92950000Y-136800000D02*
X94548529Y-136800000D01*
X91590000Y-128710000D02*
X90800000Y-129500000D01*
X102324224Y-157455000D02*
X101129224Y-158650000D01*
X113120000Y-111200000D02*
X113600000Y-111680000D01*
X98000000Y-141450000D02*
X98000000Y-145500000D01*
X109812352Y-145700000D02*
X109900000Y-145700000D01*
X110348529Y-159200000D02*
X104129224Y-159200000D01*
X99225000Y-132500000D02*
X96325000Y-135400000D01*
X97330000Y-120535000D02*
X97330000Y-119617500D01*
X99165000Y-118700000D02*
X99165000Y-117782500D01*
X94548529Y-136800000D02*
X97225000Y-139476471D01*
X101950000Y-145700000D02*
X104400000Y-145700000D01*
X97330000Y-118700000D02*
X98247500Y-118700000D01*
%TO.N,/VDD33*%
X103600000Y-144100000D02*
X104400000Y-143300000D01*
X104400000Y-143300000D02*
X104400000Y-142200000D01*
%TO.N,/EN*%
X100875000Y-146650000D02*
X103586029Y-146650000D01*
X101950000Y-150200000D02*
X109900000Y-150200000D01*
X99601471Y-139950000D02*
X100900000Y-139950000D01*
X95975735Y-136324265D02*
X96215617Y-136324265D01*
X94200000Y-121000000D02*
X94200000Y-113900000D01*
X104087500Y-147151471D02*
X104087500Y-148062500D01*
X103586029Y-146650000D02*
X104087500Y-147151471D01*
X99600000Y-126400000D02*
X94200000Y-121000000D01*
X95751471Y-136100000D02*
X95975735Y-136324265D01*
X94200000Y-113900000D02*
X94040000Y-113740000D01*
X104087500Y-148062500D02*
X101950000Y-150200000D01*
X99300000Y-131100000D02*
X99500000Y-131100000D01*
X93700000Y-136100000D02*
X95751471Y-136100000D01*
X95975735Y-136324265D02*
X99601471Y-139950000D01*
X96600000Y-133800000D02*
X99300000Y-131100000D01*
X100125000Y-145900000D02*
X100875000Y-146650000D01*
X87180000Y-113740000D02*
X91665000Y-113740000D01*
X96215617Y-136324265D02*
X96614152Y-135925730D01*
X86600000Y-114320000D02*
X87180000Y-113740000D01*
X100900000Y-139950000D02*
X100125000Y-140725000D01*
X100125000Y-140725000D02*
X100125000Y-145900000D01*
X94040000Y-113740000D02*
X91665000Y-113740000D01*
%TO.N,/SENSOR_VP*%
X87590000Y-115010000D02*
X91665000Y-115010000D01*
X86600000Y-116860000D02*
X86600000Y-116000000D01*
X86600000Y-116000000D02*
X87590000Y-115010000D01*
%TO.N,/SENSOR_VN*%
X87800000Y-118200000D02*
X87800000Y-117100000D01*
X87800000Y-117100000D02*
X88620000Y-116280000D01*
X88620000Y-116280000D02*
X91665000Y-116280000D01*
X86600000Y-119400000D02*
X87800000Y-118200000D01*
%TO.N,/IO34*%
X86600000Y-121940000D02*
X88000000Y-120540000D01*
X89650000Y-117550000D02*
X91665000Y-117550000D01*
X88000000Y-119200000D02*
X89650000Y-117550000D01*
X88000000Y-120540000D02*
X88000000Y-119200000D01*
%TO.N,/IO35*%
X86600000Y-124480000D02*
X88400000Y-122680000D01*
X89580000Y-118820000D02*
X91665000Y-118820000D01*
X88400000Y-122680000D02*
X88400000Y-120000000D01*
X88400000Y-120000000D02*
X89580000Y-118820000D01*
%TO.N,/IO32*%
X86600000Y-127020000D02*
X88800000Y-124820000D01*
X90210000Y-120090000D02*
X91665000Y-120090000D01*
X88800000Y-124820000D02*
X88800000Y-121500000D01*
X88800000Y-121500000D02*
X90210000Y-120090000D01*
%TO.N,/IO33*%
X89200000Y-122625000D02*
X90465000Y-121360000D01*
X89200000Y-125200000D02*
X89200000Y-122625000D01*
X86600000Y-129560000D02*
X87800000Y-128360000D01*
X87800000Y-126600000D02*
X89200000Y-125200000D01*
X90465000Y-121360000D02*
X91665000Y-121360000D01*
X87800000Y-128360000D02*
X87800000Y-126600000D01*
%TO.N,/IO25*%
X89600000Y-125700000D02*
X89600000Y-123600000D01*
X90570000Y-122630000D02*
X91665000Y-122630000D01*
X86600000Y-132100000D02*
X88200000Y-130500000D01*
X88200000Y-130500000D02*
X88200000Y-127100000D01*
X89600000Y-123600000D02*
X90570000Y-122630000D01*
X88200000Y-127100000D02*
X89600000Y-125700000D01*
%TO.N,/IO26*%
X88100000Y-131500000D02*
X88600000Y-131000000D01*
X88600000Y-127700000D02*
X90000000Y-126300000D01*
X90000000Y-124600000D02*
X90700000Y-123900000D01*
X90700000Y-123900000D02*
X91665000Y-123900000D01*
X88100000Y-133140000D02*
X88100000Y-131500000D01*
X86600000Y-134640000D02*
X88100000Y-133140000D01*
X88600000Y-131000000D02*
X88600000Y-127700000D01*
X90000000Y-126300000D02*
X90000000Y-124600000D01*
%TO.N,/IO27*%
X91665000Y-125170000D02*
X93370000Y-125170000D01*
X93370000Y-125170000D02*
X93400000Y-125200000D01*
%TO.N,/IO14*%
X93360000Y-126440000D02*
X93400000Y-126400000D01*
X91665000Y-126440000D02*
X93360000Y-126440000D01*
%TO.N,/IO12*%
X89590000Y-127710000D02*
X89400000Y-127900000D01*
X91665000Y-127710000D02*
X89590000Y-127710000D01*
%TO.N,/IO13*%
X89800000Y-130500000D02*
X94710000Y-130500000D01*
X94710000Y-130500000D02*
X95720000Y-129490000D01*
X89800000Y-132900000D02*
X89800000Y-130500000D01*
X95720000Y-129490000D02*
X95720000Y-128710000D01*
%TO.N,/SD2*%
X90400000Y-131100000D02*
X95380000Y-131100000D01*
X96990000Y-129490000D02*
X96990000Y-128710000D01*
X95380000Y-131100000D02*
X96990000Y-129490000D01*
X90400000Y-133465687D02*
X90400000Y-131100000D01*
%TO.N,/SD3*%
X91300000Y-133500000D02*
X91300000Y-132200000D01*
X95550000Y-132200000D02*
X98260000Y-129490000D01*
X91300000Y-132200000D02*
X95550000Y-132200000D01*
X98260000Y-129490000D02*
X98260000Y-128710000D01*
%TO.N,/CMD*%
X99530000Y-129490000D02*
X99530000Y-128710000D01*
X95120000Y-133900000D02*
X99530000Y-129490000D01*
X92000000Y-133900000D02*
X95120000Y-133900000D01*
%TO.N,Net-(MOD1-3V3)*%
X91665000Y-112470000D02*
X93170000Y-112470000D01*
X93170000Y-112470000D02*
X93200000Y-112500000D01*
%TO.N,Net-(Q1-Pad1)*%
X89900000Y-136950000D02*
X91700000Y-135150000D01*
X89900000Y-142100000D02*
X89900000Y-136950000D01*
X91850000Y-142100000D02*
X89900000Y-142100000D01*
%TO.N,/CLK*%
X113600000Y-157400000D02*
X110975000Y-154775000D01*
X101537500Y-130647500D02*
X100800000Y-129910000D01*
X110975000Y-154775000D02*
X110975000Y-141925000D01*
X100800000Y-129910000D02*
X100800000Y-128710000D01*
X101537500Y-132437500D02*
X101537500Y-130647500D01*
X110975000Y-141925000D02*
X111000000Y-141900000D01*
X111000000Y-141900000D02*
X101537500Y-132437500D01*
%TO.N,/SD0*%
X104500000Y-134300000D02*
X104500000Y-131500000D01*
X106900000Y-134300000D02*
X104500000Y-134300000D01*
X111600000Y-152860000D02*
X111600000Y-141600000D01*
X111600000Y-141600000D02*
X109400000Y-139400000D01*
X104400000Y-131400000D02*
X104500000Y-131500000D01*
X113600000Y-154860000D02*
X111600000Y-152860000D01*
X107991302Y-135391302D02*
X106900000Y-134300000D01*
X107991302Y-136914496D02*
X107991302Y-135391302D01*
X109400000Y-139400000D02*
X109400000Y-139300000D01*
X104400000Y-131400000D02*
X103980000Y-131400000D01*
X102070000Y-129490000D02*
X102070000Y-128710000D01*
X103980000Y-131400000D02*
X102070000Y-129490000D01*
%TO.N,/SD1*%
X103340000Y-129910000D02*
X104230000Y-130800000D01*
X105200000Y-133300000D02*
X105600000Y-133700000D01*
X104230000Y-130800000D02*
X105200000Y-130800000D01*
X103340000Y-128710000D02*
X103340000Y-129910000D01*
X105200000Y-130800000D02*
X105200000Y-133300000D01*
%TO.N,/IO15*%
X106800000Y-130600000D02*
X106800000Y-133300000D01*
X104610000Y-128710000D02*
X104610000Y-129490000D01*
X106800000Y-133300000D02*
X107000000Y-133500000D01*
X105720000Y-130600000D02*
X106800000Y-130600000D01*
X104610000Y-129490000D02*
X105720000Y-130600000D01*
%TO.N,/IO2*%
X105880000Y-128710000D02*
X107810000Y-128710000D01*
X107810000Y-128710000D02*
X109000000Y-129900000D01*
X109000000Y-132711000D02*
X108330778Y-133380222D01*
X109000000Y-129900000D02*
X109000000Y-132711000D01*
%TO.N,/IO4*%
X110450000Y-139010000D02*
X113600000Y-142160000D01*
X110450000Y-127025000D02*
X110450000Y-139010000D01*
X109865000Y-126440000D02*
X110450000Y-127025000D01*
X108665000Y-126440000D02*
X109865000Y-126440000D01*
%TO.N,/IO16*%
X108665000Y-125170000D02*
X109865000Y-125170000D01*
X110850000Y-126155000D02*
X110850000Y-135956346D01*
X113600000Y-138706346D02*
X113600000Y-139620000D01*
X109865000Y-125170000D02*
X110850000Y-126155000D01*
X110850000Y-135956346D02*
X113600000Y-138706346D01*
%TO.N,/IO17*%
X109865000Y-123900000D02*
X111250000Y-125285000D01*
X108665000Y-123900000D02*
X109865000Y-123900000D01*
X111250000Y-125285000D02*
X111250000Y-133850000D01*
X111250000Y-133850000D02*
X113600000Y-136200000D01*
X113600000Y-136200000D02*
X113600000Y-137080000D01*
%TO.N,/IO5*%
X109865000Y-122630000D02*
X111650000Y-124415000D01*
X111650000Y-132590000D02*
X113600000Y-134540000D01*
X108665000Y-122630000D02*
X109865000Y-122630000D01*
X111650000Y-124415000D02*
X111650000Y-132590000D01*
%TO.N,/IO18*%
X109865000Y-121360000D02*
X112050000Y-123545000D01*
X108665000Y-121360000D02*
X109865000Y-121360000D01*
X112050000Y-130450000D02*
X113600000Y-132000000D01*
X112050000Y-123545000D02*
X112050000Y-130450000D01*
%TO.N,/IO19*%
X112450000Y-122915686D02*
X112450000Y-128310000D01*
X112450000Y-128310000D02*
X113600000Y-129460000D01*
X108665000Y-120090000D02*
X109624314Y-120090000D01*
X109624314Y-120090000D02*
X112450000Y-122915686D01*
%TO.N,/IO21*%
X112450000Y-120555000D02*
X112450000Y-122350000D01*
X112450000Y-122350000D02*
X113600000Y-123500000D01*
X113600000Y-123500000D02*
X113600000Y-124380000D01*
X109445000Y-117550000D02*
X112450000Y-120555000D01*
X108665000Y-117550000D02*
X109445000Y-117550000D01*
%TO.N,/RXD0*%
X108665000Y-116280000D02*
X109865000Y-116280000D01*
X109865000Y-116280000D02*
X112450000Y-118865000D01*
X112450000Y-118865000D02*
X112450000Y-119950000D01*
X98800000Y-135550000D02*
X101250000Y-135550000D01*
X112450000Y-119950000D02*
X113600000Y-121100000D01*
X113600000Y-121100000D02*
X113600000Y-121840000D01*
X101250000Y-135550000D02*
X101300000Y-135500000D01*
%TO.N,/TXD0*%
X103000000Y-135450000D02*
X103000000Y-134800000D01*
X113500000Y-118286346D02*
X113500000Y-119200000D01*
X103000000Y-134800000D02*
X102400000Y-134200000D01*
X108665000Y-115010000D02*
X110223654Y-115010000D01*
X113500000Y-119200000D02*
X113600000Y-119300000D01*
X110223654Y-115010000D02*
X113500000Y-118286346D01*
%TO.N,/IO22*%
X108665000Y-113740000D02*
X110580000Y-113740000D01*
X110580000Y-113740000D02*
X113600000Y-116760000D01*
%TO.N,/IO23*%
X108665000Y-112470000D02*
X111850000Y-112470000D01*
X111850000Y-112470000D02*
X113600000Y-114220000D01*
%TO.N,Net-(D1-A)*%
X100800000Y-132500000D02*
X100800000Y-133800000D01*
%TO.N,/RXD*%
X98025000Y-137612648D02*
X98025000Y-136787352D01*
X98312352Y-136500000D02*
X102400000Y-136500000D01*
X99512352Y-139100000D02*
X98025000Y-137612648D01*
X102400000Y-136500000D02*
X103000000Y-137100000D01*
X99600000Y-139100000D02*
X99512352Y-139100000D01*
X98025000Y-136787352D02*
X98312352Y-136500000D01*
%TO.N,Net-(U1-VBUS)*%
X100800000Y-152900000D02*
X103475000Y-152900000D01*
X99275000Y-151375000D02*
X97950000Y-152700000D01*
X99275000Y-150725000D02*
X99275000Y-151375000D01*
X99275000Y-151375000D02*
X100800000Y-152900000D01*
X102600000Y-147400000D02*
X99275000Y-150725000D01*
X103487500Y-147400000D02*
X102600000Y-147400000D01*
%TO.N,/TXD*%
X101000000Y-139000000D02*
X99200000Y-137200000D01*
X99200000Y-137200000D02*
X98800000Y-137200000D01*
%TD*%
M02*
