%TF.GenerationSoftware,KiCad,Pcbnew,10.0.3*%
%TF.CreationDate,2026-06-28T18:01:10+05:30*%
%TF.ProjectId,ESP32 DevKit,45535033-3220-4446-9576-4b69742e6b69,rev?*%
%TF.SameCoordinates,Original*%
%TF.FileFunction,Copper,L2,Inr*%
%TF.FilePolarity,Positive*%
%FSLAX46Y46*%
G04 Gerber Fmt 4.6, Leading zero omitted, Abs format (unit mm)*
G04 Created by KiCad (PCBNEW 10.0.3) date 2026-06-28 18:01:10*
%MOMM*%
%LPD*%
G01*
G04 APERTURE LIST*
%TA.AperFunction,ComponentPad*%
%ADD10O,1.050000X1.900000*%
%TD*%
%TA.AperFunction,ComponentPad*%
%ADD11C,0.500000*%
%TD*%
%TA.AperFunction,ComponentPad*%
%ADD12R,1.700000X1.700000*%
%TD*%
%TA.AperFunction,ComponentPad*%
%ADD13C,1.700000*%
%TD*%
%TA.AperFunction,ViaPad*%
%ADD14C,0.600000*%
%TD*%
G04 APERTURE END LIST*
D10*
%TO.N,GND*%
%TO.C,J1*%
X96429224Y-158650000D03*
X103579224Y-158650000D03*
%TD*%
D11*
%TO.N,GND*%
%TO.C,MOD1*%
X98247500Y-116865000D03*
X100082500Y-116865000D03*
X97330000Y-117782500D03*
X99165000Y-117782500D03*
X101000000Y-117782500D03*
X98247500Y-118700000D03*
X100082500Y-118700000D03*
X97330000Y-119617500D03*
X99165000Y-119617500D03*
X101000000Y-119617500D03*
X98247500Y-120535000D03*
X100082500Y-120535000D03*
%TD*%
D12*
%TO.N,/VDD33*%
%TO.C,J2*%
X86600000Y-111780000D03*
D13*
%TO.N,/EN*%
X86600000Y-114320000D03*
%TO.N,/SENSOR_VP*%
X86600000Y-116860000D03*
%TO.N,/SENSOR_VN*%
X86600000Y-119400000D03*
%TO.N,/IO34*%
X86600000Y-121940000D03*
%TO.N,/IO35*%
X86600000Y-124480000D03*
%TO.N,/IO32*%
X86600000Y-127020000D03*
%TO.N,/IO33*%
X86600000Y-129560000D03*
%TO.N,/IO25*%
X86600000Y-132100000D03*
%TO.N,/IO26*%
X86600000Y-134640000D03*
%TO.N,/IO27*%
X86600000Y-137180000D03*
%TO.N,/IO14*%
X86600000Y-139720000D03*
%TO.N,/IO12*%
X86600000Y-142260000D03*
%TO.N,GND*%
X86600000Y-144800000D03*
%TO.N,/IO13*%
X86600000Y-147340000D03*
%TO.N,/SD2*%
X86600000Y-149880000D03*
%TO.N,/SD3*%
X86600000Y-152420000D03*
%TO.N,/CMD*%
X86600000Y-154960000D03*
%TO.N,/EXT_5V*%
X86600000Y-157500000D03*
%TD*%
D12*
%TO.N,GND*%
%TO.C,J3*%
X113600000Y-111680000D03*
D13*
%TO.N,/IO23*%
X113600000Y-114220000D03*
%TO.N,/IO22*%
X113600000Y-116760000D03*
%TO.N,/TXD0*%
X113600000Y-119300000D03*
%TO.N,/RXD0*%
X113600000Y-121840000D03*
%TO.N,/IO21*%
X113600000Y-124380000D03*
%TO.N,GND*%
X113600000Y-126920000D03*
%TO.N,/IO19*%
X113600000Y-129460000D03*
%TO.N,/IO18*%
X113600000Y-132000000D03*
%TO.N,/IO5*%
X113600000Y-134540000D03*
%TO.N,/IO17*%
X113600000Y-137080000D03*
%TO.N,/IO16*%
X113600000Y-139620000D03*
%TO.N,/IO4*%
X113600000Y-142160000D03*
%TO.N,/IO0*%
X113600000Y-144700000D03*
%TO.N,/IO2*%
X113600000Y-147240000D03*
%TO.N,/IO15*%
X113600000Y-149780000D03*
%TO.N,/SD1*%
X113600000Y-152320000D03*
%TO.N,/SD0*%
X113600000Y-154860000D03*
%TO.N,/CLK*%
X113600000Y-157400000D03*
%TD*%
D14*
%TO.N,Net-(Q2-Pad1)*%
X108300000Y-140600000D03*
X108549263Y-138600735D03*
%TO.N,/IO0*%
X109399265Y-138000735D03*
X105331911Y-142068089D03*
X106600000Y-139600000D03*
X108400000Y-147100000D03*
X109100000Y-133600000D03*
X104500000Y-139600000D03*
X99975735Y-149175735D03*
X108400000Y-152100000D03*
X102300000Y-152300000D03*
%TO.N,/DTR*%
X99200000Y-134100000D03*
X102200000Y-140600000D03*
X100600000Y-137500000D03*
X105900000Y-135900000D03*
X95400000Y-138500000D03*
X97300000Y-136600000D03*
%TO.N,/VBUS*%
X96300000Y-155000000D03*
%TO.N,/RTS*%
X93800000Y-139100000D03*
X102650000Y-139250000D03*
%TO.N,/USB_DN*%
X99300000Y-154000000D03*
%TO.N,/USB_DP*%
X110100000Y-158600000D03*
X100000000Y-154600000D03*
%TO.N,GND*%
X90800000Y-129500000D03*
X107800000Y-149100000D03*
X103100000Y-140200000D03*
X95000000Y-154800000D03*
%TO.N,/VDD33*%
X103600000Y-144100000D03*
X104400000Y-142200000D03*
%TO.N,/EN*%
X99500000Y-131100000D03*
X96600000Y-133800000D03*
X96614152Y-135925730D03*
X94200000Y-113900000D03*
X99600000Y-126400000D03*
%TO.N,/IO27*%
X93400000Y-125200000D03*
%TO.N,/IO14*%
X93400000Y-126400000D03*
%TO.N,/IO12*%
X89400000Y-127900000D03*
%TO.N,/IO13*%
X89800000Y-132900000D03*
%TO.N,/SD2*%
X90400000Y-133465687D03*
%TO.N,/SD3*%
X91300000Y-133500000D03*
%TO.N,/CMD*%
X92000000Y-133900000D03*
%TO.N,Net-(MOD1-3V3)*%
X93200000Y-112500000D03*
%TO.N,/SD0*%
X107991302Y-136914496D03*
X109400000Y-139300000D03*
%TO.N,/SD1*%
X105600000Y-133700000D03*
%TO.N,/IO15*%
X107000000Y-133500000D03*
%TO.N,/IO2*%
X108330778Y-133380222D03*
%TO.N,/RXD0*%
X101300000Y-135500000D03*
%TO.N,/TXD0*%
X102400000Y-134200000D03*
%TO.N,Net-(D1-A)*%
X100800000Y-133800000D03*
%TO.N,/RXD*%
X99600000Y-139100000D03*
%TO.N,Net-(U1-VBUS)*%
X103487500Y-147400000D03*
%TO.N,/TXD*%
X101000000Y-139000000D03*
%TD*%
%TA.AperFunction,Conductor*%
%TO.N,GND*%
G36*
X109138763Y-110029685D02*
G01*
X109179111Y-110072000D01*
X109199497Y-110107310D01*
X109199499Y-110107313D01*
X109199500Y-110107314D01*
X109292686Y-110200500D01*
X109406814Y-110266392D01*
X109534108Y-110300500D01*
X112274081Y-110300500D01*
X112341120Y-110320185D01*
X112386875Y-110372989D01*
X112396819Y-110442147D01*
X112373347Y-110498811D01*
X112306649Y-110587906D01*
X112306645Y-110587913D01*
X112256403Y-110722620D01*
X112256401Y-110722627D01*
X112250000Y-110782155D01*
X112250000Y-111430000D01*
X113166988Y-111430000D01*
X113134075Y-111487007D01*
X113100000Y-111614174D01*
X113100000Y-111745826D01*
X113134075Y-111872993D01*
X113166988Y-111930000D01*
X112250000Y-111930000D01*
X112250000Y-112577844D01*
X112256401Y-112637372D01*
X112256403Y-112637379D01*
X112306645Y-112772086D01*
X112306649Y-112772093D01*
X112392809Y-112887187D01*
X112392812Y-112887190D01*
X112507906Y-112973350D01*
X112507913Y-112973354D01*
X112639470Y-113022422D01*
X112695404Y-113064293D01*
X112719821Y-113129758D01*
X112704969Y-113198031D01*
X112683819Y-113226285D01*
X112569889Y-113340215D01*
X112444951Y-113512179D01*
X112348444Y-113701585D01*
X112282753Y-113903760D01*
X112249500Y-114113713D01*
X112249500Y-114326286D01*
X112280464Y-114521789D01*
X112282754Y-114536243D01*
X112336124Y-114700499D01*
X112348444Y-114738414D01*
X112444951Y-114927820D01*
X112569890Y-115099786D01*
X112720213Y-115250109D01*
X112892182Y-115375050D01*
X112900946Y-115379516D01*
X112951742Y-115427491D01*
X112968536Y-115495312D01*
X112945998Y-115561447D01*
X112900946Y-115600484D01*
X112892182Y-115604949D01*
X112720213Y-115729890D01*
X112569890Y-115880213D01*
X112444951Y-116052179D01*
X112348444Y-116241585D01*
X112282753Y-116443760D01*
X112249500Y-116653713D01*
X112249500Y-116866286D01*
X112280390Y-117061322D01*
X112282754Y-117076243D01*
X112315244Y-117176238D01*
X112348444Y-117278414D01*
X112444951Y-117467820D01*
X112569890Y-117639786D01*
X112720213Y-117790109D01*
X112892182Y-117915050D01*
X112900946Y-117919516D01*
X112951742Y-117967491D01*
X112968536Y-118035312D01*
X112945998Y-118101447D01*
X112900946Y-118140484D01*
X112892182Y-118144949D01*
X112720213Y-118269890D01*
X112569890Y-118420213D01*
X112444951Y-118592179D01*
X112348444Y-118781585D01*
X112282753Y-118983760D01*
X112249500Y-119193713D01*
X112249500Y-119406286D01*
X112271252Y-119543626D01*
X112282754Y-119616243D01*
X112310770Y-119702468D01*
X112348444Y-119818414D01*
X112444951Y-120007820D01*
X112569890Y-120179786D01*
X112720213Y-120330109D01*
X112892182Y-120455050D01*
X112900946Y-120459516D01*
X112951742Y-120507491D01*
X112968536Y-120575312D01*
X112945998Y-120641447D01*
X112900946Y-120680484D01*
X112892182Y-120684949D01*
X112720213Y-120809890D01*
X112569890Y-120960213D01*
X112444951Y-121132179D01*
X112348444Y-121321585D01*
X112282753Y-121523760D01*
X112249500Y-121733713D01*
X112249500Y-121946286D01*
X112282753Y-122156239D01*
X112348444Y-122358414D01*
X112444951Y-122547820D01*
X112569890Y-122719786D01*
X112720213Y-122870109D01*
X112892182Y-122995050D01*
X112900946Y-122999516D01*
X112951742Y-123047491D01*
X112968536Y-123115312D01*
X112945998Y-123181447D01*
X112900946Y-123220484D01*
X112892182Y-123224949D01*
X112720213Y-123349890D01*
X112569890Y-123500213D01*
X112444951Y-123672179D01*
X112348444Y-123861585D01*
X112282753Y-124063760D01*
X112266915Y-124163757D01*
X112249500Y-124273713D01*
X112249500Y-124486287D01*
X112250184Y-124490606D01*
X112281718Y-124689707D01*
X112282754Y-124696243D01*
X112348397Y-124898271D01*
X112348444Y-124898414D01*
X112444951Y-125087820D01*
X112569890Y-125259786D01*
X112720213Y-125410109D01*
X112892179Y-125535048D01*
X112892181Y-125535049D01*
X112892184Y-125535051D01*
X112901493Y-125539794D01*
X112952290Y-125587766D01*
X112969087Y-125655587D01*
X112946552Y-125721722D01*
X112901505Y-125760760D01*
X112892446Y-125765376D01*
X112892440Y-125765380D01*
X112838282Y-125804727D01*
X112838282Y-125804728D01*
X113470591Y-126437037D01*
X113407007Y-126454075D01*
X113292993Y-126519901D01*
X113199901Y-126612993D01*
X113134075Y-126727007D01*
X113117037Y-126790591D01*
X112484728Y-126158282D01*
X112484727Y-126158282D01*
X112445380Y-126212439D01*
X112348904Y-126401782D01*
X112283242Y-126603869D01*
X112283242Y-126603872D01*
X112250000Y-126813753D01*
X112250000Y-127026246D01*
X112283242Y-127236127D01*
X112283242Y-127236130D01*
X112348904Y-127438217D01*
X112445375Y-127627550D01*
X112484728Y-127681716D01*
X113117037Y-127049408D01*
X113134075Y-127112993D01*
X113199901Y-127227007D01*
X113292993Y-127320099D01*
X113407007Y-127385925D01*
X113470590Y-127402962D01*
X112838282Y-128035269D01*
X112838282Y-128035270D01*
X112892452Y-128074626D01*
X112892451Y-128074626D01*
X112901495Y-128079234D01*
X112952292Y-128127208D01*
X112969087Y-128195029D01*
X112946550Y-128261164D01*
X112901499Y-128300202D01*
X112892182Y-128304949D01*
X112720213Y-128429890D01*
X112569890Y-128580213D01*
X112444951Y-128752179D01*
X112348444Y-128941585D01*
X112282753Y-129143760D01*
X112249500Y-129353713D01*
X112249500Y-129566286D01*
X112282753Y-129776239D01*
X112348444Y-129978414D01*
X112444951Y-130167820D01*
X112569890Y-130339786D01*
X112720213Y-130490109D01*
X112892182Y-130615050D01*
X112900946Y-130619516D01*
X112951742Y-130667491D01*
X112968536Y-130735312D01*
X112945998Y-130801447D01*
X112900946Y-130840484D01*
X112892182Y-130844949D01*
X112720213Y-130969890D01*
X112569890Y-131120213D01*
X112444951Y-131292179D01*
X112348444Y-131481585D01*
X112282753Y-131683760D01*
X112262855Y-131809394D01*
X112249500Y-131893713D01*
X112249500Y-132106287D01*
X112253298Y-132130264D01*
X112276730Y-132278213D01*
X112282754Y-132316243D01*
X112306625Y-132389711D01*
X112348444Y-132518414D01*
X112444951Y-132707820D01*
X112569890Y-132879786D01*
X112720213Y-133030109D01*
X112892182Y-133155050D01*
X112900946Y-133159516D01*
X112951742Y-133207491D01*
X112968536Y-133275312D01*
X112945998Y-133341447D01*
X112900946Y-133380484D01*
X112892182Y-133384949D01*
X112720213Y-133509890D01*
X112569890Y-133660213D01*
X112444951Y-133832179D01*
X112348444Y-134021585D01*
X112282753Y-134223760D01*
X112249500Y-134433713D01*
X112249500Y-134646286D01*
X112278217Y-134827602D01*
X112282754Y-134856243D01*
X112326119Y-134989707D01*
X112348444Y-135058414D01*
X112444951Y-135247820D01*
X112569890Y-135419786D01*
X112720213Y-135570109D01*
X112892182Y-135695050D01*
X112900946Y-135699516D01*
X112951742Y-135747491D01*
X112968536Y-135815312D01*
X112945998Y-135881447D01*
X112900946Y-135920484D01*
X112892182Y-135924949D01*
X112720213Y-136049890D01*
X112569890Y-136200213D01*
X112444951Y-136372179D01*
X112348444Y-136561585D01*
X112282753Y-136763760D01*
X112249500Y-136973713D01*
X112249500Y-137186286D01*
X112280070Y-137379301D01*
X112282754Y-137396243D01*
X112342084Y-137578842D01*
X112348444Y-137598414D01*
X112444951Y-137787820D01*
X112569890Y-137959786D01*
X112720213Y-138110109D01*
X112892182Y-138235050D01*
X112900946Y-138239516D01*
X112951742Y-138287491D01*
X112968536Y-138355312D01*
X112945998Y-138421447D01*
X112900946Y-138460484D01*
X112892182Y-138464949D01*
X112720213Y-138589890D01*
X112569890Y-138740213D01*
X112444951Y-138912179D01*
X112348444Y-139101585D01*
X112282753Y-139303760D01*
X112249500Y-139513713D01*
X112249500Y-139726286D01*
X112280464Y-139921789D01*
X112282754Y-139936243D01*
X112339306Y-140110292D01*
X112348444Y-140138414D01*
X112444951Y-140327820D01*
X112569890Y-140499786D01*
X112720213Y-140650109D01*
X112892182Y-140775050D01*
X112900946Y-140779516D01*
X112951742Y-140827491D01*
X112968536Y-140895312D01*
X112945998Y-140961447D01*
X112900946Y-141000484D01*
X112892182Y-141004949D01*
X112720213Y-141129890D01*
X112569890Y-141280213D01*
X112444951Y-141452179D01*
X112348444Y-141641585D01*
X112282753Y-141843760D01*
X112259711Y-141989242D01*
X112249500Y-142053713D01*
X112249500Y-142266287D01*
X112259534Y-142329644D01*
X112282753Y-142476239D01*
X112348444Y-142678414D01*
X112444951Y-142867820D01*
X112569890Y-143039786D01*
X112720213Y-143190109D01*
X112892182Y-143315050D01*
X112900946Y-143319516D01*
X112951742Y-143367491D01*
X112968536Y-143435312D01*
X112945998Y-143501447D01*
X112900946Y-143540484D01*
X112892182Y-143544949D01*
X112720213Y-143669890D01*
X112569890Y-143820213D01*
X112444951Y-143992179D01*
X112348444Y-144181585D01*
X112282753Y-144383760D01*
X112249500Y-144593713D01*
X112249500Y-144806287D01*
X112249992Y-144809394D01*
X112279071Y-144992993D01*
X112282754Y-145016243D01*
X112346968Y-145213873D01*
X112348444Y-145218414D01*
X112444951Y-145407820D01*
X112569890Y-145579786D01*
X112720213Y-145730109D01*
X112892182Y-145855050D01*
X112900946Y-145859516D01*
X112951742Y-145907491D01*
X112968536Y-145975312D01*
X112945998Y-146041447D01*
X112900946Y-146080484D01*
X112892182Y-146084949D01*
X112720213Y-146209890D01*
X112569890Y-146360213D01*
X112444951Y-146532179D01*
X112348444Y-146721585D01*
X112282753Y-146923760D01*
X112249500Y-147133713D01*
X112249500Y-147346286D01*
X112265338Y-147446287D01*
X112282754Y-147556243D01*
X112336543Y-147721789D01*
X112348444Y-147758414D01*
X112444951Y-147947820D01*
X112569890Y-148119786D01*
X112720213Y-148270109D01*
X112892182Y-148395050D01*
X112900946Y-148399516D01*
X112951742Y-148447491D01*
X112968536Y-148515312D01*
X112945998Y-148581447D01*
X112900946Y-148620484D01*
X112892182Y-148624949D01*
X112720213Y-148749890D01*
X112569890Y-148900213D01*
X112444951Y-149072179D01*
X112348444Y-149261585D01*
X112282753Y-149463760D01*
X112249500Y-149673713D01*
X112249500Y-149886286D01*
X112282753Y-150096239D01*
X112348444Y-150298414D01*
X112444951Y-150487820D01*
X112569890Y-150659786D01*
X112720213Y-150810109D01*
X112892182Y-150935050D01*
X112900946Y-150939516D01*
X112951742Y-150987491D01*
X112968536Y-151055312D01*
X112945998Y-151121447D01*
X112900946Y-151160484D01*
X112892182Y-151164949D01*
X112720213Y-151289890D01*
X112569890Y-151440213D01*
X112444951Y-151612179D01*
X112348444Y-151801585D01*
X112282753Y-152003760D01*
X112249500Y-152213713D01*
X112249500Y-152426286D01*
X112278643Y-152610292D01*
X112282754Y-152636243D01*
X112339306Y-152810292D01*
X112348444Y-152838414D01*
X112444951Y-153027820D01*
X112569890Y-153199786D01*
X112720213Y-153350109D01*
X112892182Y-153475050D01*
X112900946Y-153479516D01*
X112951742Y-153527491D01*
X112968536Y-153595312D01*
X112945998Y-153661447D01*
X112900946Y-153700484D01*
X112892182Y-153704949D01*
X112720213Y-153829890D01*
X112569890Y-153980213D01*
X112444951Y-154152179D01*
X112348444Y-154341585D01*
X112282753Y-154543760D01*
X112249500Y-154753713D01*
X112249500Y-154966286D01*
X112272307Y-155110288D01*
X112282754Y-155176243D01*
X112345624Y-155369737D01*
X112348444Y-155378414D01*
X112444951Y-155567820D01*
X112569890Y-155739786D01*
X112720213Y-155890109D01*
X112892182Y-156015050D01*
X112900946Y-156019516D01*
X112951742Y-156067491D01*
X112968536Y-156135312D01*
X112945998Y-156201447D01*
X112900946Y-156240484D01*
X112892182Y-156244949D01*
X112720213Y-156369890D01*
X112569890Y-156520213D01*
X112444951Y-156692179D01*
X112348444Y-156881585D01*
X112282753Y-157083760D01*
X112249500Y-157293713D01*
X112249500Y-157506286D01*
X112265338Y-157606287D01*
X112282754Y-157716243D01*
X112339409Y-157890609D01*
X112348444Y-157918414D01*
X112444951Y-158107820D01*
X112569890Y-158279786D01*
X112720213Y-158430109D01*
X112892179Y-158555048D01*
X112892181Y-158555049D01*
X112892184Y-158555051D01*
X113081588Y-158651557D01*
X113283757Y-158717246D01*
X113493713Y-158750500D01*
X113493714Y-158750500D01*
X113706286Y-158750500D01*
X113706287Y-158750500D01*
X113916243Y-158717246D01*
X114118412Y-158651557D01*
X114307816Y-158555051D01*
X114354473Y-158521153D01*
X114479786Y-158430109D01*
X114479788Y-158430106D01*
X114479792Y-158430104D01*
X114630104Y-158279792D01*
X114630106Y-158279788D01*
X114630109Y-158279786D01*
X114743263Y-158124041D01*
X114755051Y-158107816D01*
X114765015Y-158088261D01*
X114812989Y-158037464D01*
X114880810Y-158020669D01*
X114946945Y-158043206D01*
X114990397Y-158097921D01*
X114999500Y-158144555D01*
X114999500Y-159475500D01*
X114979815Y-159542539D01*
X114927011Y-159588294D01*
X114875500Y-159599500D01*
X110402190Y-159599500D01*
X110335151Y-159579815D01*
X110289396Y-159527011D01*
X110279452Y-159457853D01*
X110308477Y-159394297D01*
X110354738Y-159360939D01*
X110479172Y-159309397D01*
X110479172Y-159309396D01*
X110479179Y-159309394D01*
X110610289Y-159221789D01*
X110721789Y-159110289D01*
X110809394Y-158979179D01*
X110869737Y-158833497D01*
X110900500Y-158678842D01*
X110900500Y-158521158D01*
X110900500Y-158521155D01*
X110900499Y-158521153D01*
X110869738Y-158366510D01*
X110869737Y-158366503D01*
X110869735Y-158366498D01*
X110809397Y-158220827D01*
X110809390Y-158220814D01*
X110721789Y-158089711D01*
X110721786Y-158089707D01*
X110610292Y-157978213D01*
X110610288Y-157978210D01*
X110479185Y-157890609D01*
X110479172Y-157890602D01*
X110333501Y-157830264D01*
X110333489Y-157830261D01*
X110178845Y-157799500D01*
X110178842Y-157799500D01*
X110021158Y-157799500D01*
X110021155Y-157799500D01*
X109866510Y-157830261D01*
X109866498Y-157830264D01*
X109720827Y-157890602D01*
X109720814Y-157890609D01*
X109589711Y-157978210D01*
X109589707Y-157978213D01*
X109478213Y-158089707D01*
X109478210Y-158089711D01*
X109390609Y-158220814D01*
X109390602Y-158220827D01*
X109330264Y-158366498D01*
X109330261Y-158366510D01*
X109299500Y-158521153D01*
X109299500Y-158678846D01*
X109330261Y-158833489D01*
X109330264Y-158833501D01*
X109390602Y-158979172D01*
X109390609Y-158979185D01*
X109478210Y-159110288D01*
X109478213Y-159110292D01*
X109589707Y-159221786D01*
X109589711Y-159221789D01*
X109720814Y-159309390D01*
X109720827Y-159309397D01*
X109845262Y-159360939D01*
X109899666Y-159404779D01*
X109921731Y-159471074D01*
X109904452Y-159538773D01*
X109853315Y-159586384D01*
X109797810Y-159599500D01*
X104657000Y-159599500D01*
X104589961Y-159579815D01*
X104544206Y-159527011D01*
X104534262Y-159457853D01*
X104542439Y-159428047D01*
X104564834Y-159373979D01*
X104564836Y-159373974D01*
X104604223Y-159175958D01*
X104604224Y-159175955D01*
X104604224Y-158900000D01*
X103804224Y-158900000D01*
X103804224Y-158400000D01*
X103829224Y-158400000D01*
X104604224Y-158400000D01*
X104604224Y-158124045D01*
X104604223Y-158124041D01*
X104564836Y-157926025D01*
X104564833Y-157926016D01*
X104487571Y-157739486D01*
X104487564Y-157739473D01*
X104375394Y-157571600D01*
X104375391Y-157571596D01*
X104232627Y-157428832D01*
X104232623Y-157428829D01*
X104064750Y-157316659D01*
X104064737Y-157316652D01*
X103878208Y-157239390D01*
X103878201Y-157239388D01*
X103829224Y-157229645D01*
X103829224Y-158400000D01*
X103804224Y-158400000D01*
X103804224Y-158205245D01*
X103769970Y-158122548D01*
X103706676Y-158059254D01*
X103623979Y-158025000D01*
X103534469Y-158025000D01*
X103451772Y-158059254D01*
X103388478Y-158122548D01*
X103354224Y-158205245D01*
X103354224Y-158900000D01*
X102554224Y-158900000D01*
X102554224Y-159175958D01*
X102593611Y-159373974D01*
X102593613Y-159373979D01*
X102616009Y-159428047D01*
X102623478Y-159497517D01*
X102592203Y-159559996D01*
X102532114Y-159595648D01*
X102501448Y-159599500D01*
X97507000Y-159599500D01*
X97439961Y-159579815D01*
X97394206Y-159527011D01*
X97384262Y-159457853D01*
X97392439Y-159428047D01*
X97414834Y-159373979D01*
X97414836Y-159373974D01*
X97454223Y-159175958D01*
X97454224Y-159175955D01*
X97454224Y-158900000D01*
X96654224Y-158900000D01*
X96654224Y-158400000D01*
X96679224Y-158400000D01*
X97454224Y-158400000D01*
X97454224Y-158124045D01*
X97454223Y-158124041D01*
X102554224Y-158124041D01*
X102554224Y-158400000D01*
X103329224Y-158400000D01*
X103329224Y-157229646D01*
X103329223Y-157229645D01*
X103280246Y-157239388D01*
X103280239Y-157239390D01*
X103093710Y-157316652D01*
X103093697Y-157316659D01*
X102925824Y-157428829D01*
X102925820Y-157428832D01*
X102783056Y-157571596D01*
X102783053Y-157571600D01*
X102670883Y-157739473D01*
X102670876Y-157739486D01*
X102593614Y-157926016D01*
X102593611Y-157926025D01*
X102554224Y-158124041D01*
X97454223Y-158124041D01*
X97414836Y-157926025D01*
X97414833Y-157926016D01*
X97337571Y-157739486D01*
X97337564Y-157739473D01*
X97225394Y-157571600D01*
X97225391Y-157571596D01*
X97082627Y-157428832D01*
X97082623Y-157428829D01*
X96914750Y-157316659D01*
X96914737Y-157316652D01*
X96728208Y-157239390D01*
X96728201Y-157239388D01*
X96679224Y-157229645D01*
X96679224Y-158400000D01*
X96654224Y-158400000D01*
X96654224Y-158205245D01*
X96619970Y-158122548D01*
X96556676Y-158059254D01*
X96473979Y-158025000D01*
X96384469Y-158025000D01*
X96301772Y-158059254D01*
X96238478Y-158122548D01*
X96204224Y-158205245D01*
X96204224Y-158900000D01*
X95404224Y-158900000D01*
X95404224Y-159175958D01*
X95443611Y-159373974D01*
X95443613Y-159373979D01*
X95466009Y-159428047D01*
X95473478Y-159497517D01*
X95442203Y-159559996D01*
X95382114Y-159595648D01*
X95351448Y-159599500D01*
X85224500Y-159599500D01*
X85157461Y-159579815D01*
X85111706Y-159527011D01*
X85100500Y-159475500D01*
X85100500Y-158038226D01*
X85120185Y-157971187D01*
X85172989Y-157925432D01*
X85242147Y-157915488D01*
X85305703Y-157944513D01*
X85342431Y-157999908D01*
X85348444Y-158018414D01*
X85444951Y-158207820D01*
X85569890Y-158379786D01*
X85720213Y-158530109D01*
X85892179Y-158655048D01*
X85892181Y-158655049D01*
X85892184Y-158655051D01*
X86081588Y-158751557D01*
X86283757Y-158817246D01*
X86493713Y-158850500D01*
X86493714Y-158850500D01*
X86706286Y-158850500D01*
X86706287Y-158850500D01*
X86916243Y-158817246D01*
X87118412Y-158751557D01*
X87307816Y-158655051D01*
X87329789Y-158639086D01*
X87479786Y-158530109D01*
X87479788Y-158530106D01*
X87479792Y-158530104D01*
X87630104Y-158379792D01*
X87630106Y-158379788D01*
X87630109Y-158379786D01*
X87702762Y-158279786D01*
X87755051Y-158207816D01*
X87797736Y-158124041D01*
X95404224Y-158124041D01*
X95404224Y-158400000D01*
X96179224Y-158400000D01*
X96179224Y-157229646D01*
X96179223Y-157229645D01*
X96130246Y-157239388D01*
X96130239Y-157239390D01*
X95943710Y-157316652D01*
X95943697Y-157316659D01*
X95775824Y-157428829D01*
X95775820Y-157428832D01*
X95633056Y-157571596D01*
X95633053Y-157571600D01*
X95520883Y-157739473D01*
X95520876Y-157739486D01*
X95443614Y-157926016D01*
X95443611Y-157926025D01*
X95404224Y-158124041D01*
X87797736Y-158124041D01*
X87851557Y-158018412D01*
X87917246Y-157816243D01*
X87950500Y-157606287D01*
X87950500Y-157393713D01*
X87917246Y-157183757D01*
X87851557Y-156981588D01*
X87755051Y-156792184D01*
X87755049Y-156792181D01*
X87755048Y-156792179D01*
X87630109Y-156620213D01*
X87479786Y-156469890D01*
X87307820Y-156344951D01*
X87307115Y-156344591D01*
X87299054Y-156340485D01*
X87248259Y-156292512D01*
X87231463Y-156224692D01*
X87253999Y-156158556D01*
X87299054Y-156119515D01*
X87307816Y-156115051D01*
X87373277Y-156067491D01*
X87479786Y-155990109D01*
X87479788Y-155990106D01*
X87479792Y-155990104D01*
X87630104Y-155839792D01*
X87630106Y-155839788D01*
X87630109Y-155839786D01*
X87755048Y-155667820D01*
X87755047Y-155667820D01*
X87755051Y-155667816D01*
X87851557Y-155478412D01*
X87917246Y-155276243D01*
X87950500Y-155066287D01*
X87950500Y-154921153D01*
X95499500Y-154921153D01*
X95499500Y-155078846D01*
X95530261Y-155233489D01*
X95530264Y-155233501D01*
X95590602Y-155379172D01*
X95590609Y-155379185D01*
X95678210Y-155510288D01*
X95678213Y-155510292D01*
X95789707Y-155621786D01*
X95789711Y-155621789D01*
X95920814Y-155709390D01*
X95920827Y-155709397D01*
X96066498Y-155769735D01*
X96066503Y-155769737D01*
X96221153Y-155800499D01*
X96221156Y-155800500D01*
X96221158Y-155800500D01*
X96378844Y-155800500D01*
X96378845Y-155800499D01*
X96533497Y-155769737D01*
X96679179Y-155709394D01*
X96810289Y-155621789D01*
X96921789Y-155510289D01*
X97009394Y-155379179D01*
X97069737Y-155233497D01*
X97100500Y-155078842D01*
X97100500Y-154921158D01*
X97100500Y-154921155D01*
X97100499Y-154921153D01*
X97069738Y-154766510D01*
X97069737Y-154766503D01*
X97018896Y-154643760D01*
X97009397Y-154620827D01*
X97009390Y-154620814D01*
X96921789Y-154489711D01*
X96921786Y-154489707D01*
X96810292Y-154378213D01*
X96810288Y-154378210D01*
X96679185Y-154290609D01*
X96679172Y-154290602D01*
X96533501Y-154230264D01*
X96533489Y-154230261D01*
X96378845Y-154199500D01*
X96378842Y-154199500D01*
X96221158Y-154199500D01*
X96221155Y-154199500D01*
X96066510Y-154230261D01*
X96066498Y-154230264D01*
X95920827Y-154290602D01*
X95920814Y-154290609D01*
X95789711Y-154378210D01*
X95789707Y-154378213D01*
X95678213Y-154489707D01*
X95678210Y-154489711D01*
X95590609Y-154620814D01*
X95590602Y-154620827D01*
X95530264Y-154766498D01*
X95530261Y-154766510D01*
X95499500Y-154921153D01*
X87950500Y-154921153D01*
X87950500Y-154853713D01*
X87917246Y-154643757D01*
X87851557Y-154441588D01*
X87755051Y-154252184D01*
X87755049Y-154252181D01*
X87755048Y-154252179D01*
X87630109Y-154080213D01*
X87479786Y-153929890D01*
X87467760Y-153921153D01*
X98499500Y-153921153D01*
X98499500Y-154078846D01*
X98530261Y-154233489D01*
X98530264Y-154233501D01*
X98590602Y-154379172D01*
X98590609Y-154379185D01*
X98678210Y-154510288D01*
X98678213Y-154510292D01*
X98789707Y-154621786D01*
X98789711Y-154621789D01*
X98920814Y-154709390D01*
X98920827Y-154709397D01*
X99027817Y-154753713D01*
X99066503Y-154769737D01*
X99151181Y-154786580D01*
X99213090Y-154818964D01*
X99241549Y-154860745D01*
X99290602Y-154979172D01*
X99290609Y-154979185D01*
X99378210Y-155110288D01*
X99378213Y-155110292D01*
X99489707Y-155221786D01*
X99489711Y-155221789D01*
X99620814Y-155309390D01*
X99620827Y-155309397D01*
X99766498Y-155369735D01*
X99766503Y-155369737D01*
X99921153Y-155400499D01*
X99921156Y-155400500D01*
X99921158Y-155400500D01*
X100078844Y-155400500D01*
X100078845Y-155400499D01*
X100233497Y-155369737D01*
X100379179Y-155309394D01*
X100510289Y-155221789D01*
X100621789Y-155110289D01*
X100709394Y-154979179D01*
X100769737Y-154833497D01*
X100800500Y-154678842D01*
X100800500Y-154521158D01*
X100800500Y-154521155D01*
X100800499Y-154521153D01*
X100780731Y-154421773D01*
X100769737Y-154366503D01*
X100722383Y-154252179D01*
X100709397Y-154220827D01*
X100709390Y-154220814D01*
X100621789Y-154089711D01*
X100621786Y-154089707D01*
X100510292Y-153978213D01*
X100510288Y-153978210D01*
X100379185Y-153890609D01*
X100379172Y-153890602D01*
X100233501Y-153830264D01*
X100233489Y-153830261D01*
X100148820Y-153813419D01*
X100086909Y-153781034D01*
X100058450Y-153739254D01*
X100009397Y-153620826D01*
X100009390Y-153620814D01*
X99921789Y-153489711D01*
X99921786Y-153489707D01*
X99810292Y-153378213D01*
X99810288Y-153378210D01*
X99679185Y-153290609D01*
X99679172Y-153290602D01*
X99533501Y-153230264D01*
X99533489Y-153230261D01*
X99378845Y-153199500D01*
X99378842Y-153199500D01*
X99221158Y-153199500D01*
X99221155Y-153199500D01*
X99066510Y-153230261D01*
X99066498Y-153230264D01*
X98920827Y-153290602D01*
X98920814Y-153290609D01*
X98789711Y-153378210D01*
X98789707Y-153378213D01*
X98678213Y-153489707D01*
X98678210Y-153489711D01*
X98590609Y-153620814D01*
X98590602Y-153620827D01*
X98530264Y-153766498D01*
X98530261Y-153766510D01*
X98499500Y-153921153D01*
X87467760Y-153921153D01*
X87307820Y-153804951D01*
X87307115Y-153804591D01*
X87299054Y-153800485D01*
X87248259Y-153752512D01*
X87231463Y-153684692D01*
X87253999Y-153618556D01*
X87299054Y-153579515D01*
X87307816Y-153575051D01*
X87373277Y-153527491D01*
X87479786Y-153450109D01*
X87479788Y-153450106D01*
X87479792Y-153450104D01*
X87630104Y-153299792D01*
X87630106Y-153299788D01*
X87630109Y-153299786D01*
X87755048Y-153127820D01*
X87755047Y-153127820D01*
X87755051Y-153127816D01*
X87851557Y-152938412D01*
X87917246Y-152736243D01*
X87950500Y-152526287D01*
X87950500Y-152313713D01*
X87935840Y-152221153D01*
X101499500Y-152221153D01*
X101499500Y-152378846D01*
X101530261Y-152533489D01*
X101530264Y-152533501D01*
X101590602Y-152679172D01*
X101590609Y-152679185D01*
X101678210Y-152810288D01*
X101678213Y-152810292D01*
X101789707Y-152921786D01*
X101789711Y-152921789D01*
X101920814Y-153009390D01*
X101920827Y-153009397D01*
X102053992Y-153064555D01*
X102066503Y-153069737D01*
X102221153Y-153100499D01*
X102221156Y-153100500D01*
X102221158Y-153100500D01*
X102378844Y-153100500D01*
X102378845Y-153100499D01*
X102533497Y-153069737D01*
X102679179Y-153009394D01*
X102810289Y-152921789D01*
X102921789Y-152810289D01*
X103009394Y-152679179D01*
X103069737Y-152533497D01*
X103100500Y-152378842D01*
X103100500Y-152221158D01*
X103100500Y-152221155D01*
X103100499Y-152221153D01*
X103099019Y-152213713D01*
X103069737Y-152066503D01*
X103050955Y-152021158D01*
X103050953Y-152021153D01*
X107599500Y-152021153D01*
X107599500Y-152178846D01*
X107630261Y-152333489D01*
X107630264Y-152333501D01*
X107690602Y-152479172D01*
X107690609Y-152479185D01*
X107778210Y-152610288D01*
X107778213Y-152610292D01*
X107889707Y-152721786D01*
X107889711Y-152721789D01*
X108020814Y-152809390D01*
X108020827Y-152809397D01*
X108153891Y-152864513D01*
X108166503Y-152869737D01*
X108274339Y-152891187D01*
X108321153Y-152900499D01*
X108321156Y-152900500D01*
X108321158Y-152900500D01*
X108478844Y-152900500D01*
X108478845Y-152900499D01*
X108633497Y-152869737D01*
X108779179Y-152809394D01*
X108910289Y-152721789D01*
X109021789Y-152610289D01*
X109109394Y-152479179D01*
X109169737Y-152333497D01*
X109200500Y-152178842D01*
X109200500Y-152021158D01*
X109200500Y-152021155D01*
X109200499Y-152021153D01*
X109180543Y-151920827D01*
X109169737Y-151866503D01*
X109142849Y-151801588D01*
X109109397Y-151720827D01*
X109109390Y-151720814D01*
X109021789Y-151589711D01*
X109021786Y-151589707D01*
X108910292Y-151478213D01*
X108910288Y-151478210D01*
X108779185Y-151390609D01*
X108779172Y-151390602D01*
X108633501Y-151330264D01*
X108633489Y-151330261D01*
X108478845Y-151299500D01*
X108478842Y-151299500D01*
X108321158Y-151299500D01*
X108321155Y-151299500D01*
X108166510Y-151330261D01*
X108166498Y-151330264D01*
X108020827Y-151390602D01*
X108020814Y-151390609D01*
X107889711Y-151478210D01*
X107889707Y-151478213D01*
X107778213Y-151589707D01*
X107778210Y-151589711D01*
X107690609Y-151720814D01*
X107690602Y-151720827D01*
X107630264Y-151866498D01*
X107630261Y-151866510D01*
X107599500Y-152021153D01*
X103050953Y-152021153D01*
X103009397Y-151920827D01*
X103009390Y-151920814D01*
X102921789Y-151789711D01*
X102921786Y-151789707D01*
X102810292Y-151678213D01*
X102810288Y-151678210D01*
X102679185Y-151590609D01*
X102679172Y-151590602D01*
X102533501Y-151530264D01*
X102533489Y-151530261D01*
X102378845Y-151499500D01*
X102378842Y-151499500D01*
X102221158Y-151499500D01*
X102221155Y-151499500D01*
X102066510Y-151530261D01*
X102066498Y-151530264D01*
X101920827Y-151590602D01*
X101920814Y-151590609D01*
X101789711Y-151678210D01*
X101789707Y-151678213D01*
X101678213Y-151789707D01*
X101678210Y-151789711D01*
X101590609Y-151920814D01*
X101590602Y-151920827D01*
X101530264Y-152066498D01*
X101530261Y-152066510D01*
X101499500Y-152221153D01*
X87935840Y-152221153D01*
X87917246Y-152103757D01*
X87851557Y-151901588D01*
X87755051Y-151712184D01*
X87755049Y-151712181D01*
X87755048Y-151712179D01*
X87630109Y-151540213D01*
X87479786Y-151389890D01*
X87307820Y-151264951D01*
X87307115Y-151264591D01*
X87299054Y-151260485D01*
X87248259Y-151212512D01*
X87231463Y-151144692D01*
X87253999Y-151078556D01*
X87299054Y-151039515D01*
X87307816Y-151035051D01*
X87373277Y-150987491D01*
X87479786Y-150910109D01*
X87479788Y-150910106D01*
X87479792Y-150910104D01*
X87630104Y-150759792D01*
X87630106Y-150759788D01*
X87630109Y-150759786D01*
X87755048Y-150587820D01*
X87755047Y-150587820D01*
X87755051Y-150587816D01*
X87851557Y-150398412D01*
X87917246Y-150196243D01*
X87950500Y-149986287D01*
X87950500Y-149773713D01*
X87917246Y-149563757D01*
X87851557Y-149361588D01*
X87755051Y-149172184D01*
X87755049Y-149172181D01*
X87748876Y-149163684D01*
X87748875Y-149163682D01*
X87700347Y-149096888D01*
X99175235Y-149096888D01*
X99175235Y-149254581D01*
X99205996Y-149409224D01*
X99205999Y-149409236D01*
X99266337Y-149554907D01*
X99266344Y-149554920D01*
X99353945Y-149686023D01*
X99353948Y-149686027D01*
X99465442Y-149797521D01*
X99465446Y-149797524D01*
X99596549Y-149885125D01*
X99596562Y-149885132D01*
X99742233Y-149945470D01*
X99742238Y-149945472D01*
X99896888Y-149976234D01*
X99896891Y-149976235D01*
X99896893Y-149976235D01*
X100054579Y-149976235D01*
X100054580Y-149976234D01*
X100209232Y-149945472D01*
X100321901Y-149898802D01*
X100354907Y-149885132D01*
X100354907Y-149885131D01*
X100354914Y-149885129D01*
X100486024Y-149797524D01*
X100597524Y-149686024D01*
X100685129Y-149554914D01*
X100745472Y-149409232D01*
X100776235Y-149254577D01*
X100776235Y-149096893D01*
X100776235Y-149096890D01*
X100776234Y-149096888D01*
X100745473Y-148942245D01*
X100745472Y-148942238D01*
X100707223Y-148849896D01*
X100685132Y-148796562D01*
X100685125Y-148796549D01*
X100597524Y-148665446D01*
X100597521Y-148665442D01*
X100486027Y-148553948D01*
X100486023Y-148553945D01*
X100354920Y-148466344D01*
X100354907Y-148466337D01*
X100209236Y-148405999D01*
X100209224Y-148405996D01*
X100054580Y-148375235D01*
X100054577Y-148375235D01*
X99896893Y-148375235D01*
X99896890Y-148375235D01*
X99742245Y-148405996D01*
X99742233Y-148405999D01*
X99596562Y-148466337D01*
X99596549Y-148466344D01*
X99465446Y-148553945D01*
X99465442Y-148553948D01*
X99353948Y-148665442D01*
X99353945Y-148665446D01*
X99266344Y-148796549D01*
X99266337Y-148796562D01*
X99205999Y-148942233D01*
X99205996Y-148942245D01*
X99175235Y-149096888D01*
X87700347Y-149096888D01*
X87630109Y-149000214D01*
X87630105Y-149000209D01*
X87479786Y-148849890D01*
X87307820Y-148724951D01*
X87307115Y-148724591D01*
X87299054Y-148720485D01*
X87248259Y-148672512D01*
X87231463Y-148604692D01*
X87253999Y-148538556D01*
X87299054Y-148499515D01*
X87307816Y-148495051D01*
X87373277Y-148447491D01*
X87479786Y-148370109D01*
X87479788Y-148370106D01*
X87479792Y-148370104D01*
X87630104Y-148219792D01*
X87630106Y-148219788D01*
X87630109Y-148219786D01*
X87755048Y-148047820D01*
X87755047Y-148047820D01*
X87755051Y-148047816D01*
X87851557Y-147858412D01*
X87917246Y-147656243D01*
X87950500Y-147446287D01*
X87950500Y-147321153D01*
X102687000Y-147321153D01*
X102687000Y-147478846D01*
X102717761Y-147633489D01*
X102717764Y-147633501D01*
X102778102Y-147779172D01*
X102778109Y-147779185D01*
X102865710Y-147910288D01*
X102865713Y-147910292D01*
X102977207Y-148021786D01*
X102977211Y-148021789D01*
X103108314Y-148109390D01*
X103108327Y-148109397D01*
X103253998Y-148169735D01*
X103254003Y-148169737D01*
X103408653Y-148200499D01*
X103408656Y-148200500D01*
X103408658Y-148200500D01*
X103566344Y-148200500D01*
X103566345Y-148200499D01*
X103720997Y-148169737D01*
X103866679Y-148109394D01*
X103997789Y-148021789D01*
X104109289Y-147910289D01*
X104196894Y-147779179D01*
X104257237Y-147633497D01*
X104288000Y-147478842D01*
X104288000Y-147321158D01*
X104288000Y-147321155D01*
X104287999Y-147321153D01*
X104259692Y-147178846D01*
X104257237Y-147166503D01*
X104243655Y-147133713D01*
X104214166Y-147062518D01*
X104197032Y-147021153D01*
X107599500Y-147021153D01*
X107599500Y-147178846D01*
X107630261Y-147333489D01*
X107630264Y-147333501D01*
X107690602Y-147479172D01*
X107690609Y-147479185D01*
X107778210Y-147610288D01*
X107778213Y-147610292D01*
X107889707Y-147721786D01*
X107889711Y-147721789D01*
X108020814Y-147809390D01*
X108020827Y-147809397D01*
X108166498Y-147869735D01*
X108166503Y-147869737D01*
X108321153Y-147900499D01*
X108321156Y-147900500D01*
X108321158Y-147900500D01*
X108478844Y-147900500D01*
X108478845Y-147900499D01*
X108633497Y-147869737D01*
X108779179Y-147809394D01*
X108910289Y-147721789D01*
X109021789Y-147610289D01*
X109109394Y-147479179D01*
X109169737Y-147333497D01*
X109200500Y-147178842D01*
X109200500Y-147021158D01*
X109200500Y-147021155D01*
X109200499Y-147021153D01*
X109181126Y-146923760D01*
X109169737Y-146866503D01*
X109151133Y-146821588D01*
X109109397Y-146720827D01*
X109109390Y-146720814D01*
X109021789Y-146589711D01*
X109021786Y-146589707D01*
X108910292Y-146478213D01*
X108910288Y-146478210D01*
X108779185Y-146390609D01*
X108779172Y-146390602D01*
X108633501Y-146330264D01*
X108633489Y-146330261D01*
X108478845Y-146299500D01*
X108478842Y-146299500D01*
X108321158Y-146299500D01*
X108321155Y-146299500D01*
X108166510Y-146330261D01*
X108166498Y-146330264D01*
X108020827Y-146390602D01*
X108020814Y-146390609D01*
X107889711Y-146478210D01*
X107889707Y-146478213D01*
X107778213Y-146589707D01*
X107778210Y-146589711D01*
X107690609Y-146720814D01*
X107690602Y-146720827D01*
X107630264Y-146866498D01*
X107630261Y-146866510D01*
X107599500Y-147021153D01*
X104197032Y-147021153D01*
X104196895Y-147020823D01*
X104196890Y-147020814D01*
X104109289Y-146889711D01*
X104109286Y-146889707D01*
X103997792Y-146778213D01*
X103997788Y-146778210D01*
X103866685Y-146690609D01*
X103866672Y-146690602D01*
X103721001Y-146630264D01*
X103720989Y-146630261D01*
X103566345Y-146599500D01*
X103566342Y-146599500D01*
X103408658Y-146599500D01*
X103408655Y-146599500D01*
X103254010Y-146630261D01*
X103253998Y-146630264D01*
X103108327Y-146690602D01*
X103108314Y-146690609D01*
X102977211Y-146778210D01*
X102977207Y-146778213D01*
X102865713Y-146889707D01*
X102865710Y-146889711D01*
X102778109Y-147020814D01*
X102778102Y-147020827D01*
X102717764Y-147166498D01*
X102717761Y-147166510D01*
X102687000Y-147321153D01*
X87950500Y-147321153D01*
X87950500Y-147233713D01*
X87917246Y-147023757D01*
X87851557Y-146821588D01*
X87755051Y-146632184D01*
X87755049Y-146632181D01*
X87755048Y-146632179D01*
X87630109Y-146460213D01*
X87479786Y-146309890D01*
X87307817Y-146184949D01*
X87298504Y-146180204D01*
X87247707Y-146132230D01*
X87230912Y-146064409D01*
X87253449Y-145998274D01*
X87298507Y-145959232D01*
X87307555Y-145954622D01*
X87361716Y-145915270D01*
X87361717Y-145915270D01*
X86729408Y-145282962D01*
X86792993Y-145265925D01*
X86907007Y-145200099D01*
X87000099Y-145107007D01*
X87065925Y-144992993D01*
X87082962Y-144929408D01*
X87715270Y-145561717D01*
X87715270Y-145561716D01*
X87754622Y-145507554D01*
X87851095Y-145318217D01*
X87916757Y-145116130D01*
X87916757Y-145116127D01*
X87950000Y-144906246D01*
X87950000Y-144693753D01*
X87916757Y-144483872D01*
X87916757Y-144483869D01*
X87851095Y-144281782D01*
X87754623Y-144092447D01*
X87751358Y-144087953D01*
X87751356Y-144087951D01*
X87715269Y-144038282D01*
X87082962Y-144670590D01*
X87065925Y-144607007D01*
X87000099Y-144492993D01*
X86907007Y-144399901D01*
X86792993Y-144334075D01*
X86729409Y-144317037D01*
X87025292Y-144021153D01*
X102799500Y-144021153D01*
X102799500Y-144178846D01*
X102830261Y-144333489D01*
X102830264Y-144333501D01*
X102890602Y-144479172D01*
X102890609Y-144479185D01*
X102978210Y-144610288D01*
X102978213Y-144610292D01*
X103089707Y-144721786D01*
X103089711Y-144721789D01*
X103220814Y-144809390D01*
X103220827Y-144809397D01*
X103357061Y-144865826D01*
X103366503Y-144869737D01*
X103521153Y-144900499D01*
X103521156Y-144900500D01*
X103521158Y-144900500D01*
X103678844Y-144900500D01*
X103678845Y-144900499D01*
X103833497Y-144869737D01*
X103979179Y-144809394D01*
X104110289Y-144721789D01*
X104221789Y-144610289D01*
X104309394Y-144479179D01*
X104369737Y-144333497D01*
X104400500Y-144178842D01*
X104400500Y-144021158D01*
X104400500Y-144021155D01*
X104400499Y-144021153D01*
X104394736Y-143992179D01*
X104369737Y-143866503D01*
X104350561Y-143820208D01*
X104309397Y-143720827D01*
X104309390Y-143720814D01*
X104221789Y-143589711D01*
X104221786Y-143589707D01*
X104110292Y-143478213D01*
X104110288Y-143478210D01*
X103979185Y-143390609D01*
X103979172Y-143390602D01*
X103833501Y-143330264D01*
X103833489Y-143330261D01*
X103678845Y-143299500D01*
X103678842Y-143299500D01*
X103521158Y-143299500D01*
X103521155Y-143299500D01*
X103366510Y-143330261D01*
X103366498Y-143330264D01*
X103220827Y-143390602D01*
X103220814Y-143390609D01*
X103089711Y-143478210D01*
X103089707Y-143478213D01*
X102978213Y-143589707D01*
X102978210Y-143589711D01*
X102890609Y-143720814D01*
X102890602Y-143720827D01*
X102830264Y-143866498D01*
X102830261Y-143866510D01*
X102799500Y-144021153D01*
X87025292Y-144021153D01*
X87361716Y-143684728D01*
X87307547Y-143645373D01*
X87307547Y-143645372D01*
X87298500Y-143640763D01*
X87247706Y-143592788D01*
X87230912Y-143524966D01*
X87253451Y-143458832D01*
X87298508Y-143419793D01*
X87307816Y-143415051D01*
X87424516Y-143330264D01*
X87479786Y-143290109D01*
X87479788Y-143290106D01*
X87479792Y-143290104D01*
X87630104Y-143139792D01*
X87630106Y-143139788D01*
X87630109Y-143139786D01*
X87755048Y-142967820D01*
X87755047Y-142967820D01*
X87755051Y-142967816D01*
X87851557Y-142778412D01*
X87917246Y-142576243D01*
X87950500Y-142366287D01*
X87950500Y-142153713D01*
X87945343Y-142121153D01*
X103599500Y-142121153D01*
X103599500Y-142278846D01*
X103630261Y-142433489D01*
X103630264Y-142433501D01*
X103690602Y-142579172D01*
X103690609Y-142579185D01*
X103778210Y-142710288D01*
X103778213Y-142710292D01*
X103889707Y-142821786D01*
X103889711Y-142821789D01*
X104020814Y-142909390D01*
X104020827Y-142909397D01*
X104161865Y-142967816D01*
X104166503Y-142969737D01*
X104321153Y-143000499D01*
X104321156Y-143000500D01*
X104321158Y-143000500D01*
X104478844Y-143000500D01*
X104478845Y-143000499D01*
X104633497Y-142969737D01*
X104779179Y-142909394D01*
X104910289Y-142821789D01*
X104910290Y-142821787D01*
X104912355Y-142820408D01*
X104979032Y-142799530D01*
X105028698Y-142808948D01*
X105098414Y-142837826D01*
X105199438Y-142857921D01*
X105253064Y-142868588D01*
X105253067Y-142868589D01*
X105253069Y-142868589D01*
X105410755Y-142868589D01*
X105410756Y-142868588D01*
X105565408Y-142837826D01*
X105703398Y-142780669D01*
X105711083Y-142777486D01*
X105711083Y-142777485D01*
X105711090Y-142777483D01*
X105842200Y-142689878D01*
X105953700Y-142578378D01*
X106041305Y-142447268D01*
X106101648Y-142301586D01*
X106132411Y-142146931D01*
X106132411Y-141989247D01*
X106132411Y-141989244D01*
X106132410Y-141989242D01*
X106103711Y-141844965D01*
X106101648Y-141834592D01*
X106101009Y-141833050D01*
X106041308Y-141688916D01*
X106041301Y-141688903D01*
X105953700Y-141557800D01*
X105953697Y-141557796D01*
X105842203Y-141446302D01*
X105842199Y-141446299D01*
X105711096Y-141358698D01*
X105711083Y-141358691D01*
X105565412Y-141298353D01*
X105565400Y-141298350D01*
X105410756Y-141267589D01*
X105410753Y-141267589D01*
X105253069Y-141267589D01*
X105253066Y-141267589D01*
X105098421Y-141298350D01*
X105098409Y-141298353D01*
X104952738Y-141358691D01*
X104952725Y-141358698D01*
X104819555Y-141447680D01*
X104752877Y-141468558D01*
X104703213Y-141459140D01*
X104686419Y-141452184D01*
X104633497Y-141430263D01*
X104633493Y-141430262D01*
X104633488Y-141430260D01*
X104478845Y-141399500D01*
X104478842Y-141399500D01*
X104321158Y-141399500D01*
X104321155Y-141399500D01*
X104166510Y-141430261D01*
X104166498Y-141430264D01*
X104020827Y-141490602D01*
X104020814Y-141490609D01*
X103889711Y-141578210D01*
X103889707Y-141578213D01*
X103778213Y-141689707D01*
X103778210Y-141689711D01*
X103690609Y-141820814D01*
X103690602Y-141820827D01*
X103630264Y-141966498D01*
X103630261Y-141966510D01*
X103599500Y-142121153D01*
X87945343Y-142121153D01*
X87917246Y-141943757D01*
X87851557Y-141741588D01*
X87755051Y-141552184D01*
X87755049Y-141552181D01*
X87755048Y-141552179D01*
X87630109Y-141380213D01*
X87479786Y-141229890D01*
X87307820Y-141104951D01*
X87307115Y-141104591D01*
X87299054Y-141100485D01*
X87248259Y-141052512D01*
X87231463Y-140984692D01*
X87253999Y-140918556D01*
X87299054Y-140879515D01*
X87307816Y-140875051D01*
X87373277Y-140827491D01*
X87479786Y-140750109D01*
X87479788Y-140750106D01*
X87479792Y-140750104D01*
X87630104Y-140599792D01*
X87630106Y-140599788D01*
X87630109Y-140599786D01*
X87755048Y-140427820D01*
X87755047Y-140427820D01*
X87755051Y-140427816D01*
X87851557Y-140238412D01*
X87917246Y-140036243D01*
X87950500Y-139826287D01*
X87950500Y-139613713D01*
X87917246Y-139403757D01*
X87851557Y-139201588D01*
X87759621Y-139021153D01*
X92999500Y-139021153D01*
X92999500Y-139178846D01*
X93030261Y-139333489D01*
X93030264Y-139333501D01*
X93090602Y-139479172D01*
X93090609Y-139479185D01*
X93178210Y-139610288D01*
X93178213Y-139610292D01*
X93289707Y-139721786D01*
X93289711Y-139721789D01*
X93420814Y-139809390D01*
X93420827Y-139809397D01*
X93566498Y-139869735D01*
X93566503Y-139869737D01*
X93721153Y-139900499D01*
X93721156Y-139900500D01*
X93721158Y-139900500D01*
X93878844Y-139900500D01*
X93878845Y-139900499D01*
X94033497Y-139869737D01*
X94179179Y-139809394D01*
X94310289Y-139721789D01*
X94421789Y-139610289D01*
X94509394Y-139479179D01*
X94513279Y-139469801D01*
X94533525Y-139420920D01*
X94569737Y-139333497D01*
X94600500Y-139178842D01*
X94600500Y-139131941D01*
X94620185Y-139064902D01*
X94672989Y-139019147D01*
X94742147Y-139009203D01*
X94805703Y-139038228D01*
X94812181Y-139044260D01*
X94889707Y-139121786D01*
X94889711Y-139121789D01*
X95020814Y-139209390D01*
X95020827Y-139209397D01*
X95166498Y-139269735D01*
X95166503Y-139269737D01*
X95283705Y-139293050D01*
X95321153Y-139300499D01*
X95321156Y-139300500D01*
X95321158Y-139300500D01*
X95478844Y-139300500D01*
X95478845Y-139300499D01*
X95633497Y-139269737D01*
X95751592Y-139220821D01*
X95779172Y-139209397D01*
X95779172Y-139209396D01*
X95779179Y-139209394D01*
X95910289Y-139121789D01*
X96010925Y-139021153D01*
X98799500Y-139021153D01*
X98799500Y-139178846D01*
X98830261Y-139333489D01*
X98830264Y-139333501D01*
X98890602Y-139479172D01*
X98890609Y-139479185D01*
X98978210Y-139610288D01*
X98978213Y-139610292D01*
X99089707Y-139721786D01*
X99089711Y-139721789D01*
X99220814Y-139809390D01*
X99220827Y-139809397D01*
X99366498Y-139869735D01*
X99366503Y-139869737D01*
X99521153Y-139900499D01*
X99521156Y-139900500D01*
X99521158Y-139900500D01*
X99678844Y-139900500D01*
X99678845Y-139900499D01*
X99833497Y-139869737D01*
X99979179Y-139809394D01*
X100110289Y-139721789D01*
X100221789Y-139610289D01*
X100240553Y-139582205D01*
X100294162Y-139537402D01*
X100363486Y-139528692D01*
X100426515Y-139558845D01*
X100431336Y-139563415D01*
X100489707Y-139621786D01*
X100489711Y-139621789D01*
X100620814Y-139709390D01*
X100620827Y-139709397D01*
X100760723Y-139767343D01*
X100766503Y-139769737D01*
X100899596Y-139796211D01*
X100921153Y-139800499D01*
X100921156Y-139800500D01*
X100921158Y-139800500D01*
X101078844Y-139800500D01*
X101078845Y-139800499D01*
X101233497Y-139769737D01*
X101379179Y-139709394D01*
X101510289Y-139621789D01*
X101621789Y-139510289D01*
X101659490Y-139453864D01*
X101713101Y-139409061D01*
X101782426Y-139400353D01*
X101845454Y-139430507D01*
X101874716Y-139469801D01*
X101879592Y-139480126D01*
X101880263Y-139483497D01*
X101940606Y-139629179D01*
X101972607Y-139677072D01*
X101976531Y-139685380D01*
X101980580Y-139711190D01*
X101988387Y-139736123D01*
X101985909Y-139745154D01*
X101987361Y-139754406D01*
X101976814Y-139778306D01*
X101969902Y-139803503D01*
X101962934Y-139809761D01*
X101959154Y-139818328D01*
X101937360Y-139832732D01*
X101917923Y-139850192D01*
X101911860Y-139852896D01*
X101820824Y-139890604D01*
X101820814Y-139890609D01*
X101689711Y-139978210D01*
X101689707Y-139978213D01*
X101578213Y-140089707D01*
X101578210Y-140089711D01*
X101490609Y-140220814D01*
X101490602Y-140220827D01*
X101430264Y-140366498D01*
X101430261Y-140366510D01*
X101399500Y-140521153D01*
X101399500Y-140678846D01*
X101430261Y-140833489D01*
X101430264Y-140833501D01*
X101490602Y-140979172D01*
X101490609Y-140979185D01*
X101578210Y-141110288D01*
X101578213Y-141110292D01*
X101689707Y-141221786D01*
X101689711Y-141221789D01*
X101820814Y-141309390D01*
X101820827Y-141309397D01*
X101939835Y-141358691D01*
X101966503Y-141369737D01*
X102116131Y-141399500D01*
X102121153Y-141400499D01*
X102121156Y-141400500D01*
X102121158Y-141400500D01*
X102278844Y-141400500D01*
X102278845Y-141400499D01*
X102433497Y-141369737D01*
X102579179Y-141309394D01*
X102710289Y-141221789D01*
X102821789Y-141110289D01*
X102909394Y-140979179D01*
X102969737Y-140833497D01*
X103000500Y-140678842D01*
X103000500Y-140521158D01*
X103000500Y-140521155D01*
X103000499Y-140521153D01*
X102969738Y-140366510D01*
X102969737Y-140366503D01*
X102953713Y-140327817D01*
X102909397Y-140220827D01*
X102909389Y-140220812D01*
X102882490Y-140180556D01*
X102861611Y-140113879D01*
X102880095Y-140046498D01*
X102932073Y-139999808D01*
X102938099Y-139997120D01*
X103029179Y-139959394D01*
X103160289Y-139871789D01*
X103271789Y-139760289D01*
X103359394Y-139629179D01*
X103404139Y-139521153D01*
X103699500Y-139521153D01*
X103699500Y-139678846D01*
X103730261Y-139833489D01*
X103730264Y-139833501D01*
X103790602Y-139979172D01*
X103790609Y-139979185D01*
X103878210Y-140110288D01*
X103878213Y-140110292D01*
X103989707Y-140221786D01*
X103989711Y-140221789D01*
X104120814Y-140309390D01*
X104120827Y-140309397D01*
X104253992Y-140364555D01*
X104266503Y-140369737D01*
X104421153Y-140400499D01*
X104421156Y-140400500D01*
X104421158Y-140400500D01*
X104578844Y-140400500D01*
X104578845Y-140400499D01*
X104733497Y-140369737D01*
X104879179Y-140309394D01*
X105010289Y-140221789D01*
X105121789Y-140110289D01*
X105209394Y-139979179D01*
X105269737Y-139833497D01*
X105300500Y-139678842D01*
X105300500Y-139521158D01*
X105300500Y-139521155D01*
X105300499Y-139521153D01*
X105799500Y-139521153D01*
X105799500Y-139678846D01*
X105830261Y-139833489D01*
X105830264Y-139833501D01*
X105890602Y-139979172D01*
X105890609Y-139979185D01*
X105978210Y-140110288D01*
X105978213Y-140110292D01*
X106089707Y-140221786D01*
X106089711Y-140221789D01*
X106220814Y-140309390D01*
X106220827Y-140309397D01*
X106353992Y-140364555D01*
X106366503Y-140369737D01*
X106521153Y-140400499D01*
X106521156Y-140400500D01*
X106521158Y-140400500D01*
X106678844Y-140400500D01*
X106678845Y-140400499D01*
X106833497Y-140369737D01*
X106979179Y-140309394D01*
X107110289Y-140221789D01*
X107221789Y-140110289D01*
X107309394Y-139979179D01*
X107369737Y-139833497D01*
X107400500Y-139678842D01*
X107400500Y-139521158D01*
X107400500Y-139521155D01*
X107400499Y-139521153D01*
X107398338Y-139510289D01*
X107369737Y-139366503D01*
X107354138Y-139328844D01*
X107309397Y-139220827D01*
X107309390Y-139220814D01*
X107221789Y-139089711D01*
X107221786Y-139089707D01*
X107110292Y-138978213D01*
X107110288Y-138978210D01*
X106979185Y-138890609D01*
X106979172Y-138890602D01*
X106833501Y-138830264D01*
X106833489Y-138830261D01*
X106678845Y-138799500D01*
X106678842Y-138799500D01*
X106521158Y-138799500D01*
X106521155Y-138799500D01*
X106366510Y-138830261D01*
X106366498Y-138830264D01*
X106220827Y-138890602D01*
X106220814Y-138890609D01*
X106089711Y-138978210D01*
X106089707Y-138978213D01*
X105978213Y-139089707D01*
X105978210Y-139089711D01*
X105890609Y-139220814D01*
X105890602Y-139220827D01*
X105830264Y-139366498D01*
X105830261Y-139366510D01*
X105799500Y-139521153D01*
X105300499Y-139521153D01*
X105298338Y-139510289D01*
X105269737Y-139366503D01*
X105254138Y-139328844D01*
X105209397Y-139220827D01*
X105209390Y-139220814D01*
X105121789Y-139089711D01*
X105121786Y-139089707D01*
X105010292Y-138978213D01*
X105010288Y-138978210D01*
X104879185Y-138890609D01*
X104879172Y-138890602D01*
X104733501Y-138830264D01*
X104733489Y-138830261D01*
X104578845Y-138799500D01*
X104578842Y-138799500D01*
X104421158Y-138799500D01*
X104421155Y-138799500D01*
X104266510Y-138830261D01*
X104266498Y-138830264D01*
X104120827Y-138890602D01*
X104120814Y-138890609D01*
X103989711Y-138978210D01*
X103989707Y-138978213D01*
X103878213Y-139089707D01*
X103878210Y-139089711D01*
X103790609Y-139220814D01*
X103790602Y-139220827D01*
X103730264Y-139366498D01*
X103730261Y-139366510D01*
X103699500Y-139521153D01*
X103404139Y-139521153D01*
X103419737Y-139483497D01*
X103450500Y-139328842D01*
X103450500Y-139171158D01*
X103450500Y-139171155D01*
X103450499Y-139171153D01*
X103438539Y-139111027D01*
X103419737Y-139016503D01*
X103412148Y-138998182D01*
X103359397Y-138870827D01*
X103359390Y-138870814D01*
X103271789Y-138739711D01*
X103271786Y-138739707D01*
X103160292Y-138628213D01*
X103160288Y-138628210D01*
X103029185Y-138540609D01*
X103029172Y-138540602D01*
X102883501Y-138480264D01*
X102883489Y-138480261D01*
X102728845Y-138449500D01*
X102728842Y-138449500D01*
X102571158Y-138449500D01*
X102571155Y-138449500D01*
X102416510Y-138480261D01*
X102416498Y-138480264D01*
X102270827Y-138540602D01*
X102270814Y-138540609D01*
X102139711Y-138628210D01*
X102139707Y-138628213D01*
X102028213Y-138739707D01*
X102028208Y-138739713D01*
X101990508Y-138796135D01*
X101936896Y-138840939D01*
X101867571Y-138849646D01*
X101804543Y-138819491D01*
X101773917Y-138771363D01*
X101772068Y-138772130D01*
X101709397Y-138620827D01*
X101709390Y-138620814D01*
X101621789Y-138489711D01*
X101621786Y-138489707D01*
X101510292Y-138378213D01*
X101510288Y-138378210D01*
X101379185Y-138290609D01*
X101379172Y-138290602D01*
X101241126Y-138233423D01*
X101186722Y-138189583D01*
X101164657Y-138123289D01*
X101181936Y-138055589D01*
X101200894Y-138031183D01*
X101221789Y-138010289D01*
X101309394Y-137879179D01*
X101369737Y-137733497D01*
X101400500Y-137578842D01*
X101400500Y-137421158D01*
X101400500Y-137421155D01*
X101400499Y-137421153D01*
X101378269Y-137309397D01*
X101369737Y-137266503D01*
X101355031Y-137230999D01*
X101309397Y-137120827D01*
X101309390Y-137120814D01*
X101221789Y-136989711D01*
X101221786Y-136989707D01*
X101110292Y-136878213D01*
X101110288Y-136878210D01*
X101046592Y-136835649D01*
X107190802Y-136835649D01*
X107190802Y-136993342D01*
X107221563Y-137147985D01*
X107221566Y-137147997D01*
X107281904Y-137293668D01*
X107281911Y-137293681D01*
X107369512Y-137424784D01*
X107369515Y-137424788D01*
X107481009Y-137536282D01*
X107481013Y-137536285D01*
X107612116Y-137623886D01*
X107612129Y-137623893D01*
X107678024Y-137651187D01*
X107757805Y-137684233D01*
X107912455Y-137714995D01*
X107912458Y-137714996D01*
X108025229Y-137714996D01*
X108092268Y-137734681D01*
X108138023Y-137787485D01*
X108147967Y-137856643D01*
X108118942Y-137920199D01*
X108094120Y-137942098D01*
X108038974Y-137978945D01*
X108038970Y-137978948D01*
X107927476Y-138090442D01*
X107927473Y-138090446D01*
X107839872Y-138221549D01*
X107839865Y-138221562D01*
X107779527Y-138367233D01*
X107779524Y-138367245D01*
X107748763Y-138521888D01*
X107748763Y-138679581D01*
X107779524Y-138834224D01*
X107779527Y-138834236D01*
X107839865Y-138979907D01*
X107839872Y-138979920D01*
X107927473Y-139111023D01*
X107927476Y-139111027D01*
X108038970Y-139222521D01*
X108038974Y-139222524D01*
X108170077Y-139310125D01*
X108170090Y-139310132D01*
X108226509Y-139333501D01*
X108315766Y-139370472D01*
X108465987Y-139400353D01*
X108470416Y-139401234D01*
X108470419Y-139401235D01*
X108470421Y-139401235D01*
X108502190Y-139401235D01*
X108569229Y-139420920D01*
X108614984Y-139473724D01*
X108618751Y-139482933D01*
X108621968Y-139491799D01*
X108630263Y-139533497D01*
X108685480Y-139666804D01*
X108686427Y-139669413D01*
X108688444Y-139701630D01*
X108691896Y-139733732D01*
X108690615Y-139736290D01*
X108690794Y-139739146D01*
X108675070Y-139767343D01*
X108660620Y-139796211D01*
X108658159Y-139797670D01*
X108656766Y-139800170D01*
X108628289Y-139815393D01*
X108600531Y-139831863D01*
X108597603Y-139831797D01*
X108595149Y-139833110D01*
X108571651Y-139831219D01*
X108539659Y-139830507D01*
X108539472Y-139831451D01*
X108534108Y-139830384D01*
X108533882Y-139830379D01*
X108533499Y-139830262D01*
X108378845Y-139799500D01*
X108378842Y-139799500D01*
X108221158Y-139799500D01*
X108221155Y-139799500D01*
X108066510Y-139830261D01*
X108066498Y-139830264D01*
X107920827Y-139890602D01*
X107920814Y-139890609D01*
X107789711Y-139978210D01*
X107789707Y-139978213D01*
X107678213Y-140089707D01*
X107678210Y-140089711D01*
X107590609Y-140220814D01*
X107590602Y-140220827D01*
X107530264Y-140366498D01*
X107530261Y-140366510D01*
X107499500Y-140521153D01*
X107499500Y-140678846D01*
X107530261Y-140833489D01*
X107530264Y-140833501D01*
X107590602Y-140979172D01*
X107590609Y-140979185D01*
X107678210Y-141110288D01*
X107678213Y-141110292D01*
X107789707Y-141221786D01*
X107789711Y-141221789D01*
X107920814Y-141309390D01*
X107920827Y-141309397D01*
X108039835Y-141358691D01*
X108066503Y-141369737D01*
X108216131Y-141399500D01*
X108221153Y-141400499D01*
X108221156Y-141400500D01*
X108221158Y-141400500D01*
X108378844Y-141400500D01*
X108378845Y-141400499D01*
X108533497Y-141369737D01*
X108679179Y-141309394D01*
X108810289Y-141221789D01*
X108921789Y-141110289D01*
X109009394Y-140979179D01*
X109069737Y-140833497D01*
X109100500Y-140678842D01*
X109100500Y-140521158D01*
X109100500Y-140521155D01*
X109100499Y-140521153D01*
X109069738Y-140366510D01*
X109069737Y-140366503D01*
X109015571Y-140235735D01*
X109008103Y-140166267D01*
X109039378Y-140103788D01*
X109099467Y-140068136D01*
X109160339Y-140069494D01*
X109160528Y-140068549D01*
X109165907Y-140069619D01*
X109166129Y-140069624D01*
X109166503Y-140069737D01*
X109321153Y-140100499D01*
X109321156Y-140100500D01*
X109321158Y-140100500D01*
X109478844Y-140100500D01*
X109478845Y-140100499D01*
X109633497Y-140069737D01*
X109779179Y-140009394D01*
X109910289Y-139921789D01*
X110021789Y-139810289D01*
X110109394Y-139679179D01*
X110169737Y-139533497D01*
X110200500Y-139378842D01*
X110200500Y-139221158D01*
X110200500Y-139221155D01*
X110200499Y-139221153D01*
X110192666Y-139181773D01*
X110169737Y-139066503D01*
X110150122Y-139019147D01*
X110109397Y-138920827D01*
X110109390Y-138920814D01*
X110021789Y-138789711D01*
X110021786Y-138789707D01*
X109969759Y-138737680D01*
X109936274Y-138676357D01*
X109941258Y-138606665D01*
X109969756Y-138562321D01*
X110021054Y-138511024D01*
X110108659Y-138379914D01*
X110109222Y-138378556D01*
X110128689Y-138331557D01*
X110169002Y-138234232D01*
X110199765Y-138079577D01*
X110199765Y-137921893D01*
X110199765Y-137921890D01*
X110199764Y-137921888D01*
X110191270Y-137879185D01*
X110169002Y-137767238D01*
X110153686Y-137730261D01*
X110108662Y-137621562D01*
X110108655Y-137621549D01*
X110021054Y-137490446D01*
X110021051Y-137490442D01*
X109909557Y-137378948D01*
X109909553Y-137378945D01*
X109778450Y-137291344D01*
X109778437Y-137291337D01*
X109632766Y-137230999D01*
X109632754Y-137230996D01*
X109478110Y-137200235D01*
X109478107Y-137200235D01*
X109320423Y-137200235D01*
X109320420Y-137200235D01*
X109165775Y-137230996D01*
X109165763Y-137230999D01*
X109020092Y-137291337D01*
X109020079Y-137291344D01*
X108919690Y-137358423D01*
X108853012Y-137379301D01*
X108785632Y-137360816D01*
X108738942Y-137308838D01*
X108727766Y-137239868D01*
X108736238Y-137207869D01*
X108761037Y-137147997D01*
X108761039Y-137147993D01*
X108791802Y-136993338D01*
X108791802Y-136835654D01*
X108791802Y-136835651D01*
X108791801Y-136835649D01*
X108782841Y-136790606D01*
X108761039Y-136680999D01*
X108744791Y-136641773D01*
X108700699Y-136535323D01*
X108700692Y-136535310D01*
X108613091Y-136404207D01*
X108613088Y-136404203D01*
X108501594Y-136292709D01*
X108501590Y-136292706D01*
X108370487Y-136205105D01*
X108370474Y-136205098D01*
X108224803Y-136144760D01*
X108224791Y-136144757D01*
X108070147Y-136113996D01*
X108070144Y-136113996D01*
X107912460Y-136113996D01*
X107912457Y-136113996D01*
X107757812Y-136144757D01*
X107757800Y-136144760D01*
X107612129Y-136205098D01*
X107612116Y-136205105D01*
X107481013Y-136292706D01*
X107481009Y-136292709D01*
X107369515Y-136404203D01*
X107369512Y-136404207D01*
X107281911Y-136535310D01*
X107281904Y-136535323D01*
X107221566Y-136680994D01*
X107221563Y-136681006D01*
X107190802Y-136835649D01*
X101046592Y-136835649D01*
X100979185Y-136790609D01*
X100979172Y-136790602D01*
X100833501Y-136730264D01*
X100833489Y-136730261D01*
X100678845Y-136699500D01*
X100678842Y-136699500D01*
X100521158Y-136699500D01*
X100521155Y-136699500D01*
X100366510Y-136730261D01*
X100366498Y-136730264D01*
X100220827Y-136790602D01*
X100220814Y-136790609D01*
X100089711Y-136878210D01*
X100089707Y-136878213D01*
X99978213Y-136989707D01*
X99978210Y-136989711D01*
X99890609Y-137120814D01*
X99890602Y-137120827D01*
X99830264Y-137266498D01*
X99830261Y-137266510D01*
X99799500Y-137421153D01*
X99799500Y-137578846D01*
X99830261Y-137733489D01*
X99830264Y-137733501D01*
X99890602Y-137879172D01*
X99890609Y-137879185D01*
X99978210Y-138010288D01*
X99978213Y-138010292D01*
X100089707Y-138121786D01*
X100089711Y-138121789D01*
X100220814Y-138209390D01*
X100220818Y-138209392D01*
X100220821Y-138209394D01*
X100358877Y-138266578D01*
X100379643Y-138283312D01*
X100402528Y-138297020D01*
X100406431Y-138304900D01*
X100413276Y-138310416D01*
X100421698Y-138335720D01*
X100433542Y-138359629D01*
X100432565Y-138368368D01*
X100435342Y-138376710D01*
X100428745Y-138402555D01*
X100425783Y-138429067D01*
X100419644Y-138438213D01*
X100418063Y-138444409D01*
X100407647Y-138459345D01*
X100403610Y-138464311D01*
X100378211Y-138489711D01*
X100356230Y-138522607D01*
X100352570Y-138527111D01*
X100328370Y-138543763D01*
X100305833Y-138562599D01*
X100299921Y-138563341D01*
X100295012Y-138566720D01*
X100265650Y-138567645D01*
X100236508Y-138571306D01*
X100231132Y-138568734D01*
X100225177Y-138568922D01*
X100199975Y-138553827D01*
X100173481Y-138541151D01*
X100168663Y-138536584D01*
X100110292Y-138478213D01*
X100110288Y-138478210D01*
X99979185Y-138390609D01*
X99979172Y-138390602D01*
X99833501Y-138330264D01*
X99833489Y-138330261D01*
X99678845Y-138299500D01*
X99678842Y-138299500D01*
X99521158Y-138299500D01*
X99521155Y-138299500D01*
X99366510Y-138330261D01*
X99366498Y-138330264D01*
X99220827Y-138390602D01*
X99220814Y-138390609D01*
X99089711Y-138478210D01*
X99089707Y-138478213D01*
X98978213Y-138589707D01*
X98978210Y-138589711D01*
X98890609Y-138720814D01*
X98890602Y-138720827D01*
X98830264Y-138866498D01*
X98830261Y-138866510D01*
X98799500Y-139021153D01*
X96010925Y-139021153D01*
X96021789Y-139010289D01*
X96081345Y-138921158D01*
X96109390Y-138879185D01*
X96109390Y-138879184D01*
X96109394Y-138879179D01*
X96112854Y-138870827D01*
X96128010Y-138834236D01*
X96169737Y-138733497D01*
X96200500Y-138578842D01*
X96200500Y-138421158D01*
X96200500Y-138421155D01*
X96200499Y-138421153D01*
X96189776Y-138367245D01*
X96169737Y-138266503D01*
X96151122Y-138221562D01*
X96109397Y-138120827D01*
X96109390Y-138120814D01*
X96021789Y-137989711D01*
X96021786Y-137989707D01*
X95910292Y-137878213D01*
X95910288Y-137878210D01*
X95779185Y-137790609D01*
X95779172Y-137790602D01*
X95633501Y-137730264D01*
X95633489Y-137730261D01*
X95478845Y-137699500D01*
X95478842Y-137699500D01*
X95321158Y-137699500D01*
X95321155Y-137699500D01*
X95166510Y-137730261D01*
X95166498Y-137730264D01*
X95020827Y-137790602D01*
X95020814Y-137790609D01*
X94889711Y-137878210D01*
X94889707Y-137878213D01*
X94778213Y-137989707D01*
X94778210Y-137989711D01*
X94690609Y-138120814D01*
X94690602Y-138120827D01*
X94630264Y-138266498D01*
X94630261Y-138266510D01*
X94599500Y-138421153D01*
X94599500Y-138468059D01*
X94579815Y-138535098D01*
X94527011Y-138580853D01*
X94457853Y-138590797D01*
X94394297Y-138561772D01*
X94387819Y-138555740D01*
X94310292Y-138478213D01*
X94310288Y-138478210D01*
X94179185Y-138390609D01*
X94179172Y-138390602D01*
X94033501Y-138330264D01*
X94033489Y-138330261D01*
X93878845Y-138299500D01*
X93878842Y-138299500D01*
X93721158Y-138299500D01*
X93721155Y-138299500D01*
X93566510Y-138330261D01*
X93566498Y-138330264D01*
X93420827Y-138390602D01*
X93420814Y-138390609D01*
X93289711Y-138478210D01*
X93289707Y-138478213D01*
X93178213Y-138589707D01*
X93178210Y-138589711D01*
X93090609Y-138720814D01*
X93090602Y-138720827D01*
X93030264Y-138866498D01*
X93030261Y-138866510D01*
X92999500Y-139021153D01*
X87759621Y-139021153D01*
X87755051Y-139012184D01*
X87755049Y-139012181D01*
X87755048Y-139012179D01*
X87630109Y-138840213D01*
X87479786Y-138689890D01*
X87307820Y-138564951D01*
X87304660Y-138563341D01*
X87299054Y-138560485D01*
X87248259Y-138512512D01*
X87231463Y-138444692D01*
X87253999Y-138378556D01*
X87299054Y-138339515D01*
X87307816Y-138335051D01*
X87379029Y-138283312D01*
X87479786Y-138210109D01*
X87479788Y-138210106D01*
X87479792Y-138210104D01*
X87630104Y-138059792D01*
X87630106Y-138059788D01*
X87630109Y-138059786D01*
X87755048Y-137887820D01*
X87755047Y-137887820D01*
X87755051Y-137887816D01*
X87851557Y-137698412D01*
X87917246Y-137496243D01*
X87950500Y-137286287D01*
X87950500Y-137073713D01*
X87917246Y-136863757D01*
X87851557Y-136661588D01*
X87755051Y-136472184D01*
X87755049Y-136472181D01*
X87755048Y-136472179D01*
X87630109Y-136300213D01*
X87479786Y-136149890D01*
X87307820Y-136024951D01*
X87307115Y-136024591D01*
X87299054Y-136020485D01*
X87295891Y-136017497D01*
X87291680Y-136016406D01*
X87270719Y-135993724D01*
X87248259Y-135972512D01*
X87247212Y-135968287D01*
X87244260Y-135965092D01*
X87238889Y-135934679D01*
X87231463Y-135904692D01*
X87232866Y-135900572D01*
X87232110Y-135896287D01*
X87244035Y-135867795D01*
X87251161Y-135846883D01*
X95813652Y-135846883D01*
X95813652Y-136004576D01*
X95844413Y-136159219D01*
X95844416Y-136159231D01*
X95904754Y-136304902D01*
X95904761Y-136304915D01*
X95992362Y-136436018D01*
X95992365Y-136436022D01*
X96103859Y-136547516D01*
X96103863Y-136547519D01*
X96234966Y-136635120D01*
X96234979Y-136635127D01*
X96298856Y-136661585D01*
X96380655Y-136695467D01*
X96426577Y-136704601D01*
X96488486Y-136736985D01*
X96523061Y-136797700D01*
X96524002Y-136802025D01*
X96530261Y-136833492D01*
X96530264Y-136833501D01*
X96590602Y-136979172D01*
X96590609Y-136979185D01*
X96678210Y-137110288D01*
X96678213Y-137110292D01*
X96789707Y-137221786D01*
X96789711Y-137221789D01*
X96920814Y-137309390D01*
X96920827Y-137309397D01*
X97066498Y-137369735D01*
X97066503Y-137369737D01*
X97199737Y-137396239D01*
X97221153Y-137400499D01*
X97221156Y-137400500D01*
X97221158Y-137400500D01*
X97378844Y-137400500D01*
X97378845Y-137400499D01*
X97533497Y-137369737D01*
X97679179Y-137309394D01*
X97810289Y-137221789D01*
X97921789Y-137110289D01*
X98009394Y-136979179D01*
X98069737Y-136833497D01*
X98100500Y-136678842D01*
X98100500Y-136521158D01*
X98100500Y-136521155D01*
X98100499Y-136521153D01*
X98083565Y-136436022D01*
X98069737Y-136366503D01*
X98042398Y-136300500D01*
X98009397Y-136220827D01*
X98009390Y-136220814D01*
X97921789Y-136089711D01*
X97921786Y-136089707D01*
X97810292Y-135978213D01*
X97810288Y-135978210D01*
X97679185Y-135890609D01*
X97679172Y-135890602D01*
X97533501Y-135830264D01*
X97533492Y-135830261D01*
X97487572Y-135821127D01*
X97425661Y-135788741D01*
X97391088Y-135728025D01*
X97390156Y-135723742D01*
X97383889Y-135692233D01*
X97336922Y-135578844D01*
X97323549Y-135546557D01*
X97323542Y-135546544D01*
X97235941Y-135415441D01*
X97235938Y-135415437D01*
X97124444Y-135303943D01*
X97124440Y-135303940D01*
X96993337Y-135216339D01*
X96993324Y-135216332D01*
X96847653Y-135155994D01*
X96847641Y-135155991D01*
X96692997Y-135125230D01*
X96692994Y-135125230D01*
X96535310Y-135125230D01*
X96535307Y-135125230D01*
X96380662Y-135155991D01*
X96380650Y-135155994D01*
X96234979Y-135216332D01*
X96234966Y-135216339D01*
X96103863Y-135303940D01*
X96103859Y-135303943D01*
X95992365Y-135415437D01*
X95992362Y-135415441D01*
X95904761Y-135546544D01*
X95904754Y-135546557D01*
X95844416Y-135692228D01*
X95844413Y-135692240D01*
X95813652Y-135846883D01*
X87251161Y-135846883D01*
X87253999Y-135838556D01*
X87257881Y-135834715D01*
X87259087Y-135831836D01*
X87268432Y-135824278D01*
X87285008Y-135807882D01*
X87291755Y-135803234D01*
X87307816Y-135795051D01*
X87384181Y-135739568D01*
X87384194Y-135739560D01*
X87479786Y-135670109D01*
X87479788Y-135670106D01*
X87479792Y-135670104D01*
X87630104Y-135519792D01*
X87630106Y-135519788D01*
X87630109Y-135519786D01*
X87755048Y-135347820D01*
X87755047Y-135347820D01*
X87755051Y-135347816D01*
X87851557Y-135158412D01*
X87917246Y-134956243D01*
X87950500Y-134746287D01*
X87950500Y-134533713D01*
X87917246Y-134323757D01*
X87851557Y-134121588D01*
X87755051Y-133932184D01*
X87755049Y-133932181D01*
X87755048Y-133932179D01*
X87630109Y-133760213D01*
X87479786Y-133609890D01*
X87307820Y-133484951D01*
X87307115Y-133484591D01*
X87299054Y-133480485D01*
X87248259Y-133432512D01*
X87231463Y-133364692D01*
X87253999Y-133298556D01*
X87299054Y-133259515D01*
X87307816Y-133255051D01*
X87373277Y-133207491D01*
X87479786Y-133130109D01*
X87479788Y-133130106D01*
X87479792Y-133130104D01*
X87630104Y-132979792D01*
X87630106Y-132979788D01*
X87630109Y-132979786D01*
X87744335Y-132822565D01*
X87745361Y-132821153D01*
X88999500Y-132821153D01*
X88999500Y-132978846D01*
X89030261Y-133133489D01*
X89030264Y-133133501D01*
X89090602Y-133279172D01*
X89090609Y-133279185D01*
X89178210Y-133410288D01*
X89178213Y-133410292D01*
X89289707Y-133521786D01*
X89289711Y-133521789D01*
X89420814Y-133609390D01*
X89420827Y-133609397D01*
X89558683Y-133666498D01*
X89566503Y-133669737D01*
X89566507Y-133669737D01*
X89569355Y-133670602D01*
X89570667Y-133671462D01*
X89572130Y-133672068D01*
X89572015Y-133672345D01*
X89627793Y-133708901D01*
X89647918Y-133741809D01*
X89690604Y-133844862D01*
X89690609Y-133844872D01*
X89778210Y-133975975D01*
X89778213Y-133975979D01*
X89889707Y-134087473D01*
X89889711Y-134087476D01*
X90020814Y-134175077D01*
X90020827Y-134175084D01*
X90166498Y-134235422D01*
X90166503Y-134235424D01*
X90309756Y-134263919D01*
X90321153Y-134266186D01*
X90321156Y-134266187D01*
X90321158Y-134266187D01*
X90478844Y-134266187D01*
X90478845Y-134266186D01*
X90633497Y-134235424D01*
X90773682Y-134177357D01*
X90843151Y-134169889D01*
X90890024Y-134188816D01*
X90920821Y-134209394D01*
X90920823Y-134209395D01*
X90920827Y-134209397D01*
X91052457Y-134263919D01*
X91066503Y-134269737D01*
X91185017Y-134293311D01*
X91221153Y-134300499D01*
X91221156Y-134300500D01*
X91221158Y-134300500D01*
X91238573Y-134300500D01*
X91305612Y-134320185D01*
X91341675Y-134355610D01*
X91378207Y-134410284D01*
X91378213Y-134410292D01*
X91489707Y-134521786D01*
X91489711Y-134521789D01*
X91620814Y-134609390D01*
X91620827Y-134609397D01*
X91709889Y-134646287D01*
X91766503Y-134669737D01*
X91916131Y-134699500D01*
X91921153Y-134700499D01*
X91921156Y-134700500D01*
X91921158Y-134700500D01*
X92078844Y-134700500D01*
X92078845Y-134700499D01*
X92233497Y-134669737D01*
X92379179Y-134609394D01*
X92510289Y-134521789D01*
X92621789Y-134410289D01*
X92709394Y-134279179D01*
X92769737Y-134133497D01*
X92800500Y-133978842D01*
X92800500Y-133821158D01*
X92800500Y-133821155D01*
X92784209Y-133739258D01*
X92784209Y-133739257D01*
X92780608Y-133721153D01*
X95799500Y-133721153D01*
X95799500Y-133878846D01*
X95830261Y-134033489D01*
X95830264Y-134033501D01*
X95890602Y-134179172D01*
X95890609Y-134179185D01*
X95978210Y-134310288D01*
X95978213Y-134310292D01*
X96089707Y-134421786D01*
X96089711Y-134421789D01*
X96220814Y-134509390D01*
X96220827Y-134509397D01*
X96337812Y-134557853D01*
X96366503Y-134569737D01*
X96521153Y-134600499D01*
X96521156Y-134600500D01*
X96521158Y-134600500D01*
X96678844Y-134600500D01*
X96678845Y-134600499D01*
X96833497Y-134569737D01*
X96979179Y-134509394D01*
X97110289Y-134421789D01*
X97221789Y-134310289D01*
X97309394Y-134179179D01*
X97311092Y-134175081D01*
X97332970Y-134122261D01*
X97369737Y-134033497D01*
X97372106Y-134021588D01*
X97372193Y-134021153D01*
X98399500Y-134021153D01*
X98399500Y-134178846D01*
X98430261Y-134333489D01*
X98430264Y-134333501D01*
X98490602Y-134479172D01*
X98490609Y-134479185D01*
X98578210Y-134610288D01*
X98578213Y-134610292D01*
X98689707Y-134721786D01*
X98689711Y-134721789D01*
X98820814Y-134809390D01*
X98820827Y-134809397D01*
X98933925Y-134856243D01*
X98966503Y-134869737D01*
X99121153Y-134900499D01*
X99121156Y-134900500D01*
X99121158Y-134900500D01*
X99278844Y-134900500D01*
X99278845Y-134900499D01*
X99433497Y-134869737D01*
X99579179Y-134809394D01*
X99710289Y-134721789D01*
X99821789Y-134610289D01*
X99909394Y-134479179D01*
X99966884Y-134340383D01*
X100010722Y-134285985D01*
X100077016Y-134263919D01*
X100144715Y-134281198D01*
X100173753Y-134306131D01*
X100173903Y-134305982D01*
X100175872Y-134307951D01*
X100177295Y-134309173D01*
X100178215Y-134310294D01*
X100289707Y-134421786D01*
X100289711Y-134421789D01*
X100420814Y-134509390D01*
X100420827Y-134509397D01*
X100537812Y-134557853D01*
X100566503Y-134569737D01*
X100721153Y-134600499D01*
X100721156Y-134600500D01*
X100796561Y-134600500D01*
X100863600Y-134620185D01*
X100909355Y-134672989D01*
X100919299Y-134742147D01*
X100890274Y-134805703D01*
X100865452Y-134827602D01*
X100789711Y-134878210D01*
X100789707Y-134878213D01*
X100678213Y-134989707D01*
X100678210Y-134989711D01*
X100590609Y-135120814D01*
X100590602Y-135120827D01*
X100530264Y-135266498D01*
X100530261Y-135266510D01*
X100499500Y-135421153D01*
X100499500Y-135578846D01*
X100530261Y-135733489D01*
X100530264Y-135733501D01*
X100590602Y-135879172D01*
X100590609Y-135879185D01*
X100678210Y-136010288D01*
X100678213Y-136010292D01*
X100789707Y-136121786D01*
X100789711Y-136121789D01*
X100920814Y-136209390D01*
X100920827Y-136209397D01*
X101066498Y-136269735D01*
X101066503Y-136269737D01*
X101219690Y-136300208D01*
X101221153Y-136300499D01*
X101221156Y-136300500D01*
X101221158Y-136300500D01*
X101378844Y-136300500D01*
X101378845Y-136300499D01*
X101533497Y-136269737D01*
X101651592Y-136220821D01*
X101679172Y-136209397D01*
X101679172Y-136209396D01*
X101679179Y-136209394D01*
X101810289Y-136121789D01*
X101921789Y-136010289D01*
X102009394Y-135879179D01*
X102012156Y-135872512D01*
X102033429Y-135821153D01*
X105099500Y-135821153D01*
X105099500Y-135978846D01*
X105130261Y-136133489D01*
X105130264Y-136133501D01*
X105190602Y-136279172D01*
X105190609Y-136279185D01*
X105278210Y-136410288D01*
X105278213Y-136410292D01*
X105389707Y-136521786D01*
X105389711Y-136521789D01*
X105520814Y-136609390D01*
X105520827Y-136609397D01*
X105582946Y-136635127D01*
X105666503Y-136669737D01*
X105795846Y-136695465D01*
X105821153Y-136700499D01*
X105821156Y-136700500D01*
X105821158Y-136700500D01*
X105978844Y-136700500D01*
X105978845Y-136700499D01*
X106133497Y-136669737D01*
X106279179Y-136609394D01*
X106410289Y-136521789D01*
X106521789Y-136410289D01*
X106609394Y-136279179D01*
X106669737Y-136133497D01*
X106700500Y-135978842D01*
X106700500Y-135821158D01*
X106700500Y-135821155D01*
X106700499Y-135821153D01*
X106699337Y-135815312D01*
X106669737Y-135666503D01*
X106629808Y-135570104D01*
X106609397Y-135520827D01*
X106609390Y-135520814D01*
X106521789Y-135389711D01*
X106521786Y-135389707D01*
X106410292Y-135278213D01*
X106410288Y-135278210D01*
X106279185Y-135190609D01*
X106279172Y-135190602D01*
X106133501Y-135130264D01*
X106133489Y-135130261D01*
X105978845Y-135099500D01*
X105978842Y-135099500D01*
X105821158Y-135099500D01*
X105821155Y-135099500D01*
X105666510Y-135130261D01*
X105666498Y-135130264D01*
X105520827Y-135190602D01*
X105520814Y-135190609D01*
X105389711Y-135278210D01*
X105389707Y-135278213D01*
X105278213Y-135389707D01*
X105278210Y-135389711D01*
X105190609Y-135520814D01*
X105190602Y-135520827D01*
X105130264Y-135666498D01*
X105130261Y-135666510D01*
X105099500Y-135821153D01*
X102033429Y-135821153D01*
X102055603Y-135767621D01*
X102055605Y-135767614D01*
X102069737Y-135733497D01*
X102100500Y-135578842D01*
X102100500Y-135421158D01*
X102100500Y-135421155D01*
X102100499Y-135421153D01*
X102077184Y-135303941D01*
X102069737Y-135266503D01*
X102015571Y-135135735D01*
X102008103Y-135066267D01*
X102039378Y-135003788D01*
X102099467Y-134968136D01*
X102160339Y-134969494D01*
X102160528Y-134968549D01*
X102165907Y-134969619D01*
X102166129Y-134969624D01*
X102166503Y-134969737D01*
X102321153Y-135000499D01*
X102321156Y-135000500D01*
X102321158Y-135000500D01*
X102478844Y-135000500D01*
X102478845Y-135000499D01*
X102633497Y-134969737D01*
X102779179Y-134909394D01*
X102910289Y-134821789D01*
X103021789Y-134710289D01*
X103109394Y-134579179D01*
X103169737Y-134433497D01*
X103200500Y-134278842D01*
X103200500Y-134121158D01*
X103200500Y-134121155D01*
X103200499Y-134121153D01*
X103180694Y-134021588D01*
X103169737Y-133966503D01*
X103145603Y-133908238D01*
X103109397Y-133820827D01*
X103109390Y-133820814D01*
X103021790Y-133689712D01*
X103021784Y-133689705D01*
X102953232Y-133621153D01*
X104799500Y-133621153D01*
X104799500Y-133778846D01*
X104830261Y-133933489D01*
X104830264Y-133933501D01*
X104890602Y-134079172D01*
X104890609Y-134079185D01*
X104978210Y-134210288D01*
X104978213Y-134210292D01*
X105089707Y-134321786D01*
X105089711Y-134321789D01*
X105220814Y-134409390D01*
X105220827Y-134409397D01*
X105366498Y-134469735D01*
X105366503Y-134469737D01*
X105489974Y-134494297D01*
X105521153Y-134500499D01*
X105521156Y-134500500D01*
X105521158Y-134500500D01*
X105678844Y-134500500D01*
X105678845Y-134500499D01*
X105833497Y-134469737D01*
X105977021Y-134410288D01*
X105979172Y-134409397D01*
X105979172Y-134409396D01*
X105979179Y-134409394D01*
X106110289Y-134321789D01*
X106221789Y-134210289D01*
X106262100Y-134149960D01*
X106280608Y-134122261D01*
X106334220Y-134077455D01*
X106403545Y-134068748D01*
X106466572Y-134098902D01*
X106471391Y-134103470D01*
X106489707Y-134121786D01*
X106489711Y-134121789D01*
X106620814Y-134209390D01*
X106620827Y-134209397D01*
X106752457Y-134263919D01*
X106766503Y-134269737D01*
X106885017Y-134293311D01*
X106921153Y-134300499D01*
X106921156Y-134300500D01*
X106921158Y-134300500D01*
X107078844Y-134300500D01*
X107078845Y-134300499D01*
X107233497Y-134269737D01*
X107377021Y-134210288D01*
X107379172Y-134209397D01*
X107379172Y-134209396D01*
X107379179Y-134209394D01*
X107510289Y-134121789D01*
X107621789Y-134010289D01*
X107621791Y-134010285D01*
X107625653Y-134005581D01*
X107626962Y-134006656D01*
X107674347Y-133967046D01*
X107743671Y-133958330D01*
X107806702Y-133988477D01*
X107811532Y-133993055D01*
X107820485Y-134002008D01*
X107820489Y-134002011D01*
X107951592Y-134089612D01*
X107951605Y-134089619D01*
X108073462Y-134140093D01*
X108097281Y-134149959D01*
X108235024Y-134177358D01*
X108251931Y-134180721D01*
X108251934Y-134180722D01*
X108251936Y-134180722D01*
X108409621Y-134180722D01*
X108435913Y-134175491D01*
X108460570Y-134170587D01*
X108530162Y-134176814D01*
X108572444Y-134204523D01*
X108589707Y-134221786D01*
X108589711Y-134221789D01*
X108720814Y-134309390D01*
X108720827Y-134309397D01*
X108832397Y-134355610D01*
X108866503Y-134369737D01*
X109021153Y-134400499D01*
X109021156Y-134400500D01*
X109021158Y-134400500D01*
X109178844Y-134400500D01*
X109178845Y-134400499D01*
X109333497Y-134369737D01*
X109479179Y-134309394D01*
X109610289Y-134221789D01*
X109721789Y-134110289D01*
X109809394Y-133979179D01*
X109810720Y-133975979D01*
X109834660Y-133918182D01*
X109869737Y-133833497D01*
X109900500Y-133678842D01*
X109900500Y-133521158D01*
X109900500Y-133521155D01*
X109900499Y-133521153D01*
X109893298Y-133484951D01*
X109869737Y-133366503D01*
X109855658Y-133332512D01*
X109809397Y-133220827D01*
X109809390Y-133220814D01*
X109721789Y-133089711D01*
X109721786Y-133089707D01*
X109610292Y-132978213D01*
X109610288Y-132978210D01*
X109479185Y-132890609D01*
X109479172Y-132890602D01*
X109333501Y-132830264D01*
X109333489Y-132830261D01*
X109178845Y-132799500D01*
X109178842Y-132799500D01*
X109021158Y-132799500D01*
X108970202Y-132809635D01*
X108900611Y-132803406D01*
X108858330Y-132775696D01*
X108841069Y-132758434D01*
X108841066Y-132758432D01*
X108709963Y-132670831D01*
X108709950Y-132670824D01*
X108564279Y-132610486D01*
X108564267Y-132610483D01*
X108409623Y-132579722D01*
X108409620Y-132579722D01*
X108251936Y-132579722D01*
X108251933Y-132579722D01*
X108097288Y-132610483D01*
X108097276Y-132610486D01*
X107951605Y-132670824D01*
X107951592Y-132670831D01*
X107820489Y-132758432D01*
X107820485Y-132758435D01*
X107708995Y-132869926D01*
X107705131Y-132874635D01*
X107703825Y-132873563D01*
X107656409Y-132913185D01*
X107587083Y-132921888D01*
X107524058Y-132891729D01*
X107519246Y-132887167D01*
X107510292Y-132878213D01*
X107510288Y-132878210D01*
X107379185Y-132790609D01*
X107379172Y-132790602D01*
X107233501Y-132730264D01*
X107233489Y-132730261D01*
X107078845Y-132699500D01*
X107078842Y-132699500D01*
X106921158Y-132699500D01*
X106921155Y-132699500D01*
X106766510Y-132730261D01*
X106766498Y-132730264D01*
X106620827Y-132790602D01*
X106620814Y-132790609D01*
X106489711Y-132878210D01*
X106489707Y-132878213D01*
X106378213Y-132989707D01*
X106319391Y-133077740D01*
X106265778Y-133122544D01*
X106196453Y-133131251D01*
X106133426Y-133101096D01*
X106128608Y-133096529D01*
X106110292Y-133078213D01*
X106110288Y-133078210D01*
X105979185Y-132990609D01*
X105979172Y-132990602D01*
X105833501Y-132930264D01*
X105833489Y-132930261D01*
X105678845Y-132899500D01*
X105678842Y-132899500D01*
X105521158Y-132899500D01*
X105521155Y-132899500D01*
X105366510Y-132930261D01*
X105366498Y-132930264D01*
X105220827Y-132990602D01*
X105220814Y-132990609D01*
X105089711Y-133078210D01*
X105089707Y-133078213D01*
X104978213Y-133189707D01*
X104978210Y-133189711D01*
X104890609Y-133320814D01*
X104890602Y-133320827D01*
X104830264Y-133466498D01*
X104830261Y-133466510D01*
X104799500Y-133621153D01*
X102953232Y-133621153D01*
X102910292Y-133578213D01*
X102910288Y-133578210D01*
X102779185Y-133490609D01*
X102779172Y-133490602D01*
X102633501Y-133430264D01*
X102633489Y-133430261D01*
X102478845Y-133399500D01*
X102478842Y-133399500D01*
X102321158Y-133399500D01*
X102321155Y-133399500D01*
X102166510Y-133430261D01*
X102166498Y-133430264D01*
X102020827Y-133490602D01*
X102020814Y-133490609D01*
X101889711Y-133578210D01*
X101788806Y-133679115D01*
X101727483Y-133712599D01*
X101657791Y-133707615D01*
X101601858Y-133665743D01*
X101579508Y-133615624D01*
X101569738Y-133566509D01*
X101569737Y-133566503D01*
X101550955Y-133521158D01*
X101509397Y-133420827D01*
X101509390Y-133420814D01*
X101421789Y-133289711D01*
X101421786Y-133289707D01*
X101310292Y-133178213D01*
X101310288Y-133178210D01*
X101179185Y-133090609D01*
X101179172Y-133090602D01*
X101033501Y-133030264D01*
X101033489Y-133030261D01*
X100878845Y-132999500D01*
X100878842Y-132999500D01*
X100721158Y-132999500D01*
X100721155Y-132999500D01*
X100566510Y-133030261D01*
X100566498Y-133030264D01*
X100420827Y-133090602D01*
X100420814Y-133090609D01*
X100289711Y-133178210D01*
X100289707Y-133178213D01*
X100178213Y-133289707D01*
X100178210Y-133289711D01*
X100090609Y-133420814D01*
X100090604Y-133420823D01*
X100033117Y-133559612D01*
X99989276Y-133614015D01*
X99922982Y-133636080D01*
X99855283Y-133618801D01*
X99826247Y-133593867D01*
X99826097Y-133594018D01*
X99824118Y-133592039D01*
X99822703Y-133590824D01*
X99821787Y-133589708D01*
X99710292Y-133478213D01*
X99710288Y-133478210D01*
X99579185Y-133390609D01*
X99579172Y-133390602D01*
X99433501Y-133330264D01*
X99433489Y-133330261D01*
X99278845Y-133299500D01*
X99278842Y-133299500D01*
X99121158Y-133299500D01*
X99121155Y-133299500D01*
X98966510Y-133330261D01*
X98966498Y-133330264D01*
X98820827Y-133390602D01*
X98820814Y-133390609D01*
X98689711Y-133478210D01*
X98689707Y-133478213D01*
X98578213Y-133589707D01*
X98578210Y-133589711D01*
X98490609Y-133720814D01*
X98490602Y-133720827D01*
X98430264Y-133866498D01*
X98430261Y-133866510D01*
X98399500Y-134021153D01*
X97372193Y-134021153D01*
X97378216Y-133990874D01*
X97378216Y-133990873D01*
X97398448Y-133889157D01*
X97400500Y-133878842D01*
X97400500Y-133721158D01*
X97400500Y-133721155D01*
X97400499Y-133721153D01*
X97394245Y-133689711D01*
X97369737Y-133566503D01*
X97350955Y-133521158D01*
X97309397Y-133420827D01*
X97309390Y-133420814D01*
X97221789Y-133289711D01*
X97221786Y-133289707D01*
X97110292Y-133178213D01*
X97110288Y-133178210D01*
X96979185Y-133090609D01*
X96979172Y-133090602D01*
X96833501Y-133030264D01*
X96833489Y-133030261D01*
X96678845Y-132999500D01*
X96678842Y-132999500D01*
X96521158Y-132999500D01*
X96521155Y-132999500D01*
X96366510Y-133030261D01*
X96366498Y-133030264D01*
X96220827Y-133090602D01*
X96220814Y-133090609D01*
X96089711Y-133178210D01*
X96089707Y-133178213D01*
X95978213Y-133289707D01*
X95978210Y-133289711D01*
X95890609Y-133420814D01*
X95890602Y-133420827D01*
X95830264Y-133566498D01*
X95830261Y-133566510D01*
X95799500Y-133721153D01*
X92780608Y-133721153D01*
X92776238Y-133699184D01*
X92769737Y-133666503D01*
X92767130Y-133660208D01*
X92709397Y-133520827D01*
X92709390Y-133520814D01*
X92621789Y-133389711D01*
X92621786Y-133389707D01*
X92510292Y-133278213D01*
X92510288Y-133278210D01*
X92379185Y-133190609D01*
X92379172Y-133190602D01*
X92233501Y-133130264D01*
X92233489Y-133130261D01*
X92078845Y-133099500D01*
X92078842Y-133099500D01*
X92061427Y-133099500D01*
X91994388Y-133079815D01*
X91958325Y-133044390D01*
X91921792Y-132989715D01*
X91921786Y-132989707D01*
X91810292Y-132878213D01*
X91810288Y-132878210D01*
X91679185Y-132790609D01*
X91679172Y-132790602D01*
X91533501Y-132730264D01*
X91533489Y-132730261D01*
X91378845Y-132699500D01*
X91378842Y-132699500D01*
X91221158Y-132699500D01*
X91221155Y-132699500D01*
X91066510Y-132730261D01*
X91066507Y-132730262D01*
X91066506Y-132730262D01*
X91066503Y-132730263D01*
X90986882Y-132763242D01*
X90926317Y-132788329D01*
X90856847Y-132795797D01*
X90827167Y-132786476D01*
X90818186Y-132782356D01*
X90779179Y-132756293D01*
X90633497Y-132695950D01*
X90626979Y-132694653D01*
X90614944Y-132689133D01*
X90594669Y-132671506D01*
X90572200Y-132656778D01*
X90565924Y-132646515D01*
X90562216Y-132643291D01*
X90560630Y-132637857D01*
X90552081Y-132623876D01*
X90509397Y-132520827D01*
X90509390Y-132520814D01*
X90421789Y-132389711D01*
X90421786Y-132389707D01*
X90310292Y-132278213D01*
X90310288Y-132278210D01*
X90179185Y-132190609D01*
X90179172Y-132190602D01*
X90033501Y-132130264D01*
X90033489Y-132130261D01*
X89878845Y-132099500D01*
X89878842Y-132099500D01*
X89721158Y-132099500D01*
X89721155Y-132099500D01*
X89566510Y-132130261D01*
X89566498Y-132130264D01*
X89420827Y-132190602D01*
X89420814Y-132190609D01*
X89289711Y-132278210D01*
X89289707Y-132278213D01*
X89178213Y-132389707D01*
X89178210Y-132389711D01*
X89090609Y-132520814D01*
X89090602Y-132520827D01*
X89030264Y-132666498D01*
X89030261Y-132666510D01*
X88999500Y-132821153D01*
X87745361Y-132821153D01*
X87755051Y-132807816D01*
X87771417Y-132775696D01*
X87780042Y-132758770D01*
X87824848Y-132670831D01*
X87851557Y-132618412D01*
X87917246Y-132416243D01*
X87950500Y-132206287D01*
X87950500Y-131993713D01*
X87917246Y-131783757D01*
X87851557Y-131581588D01*
X87755051Y-131392184D01*
X87755049Y-131392181D01*
X87755048Y-131392179D01*
X87630109Y-131220213D01*
X87479786Y-131069890D01*
X87412704Y-131021153D01*
X98699500Y-131021153D01*
X98699500Y-131178846D01*
X98730261Y-131333489D01*
X98730264Y-131333501D01*
X98790602Y-131479172D01*
X98790609Y-131479185D01*
X98878210Y-131610288D01*
X98878213Y-131610292D01*
X98989707Y-131721786D01*
X98989711Y-131721789D01*
X99120814Y-131809390D01*
X99120827Y-131809397D01*
X99266498Y-131869735D01*
X99266503Y-131869737D01*
X99387038Y-131893713D01*
X99421153Y-131900499D01*
X99421156Y-131900500D01*
X99421158Y-131900500D01*
X99578844Y-131900500D01*
X99578845Y-131900499D01*
X99733497Y-131869737D01*
X99879179Y-131809394D01*
X100010289Y-131721789D01*
X100121789Y-131610289D01*
X100209394Y-131479179D01*
X100269737Y-131333497D01*
X100300500Y-131178842D01*
X100300500Y-131021158D01*
X100300500Y-131021155D01*
X100300499Y-131021153D01*
X100276688Y-130901447D01*
X100269737Y-130866503D01*
X100260809Y-130844949D01*
X100209397Y-130720827D01*
X100209390Y-130720814D01*
X100121789Y-130589711D01*
X100121786Y-130589707D01*
X100010292Y-130478213D01*
X100010288Y-130478210D01*
X99879185Y-130390609D01*
X99879172Y-130390602D01*
X99733501Y-130330264D01*
X99733489Y-130330261D01*
X99578845Y-130299500D01*
X99578842Y-130299500D01*
X99421158Y-130299500D01*
X99421155Y-130299500D01*
X99266510Y-130330261D01*
X99266498Y-130330264D01*
X99120827Y-130390602D01*
X99120814Y-130390609D01*
X98989711Y-130478210D01*
X98989707Y-130478213D01*
X98878213Y-130589707D01*
X98878210Y-130589711D01*
X98790609Y-130720814D01*
X98790602Y-130720827D01*
X98730264Y-130866498D01*
X98730261Y-130866510D01*
X98699500Y-131021153D01*
X87412704Y-131021153D01*
X87307820Y-130944951D01*
X87307115Y-130944591D01*
X87299054Y-130940485D01*
X87248259Y-130892512D01*
X87231463Y-130824692D01*
X87253999Y-130758556D01*
X87299054Y-130719515D01*
X87307816Y-130715051D01*
X87373277Y-130667491D01*
X87479786Y-130590109D01*
X87479788Y-130590106D01*
X87479792Y-130590104D01*
X87630104Y-130439792D01*
X87630106Y-130439788D01*
X87630109Y-130439786D01*
X87755048Y-130267820D01*
X87755047Y-130267820D01*
X87755051Y-130267816D01*
X87851557Y-130078412D01*
X87917246Y-129876243D01*
X87950500Y-129666287D01*
X87950500Y-129453713D01*
X87917246Y-129243757D01*
X87851557Y-129041588D01*
X87755051Y-128852184D01*
X87755049Y-128852181D01*
X87755048Y-128852179D01*
X87630109Y-128680213D01*
X87479786Y-128529890D01*
X87307820Y-128404951D01*
X87307115Y-128404591D01*
X87299054Y-128400485D01*
X87248259Y-128352512D01*
X87231463Y-128284692D01*
X87253999Y-128218556D01*
X87299054Y-128179515D01*
X87307816Y-128175051D01*
X87373667Y-128127208D01*
X87479786Y-128050109D01*
X87479788Y-128050106D01*
X87479792Y-128050104D01*
X87630104Y-127899792D01*
X87630106Y-127899788D01*
X87630109Y-127899786D01*
X87687239Y-127821153D01*
X88599500Y-127821153D01*
X88599500Y-127978846D01*
X88630261Y-128133489D01*
X88630264Y-128133501D01*
X88690602Y-128279172D01*
X88690609Y-128279185D01*
X88778210Y-128410288D01*
X88778213Y-128410292D01*
X88889707Y-128521786D01*
X88889711Y-128521789D01*
X89020814Y-128609390D01*
X89020827Y-128609397D01*
X89166498Y-128669735D01*
X89166503Y-128669737D01*
X89321153Y-128700499D01*
X89321156Y-128700500D01*
X89321158Y-128700500D01*
X89478844Y-128700500D01*
X89478845Y-128700499D01*
X89633497Y-128669737D01*
X89779179Y-128609394D01*
X89910289Y-128521789D01*
X90021789Y-128410289D01*
X90109394Y-128279179D01*
X90169737Y-128133497D01*
X90200500Y-127978842D01*
X90200500Y-127821158D01*
X90200500Y-127821155D01*
X90200499Y-127821153D01*
X90181934Y-127727820D01*
X90169737Y-127666503D01*
X90153602Y-127627550D01*
X90109397Y-127520827D01*
X90109390Y-127520814D01*
X90021789Y-127389711D01*
X90021786Y-127389707D01*
X89910292Y-127278213D01*
X89910288Y-127278210D01*
X89779185Y-127190609D01*
X89779172Y-127190602D01*
X89633501Y-127130264D01*
X89633489Y-127130261D01*
X89478845Y-127099500D01*
X89478842Y-127099500D01*
X89321158Y-127099500D01*
X89321155Y-127099500D01*
X89166510Y-127130261D01*
X89166498Y-127130264D01*
X89020827Y-127190602D01*
X89020814Y-127190609D01*
X88889711Y-127278210D01*
X88889707Y-127278213D01*
X88778213Y-127389707D01*
X88778210Y-127389711D01*
X88690609Y-127520814D01*
X88690602Y-127520827D01*
X88630264Y-127666498D01*
X88630261Y-127666510D01*
X88599500Y-127821153D01*
X87687239Y-127821153D01*
X87744615Y-127742181D01*
X87749455Y-127735517D01*
X87755051Y-127727816D01*
X87851557Y-127538412D01*
X87917246Y-127336243D01*
X87950500Y-127126287D01*
X87950500Y-126913713D01*
X87917246Y-126703757D01*
X87851557Y-126501588D01*
X87755051Y-126312184D01*
X87755049Y-126312181D01*
X87755048Y-126312179D01*
X87630109Y-126140213D01*
X87479786Y-125989890D01*
X87307820Y-125864951D01*
X87307115Y-125864591D01*
X87299054Y-125860485D01*
X87248259Y-125812512D01*
X87231463Y-125744692D01*
X87253999Y-125678556D01*
X87299054Y-125639515D01*
X87307816Y-125635051D01*
X87372899Y-125587766D01*
X87479786Y-125510109D01*
X87479788Y-125510106D01*
X87479792Y-125510104D01*
X87630104Y-125359792D01*
X87630106Y-125359788D01*
X87630109Y-125359786D01*
X87702762Y-125259786D01*
X87755051Y-125187816D01*
X87789017Y-125121153D01*
X92599500Y-125121153D01*
X92599500Y-125278846D01*
X92630261Y-125433489D01*
X92630264Y-125433501D01*
X92690602Y-125579172D01*
X92690609Y-125579185D01*
X92778210Y-125710288D01*
X92778213Y-125710292D01*
X92780240Y-125712319D01*
X92780962Y-125713642D01*
X92782076Y-125714999D01*
X92781818Y-125715210D01*
X92813725Y-125773642D01*
X92808741Y-125843334D01*
X92782001Y-125884939D01*
X92782076Y-125885001D01*
X92781552Y-125885639D01*
X92780240Y-125887681D01*
X92778213Y-125889707D01*
X92778210Y-125889711D01*
X92690609Y-126020814D01*
X92690602Y-126020827D01*
X92630264Y-126166498D01*
X92630261Y-126166510D01*
X92599500Y-126321153D01*
X92599500Y-126478846D01*
X92630261Y-126633489D01*
X92630264Y-126633501D01*
X92690602Y-126779172D01*
X92690609Y-126779185D01*
X92778210Y-126910288D01*
X92778213Y-126910292D01*
X92889707Y-127021786D01*
X92889711Y-127021789D01*
X93020814Y-127109390D01*
X93020827Y-127109397D01*
X93166498Y-127169735D01*
X93166503Y-127169737D01*
X93321153Y-127200499D01*
X93321156Y-127200500D01*
X93321158Y-127200500D01*
X93478844Y-127200500D01*
X93478845Y-127200499D01*
X93633497Y-127169737D01*
X93779179Y-127109394D01*
X93910289Y-127021789D01*
X94021789Y-126910289D01*
X94109394Y-126779179D01*
X94116748Y-126761426D01*
X94140633Y-126703760D01*
X94169737Y-126633497D01*
X94200500Y-126478842D01*
X94200500Y-126321158D01*
X94200500Y-126321155D01*
X94200499Y-126321153D01*
X98799500Y-126321153D01*
X98799500Y-126478846D01*
X98830261Y-126633489D01*
X98830264Y-126633501D01*
X98890602Y-126779172D01*
X98890609Y-126779185D01*
X98978210Y-126910288D01*
X98978213Y-126910292D01*
X99089707Y-127021786D01*
X99089711Y-127021789D01*
X99220814Y-127109390D01*
X99220827Y-127109397D01*
X99366498Y-127169735D01*
X99366503Y-127169737D01*
X99521153Y-127200499D01*
X99521156Y-127200500D01*
X99521158Y-127200500D01*
X99678844Y-127200500D01*
X99678845Y-127200499D01*
X99833497Y-127169737D01*
X99979179Y-127109394D01*
X100110289Y-127021789D01*
X100221789Y-126910289D01*
X100309394Y-126779179D01*
X100369737Y-126633497D01*
X100400500Y-126478842D01*
X100400500Y-126321158D01*
X100400500Y-126321155D01*
X100400499Y-126321153D01*
X100390375Y-126270259D01*
X100369737Y-126166503D01*
X100366332Y-126158282D01*
X100309397Y-126020827D01*
X100309390Y-126020814D01*
X100221789Y-125889711D01*
X100221786Y-125889707D01*
X100110292Y-125778213D01*
X100110288Y-125778210D01*
X99979185Y-125690609D01*
X99979172Y-125690602D01*
X99833501Y-125630264D01*
X99833489Y-125630261D01*
X99678845Y-125599500D01*
X99678842Y-125599500D01*
X99521158Y-125599500D01*
X99521155Y-125599500D01*
X99366510Y-125630261D01*
X99366498Y-125630264D01*
X99220827Y-125690602D01*
X99220814Y-125690609D01*
X99089711Y-125778210D01*
X99089707Y-125778213D01*
X98978213Y-125889707D01*
X98978210Y-125889711D01*
X98890609Y-126020814D01*
X98890602Y-126020827D01*
X98830264Y-126166498D01*
X98830261Y-126166510D01*
X98799500Y-126321153D01*
X94200499Y-126321153D01*
X94190375Y-126270259D01*
X94169737Y-126166503D01*
X94166332Y-126158282D01*
X94109397Y-126020827D01*
X94109390Y-126020814D01*
X94021789Y-125889711D01*
X94019766Y-125887688D01*
X94019043Y-125886365D01*
X94017924Y-125885001D01*
X94018182Y-125884788D01*
X93986276Y-125826368D01*
X93991255Y-125756676D01*
X94017999Y-125715060D01*
X94017924Y-125714999D01*
X94018454Y-125714351D01*
X94019766Y-125712312D01*
X94021789Y-125710289D01*
X94109394Y-125579179D01*
X94169737Y-125433497D01*
X94200500Y-125278842D01*
X94200500Y-125121158D01*
X94200500Y-125121155D01*
X94200499Y-125121153D01*
X94193868Y-125087816D01*
X94169737Y-124966503D01*
X94153321Y-124926870D01*
X94109397Y-124820827D01*
X94109390Y-124820814D01*
X94021789Y-124689711D01*
X94021786Y-124689707D01*
X93910292Y-124578213D01*
X93910288Y-124578210D01*
X93779185Y-124490609D01*
X93779172Y-124490602D01*
X93633501Y-124430264D01*
X93633489Y-124430261D01*
X93478845Y-124399500D01*
X93478842Y-124399500D01*
X93321158Y-124399500D01*
X93321155Y-124399500D01*
X93166510Y-124430261D01*
X93166498Y-124430264D01*
X93020827Y-124490602D01*
X93020814Y-124490609D01*
X92889711Y-124578210D01*
X92889707Y-124578213D01*
X92778213Y-124689707D01*
X92778210Y-124689711D01*
X92690609Y-124820814D01*
X92690602Y-124820827D01*
X92630264Y-124966498D01*
X92630261Y-124966510D01*
X92599500Y-125121153D01*
X87789017Y-125121153D01*
X87851557Y-124998412D01*
X87917246Y-124796243D01*
X87950500Y-124586287D01*
X87950500Y-124373713D01*
X87917246Y-124163757D01*
X87851557Y-123961588D01*
X87755051Y-123772184D01*
X87755049Y-123772181D01*
X87755048Y-123772179D01*
X87630109Y-123600213D01*
X87479786Y-123449890D01*
X87307820Y-123324951D01*
X87307115Y-123324591D01*
X87299054Y-123320485D01*
X87248259Y-123272512D01*
X87231463Y-123204692D01*
X87253999Y-123138556D01*
X87299054Y-123099515D01*
X87307816Y-123095051D01*
X87373277Y-123047491D01*
X87479786Y-122970109D01*
X87479788Y-122970106D01*
X87479792Y-122970104D01*
X87630104Y-122819792D01*
X87630106Y-122819788D01*
X87630109Y-122819786D01*
X87755048Y-122647820D01*
X87755047Y-122647820D01*
X87755051Y-122647816D01*
X87851557Y-122458412D01*
X87917246Y-122256243D01*
X87950500Y-122046287D01*
X87950500Y-121833713D01*
X87917246Y-121623757D01*
X87851557Y-121421588D01*
X87755051Y-121232184D01*
X87755050Y-121232182D01*
X87740806Y-121212577D01*
X97923475Y-121212577D01*
X98028736Y-121256178D01*
X98028740Y-121256179D01*
X98173626Y-121284999D01*
X98173629Y-121285000D01*
X98321371Y-121285000D01*
X98321373Y-121284999D01*
X98466260Y-121256179D01*
X98466275Y-121256175D01*
X98571524Y-121212578D01*
X98571524Y-121212577D01*
X99758475Y-121212577D01*
X99863736Y-121256178D01*
X99863740Y-121256179D01*
X100008626Y-121284999D01*
X100008629Y-121285000D01*
X100156371Y-121285000D01*
X100156373Y-121284999D01*
X100301260Y-121256179D01*
X100301275Y-121256175D01*
X100406524Y-121212578D01*
X100406524Y-121212577D01*
X100082501Y-120888554D01*
X100082500Y-120888554D01*
X99758475Y-121212577D01*
X98571524Y-121212577D01*
X98247501Y-120888554D01*
X98247500Y-120888554D01*
X97923475Y-121212577D01*
X87740806Y-121212577D01*
X87630109Y-121060213D01*
X87479786Y-120909890D01*
X87307820Y-120784951D01*
X87307115Y-120784591D01*
X87299054Y-120780485D01*
X87248259Y-120732512D01*
X87231463Y-120664692D01*
X87253999Y-120598556D01*
X87299054Y-120559515D01*
X87307816Y-120555051D01*
X87373277Y-120507491D01*
X87479786Y-120430109D01*
X87479788Y-120430106D01*
X87479792Y-120430104D01*
X87614819Y-120295077D01*
X97005975Y-120295077D01*
X97111236Y-120338678D01*
X97111240Y-120338679D01*
X97256126Y-120367499D01*
X97256129Y-120367500D01*
X97373500Y-120367500D01*
X97440539Y-120387185D01*
X97486294Y-120439989D01*
X97497500Y-120491500D01*
X97497500Y-120608873D01*
X97526320Y-120753759D01*
X97526322Y-120753767D01*
X97569921Y-120859024D01*
X97893946Y-120535000D01*
X97864109Y-120505163D01*
X98097500Y-120505163D01*
X98097500Y-120564837D01*
X98120336Y-120619968D01*
X98162532Y-120662164D01*
X98217663Y-120685000D01*
X98277337Y-120685000D01*
X98332468Y-120662164D01*
X98374664Y-120619968D01*
X98397500Y-120564837D01*
X98397500Y-120535000D01*
X98601054Y-120535000D01*
X98925077Y-120859024D01*
X98925078Y-120859024D01*
X98968675Y-120753775D01*
X98968679Y-120753760D01*
X98997499Y-120608873D01*
X98997500Y-120608871D01*
X98997500Y-120491500D01*
X99000050Y-120482814D01*
X98998762Y-120473853D01*
X99009740Y-120449812D01*
X99017185Y-120424461D01*
X99024025Y-120418533D01*
X99027787Y-120410297D01*
X99050021Y-120396007D01*
X99069989Y-120378706D01*
X99080503Y-120376418D01*
X99086565Y-120372523D01*
X99121500Y-120367500D01*
X99208500Y-120367500D01*
X99275539Y-120387185D01*
X99321294Y-120439989D01*
X99332500Y-120491500D01*
X99332500Y-120608873D01*
X99361320Y-120753759D01*
X99361322Y-120753767D01*
X99404921Y-120859024D01*
X99728946Y-120535000D01*
X99699109Y-120505163D01*
X99932500Y-120505163D01*
X99932500Y-120564837D01*
X99955336Y-120619968D01*
X99997532Y-120662164D01*
X100052663Y-120685000D01*
X100112337Y-120685000D01*
X100167468Y-120662164D01*
X100209664Y-120619968D01*
X100232500Y-120564837D01*
X100232500Y-120535000D01*
X100436054Y-120535000D01*
X100760077Y-120859024D01*
X100760078Y-120859024D01*
X100803675Y-120753775D01*
X100803679Y-120753760D01*
X100832499Y-120608873D01*
X100832500Y-120608871D01*
X100832500Y-120491500D01*
X100852185Y-120424461D01*
X100904989Y-120378706D01*
X100956500Y-120367500D01*
X101073871Y-120367500D01*
X101073873Y-120367499D01*
X101218760Y-120338679D01*
X101218775Y-120338675D01*
X101324024Y-120295078D01*
X101324024Y-120295077D01*
X101000000Y-119971054D01*
X100436054Y-120535000D01*
X100232500Y-120535000D01*
X100232500Y-120505163D01*
X100209664Y-120450032D01*
X100167468Y-120407836D01*
X100112337Y-120385000D01*
X100052663Y-120385000D01*
X99997532Y-120407836D01*
X99955336Y-120450032D01*
X99932500Y-120505163D01*
X99699109Y-120505163D01*
X99165000Y-119971054D01*
X98601054Y-120535000D01*
X98397500Y-120535000D01*
X98397500Y-120505163D01*
X98374664Y-120450032D01*
X98332468Y-120407836D01*
X98277337Y-120385000D01*
X98217663Y-120385000D01*
X98162532Y-120407836D01*
X98120336Y-120450032D01*
X98097500Y-120505163D01*
X97864109Y-120505163D01*
X97775477Y-120416531D01*
X97330001Y-119971054D01*
X97330000Y-119971054D01*
X97005975Y-120295077D01*
X87614819Y-120295077D01*
X87630104Y-120279792D01*
X87755051Y-120107816D01*
X87851557Y-119918412D01*
X87917246Y-119716243D01*
X87944586Y-119543626D01*
X96580000Y-119543626D01*
X96580000Y-119691373D01*
X96608820Y-119836259D01*
X96608822Y-119836267D01*
X96652421Y-119941524D01*
X96976446Y-119617500D01*
X96976446Y-119617499D01*
X96946610Y-119587663D01*
X97180000Y-119587663D01*
X97180000Y-119647337D01*
X97202836Y-119702468D01*
X97245032Y-119744664D01*
X97300163Y-119767500D01*
X97359837Y-119767500D01*
X97414968Y-119744664D01*
X97457164Y-119702468D01*
X97480000Y-119647337D01*
X97480000Y-119617500D01*
X97683554Y-119617500D01*
X98247500Y-120181446D01*
X98811446Y-119617500D01*
X98781609Y-119587663D01*
X99015000Y-119587663D01*
X99015000Y-119647337D01*
X99037836Y-119702468D01*
X99080032Y-119744664D01*
X99135163Y-119767500D01*
X99194837Y-119767500D01*
X99249968Y-119744664D01*
X99292164Y-119702468D01*
X99315000Y-119647337D01*
X99315000Y-119617500D01*
X99518554Y-119617500D01*
X100082500Y-120181446D01*
X100646446Y-119617500D01*
X100616609Y-119587663D01*
X100850000Y-119587663D01*
X100850000Y-119647337D01*
X100872836Y-119702468D01*
X100915032Y-119744664D01*
X100970163Y-119767500D01*
X101029837Y-119767500D01*
X101084968Y-119744664D01*
X101127164Y-119702468D01*
X101150000Y-119647337D01*
X101150000Y-119617499D01*
X101353554Y-119617499D01*
X101353554Y-119617501D01*
X101677577Y-119941524D01*
X101677578Y-119941524D01*
X101721175Y-119836275D01*
X101721179Y-119836260D01*
X101749999Y-119691373D01*
X101750000Y-119691371D01*
X101750000Y-119543628D01*
X101749999Y-119543626D01*
X101721179Y-119398740D01*
X101721178Y-119398736D01*
X101677577Y-119293475D01*
X101353554Y-119617499D01*
X101150000Y-119617499D01*
X101150000Y-119587663D01*
X101127164Y-119532532D01*
X101084968Y-119490336D01*
X101029837Y-119467500D01*
X100970163Y-119467500D01*
X100915032Y-119490336D01*
X100872836Y-119532532D01*
X100850000Y-119587663D01*
X100616609Y-119587663D01*
X100082500Y-119053554D01*
X99518554Y-119617500D01*
X99315000Y-119617500D01*
X99315000Y-119587663D01*
X99292164Y-119532532D01*
X99249968Y-119490336D01*
X99194837Y-119467500D01*
X99135163Y-119467500D01*
X99080032Y-119490336D01*
X99037836Y-119532532D01*
X99015000Y-119587663D01*
X98781609Y-119587663D01*
X98247500Y-119053554D01*
X97683554Y-119617500D01*
X97480000Y-119617500D01*
X97480000Y-119587663D01*
X97457164Y-119532532D01*
X97414968Y-119490336D01*
X97359837Y-119467500D01*
X97300163Y-119467500D01*
X97245032Y-119490336D01*
X97202836Y-119532532D01*
X97180000Y-119587663D01*
X96946610Y-119587663D01*
X96652421Y-119293474D01*
X96652420Y-119293474D01*
X96608823Y-119398728D01*
X96608820Y-119398740D01*
X96580000Y-119543626D01*
X87944586Y-119543626D01*
X87950500Y-119506287D01*
X87950500Y-119293713D01*
X87917246Y-119083757D01*
X87870510Y-118939920D01*
X97005974Y-118939920D01*
X97005974Y-118939921D01*
X97329999Y-119263946D01*
X97893946Y-118700000D01*
X97864109Y-118670163D01*
X98097500Y-118670163D01*
X98097500Y-118729837D01*
X98120336Y-118784968D01*
X98162532Y-118827164D01*
X98217663Y-118850000D01*
X98277337Y-118850000D01*
X98332468Y-118827164D01*
X98374664Y-118784968D01*
X98397500Y-118729837D01*
X98397500Y-118700000D01*
X98601054Y-118700000D01*
X99165000Y-119263946D01*
X99728946Y-118700000D01*
X99699109Y-118670163D01*
X99932500Y-118670163D01*
X99932500Y-118729837D01*
X99955336Y-118784968D01*
X99997532Y-118827164D01*
X100052663Y-118850000D01*
X100112337Y-118850000D01*
X100167468Y-118827164D01*
X100209664Y-118784968D01*
X100232500Y-118729837D01*
X100232500Y-118700000D01*
X100436054Y-118700000D01*
X101000000Y-119263946D01*
X101000001Y-119263946D01*
X101324024Y-118939921D01*
X101218767Y-118896322D01*
X101218759Y-118896320D01*
X101073872Y-118867500D01*
X100956500Y-118867500D01*
X100947814Y-118864949D01*
X100938853Y-118866238D01*
X100914812Y-118855259D01*
X100889461Y-118847815D01*
X100883533Y-118840974D01*
X100875297Y-118837213D01*
X100861007Y-118814978D01*
X100843706Y-118795011D01*
X100841418Y-118784496D01*
X100837523Y-118778435D01*
X100832500Y-118743500D01*
X100832500Y-118656500D01*
X100852185Y-118589461D01*
X100904989Y-118543706D01*
X100956500Y-118532500D01*
X101073871Y-118532500D01*
X101073873Y-118532499D01*
X101218760Y-118503679D01*
X101218775Y-118503675D01*
X101324024Y-118460078D01*
X101324024Y-118460077D01*
X101000000Y-118136054D01*
X100436054Y-118700000D01*
X100232500Y-118700000D01*
X100232500Y-118670163D01*
X100209664Y-118615032D01*
X100167468Y-118572836D01*
X100112337Y-118550000D01*
X100052663Y-118550000D01*
X99997532Y-118572836D01*
X99955336Y-118615032D01*
X99932500Y-118670163D01*
X99699109Y-118670163D01*
X99165000Y-118136054D01*
X98601054Y-118700000D01*
X98397500Y-118700000D01*
X98397500Y-118670163D01*
X98374664Y-118615032D01*
X98332468Y-118572836D01*
X98277337Y-118550000D01*
X98217663Y-118550000D01*
X98162532Y-118572836D01*
X98120336Y-118615032D01*
X98097500Y-118670163D01*
X97864109Y-118670163D01*
X97775477Y-118581531D01*
X97330001Y-118136054D01*
X97330000Y-118136054D01*
X97005975Y-118460077D01*
X97111236Y-118503678D01*
X97111240Y-118503679D01*
X97256126Y-118532499D01*
X97256129Y-118532500D01*
X97373500Y-118532500D01*
X97382185Y-118535050D01*
X97391147Y-118533762D01*
X97415187Y-118544740D01*
X97440539Y-118552185D01*
X97446466Y-118559025D01*
X97454703Y-118562787D01*
X97468992Y-118585021D01*
X97486294Y-118604989D01*
X97488581Y-118615503D01*
X97492477Y-118621565D01*
X97497500Y-118656500D01*
X97497500Y-118743500D01*
X97477815Y-118810539D01*
X97425011Y-118856294D01*
X97373500Y-118867500D01*
X97256128Y-118867500D01*
X97111240Y-118896320D01*
X97111228Y-118896323D01*
X97005974Y-118939920D01*
X87870510Y-118939920D01*
X87851557Y-118881588D01*
X87755051Y-118692184D01*
X87755049Y-118692181D01*
X87755048Y-118692179D01*
X87630109Y-118520213D01*
X87479786Y-118369890D01*
X87307820Y-118244951D01*
X87307115Y-118244591D01*
X87299054Y-118240485D01*
X87248259Y-118192512D01*
X87231463Y-118124692D01*
X87253999Y-118058556D01*
X87299054Y-118019515D01*
X87307816Y-118015051D01*
X87373277Y-117967491D01*
X87479786Y-117890109D01*
X87479788Y-117890106D01*
X87479792Y-117890104D01*
X87630104Y-117739792D01*
X87652747Y-117708626D01*
X96580000Y-117708626D01*
X96580000Y-117856373D01*
X96608820Y-118001259D01*
X96608822Y-118001267D01*
X96652421Y-118106524D01*
X96976446Y-117782500D01*
X96976446Y-117782499D01*
X96946610Y-117752663D01*
X97180000Y-117752663D01*
X97180000Y-117812337D01*
X97202836Y-117867468D01*
X97245032Y-117909664D01*
X97300163Y-117932500D01*
X97359837Y-117932500D01*
X97414968Y-117909664D01*
X97457164Y-117867468D01*
X97480000Y-117812337D01*
X97480000Y-117782500D01*
X97683554Y-117782500D01*
X98247500Y-118346446D01*
X98811446Y-117782500D01*
X98781609Y-117752663D01*
X99015000Y-117752663D01*
X99015000Y-117812337D01*
X99037836Y-117867468D01*
X99080032Y-117909664D01*
X99135163Y-117932500D01*
X99194837Y-117932500D01*
X99249968Y-117909664D01*
X99292164Y-117867468D01*
X99315000Y-117812337D01*
X99315000Y-117782500D01*
X99518554Y-117782500D01*
X100082500Y-118346446D01*
X100646446Y-117782500D01*
X100616609Y-117752663D01*
X100850000Y-117752663D01*
X100850000Y-117812337D01*
X100872836Y-117867468D01*
X100915032Y-117909664D01*
X100970163Y-117932500D01*
X101029837Y-117932500D01*
X101084968Y-117909664D01*
X101127164Y-117867468D01*
X101150000Y-117812337D01*
X101150000Y-117782499D01*
X101353554Y-117782499D01*
X101353554Y-117782501D01*
X101677577Y-118106524D01*
X101677578Y-118106524D01*
X101721175Y-118001275D01*
X101721179Y-118001260D01*
X101749999Y-117856373D01*
X101750000Y-117856371D01*
X101750000Y-117708628D01*
X101749999Y-117708626D01*
X101721179Y-117563740D01*
X101721178Y-117563736D01*
X101677577Y-117458475D01*
X101353554Y-117782499D01*
X101150000Y-117782499D01*
X101150000Y-117752663D01*
X101127164Y-117697532D01*
X101084968Y-117655336D01*
X101029837Y-117632500D01*
X100970163Y-117632500D01*
X100915032Y-117655336D01*
X100872836Y-117697532D01*
X100850000Y-117752663D01*
X100616609Y-117752663D01*
X100082500Y-117218554D01*
X99518554Y-117782500D01*
X99315000Y-117782500D01*
X99315000Y-117752663D01*
X99292164Y-117697532D01*
X99249968Y-117655336D01*
X99194837Y-117632500D01*
X99135163Y-117632500D01*
X99080032Y-117655336D01*
X99037836Y-117697532D01*
X99015000Y-117752663D01*
X98781609Y-117752663D01*
X98247500Y-117218554D01*
X97683554Y-117782500D01*
X97480000Y-117782500D01*
X97480000Y-117752663D01*
X97457164Y-117697532D01*
X97414968Y-117655336D01*
X97359837Y-117632500D01*
X97300163Y-117632500D01*
X97245032Y-117655336D01*
X97202836Y-117697532D01*
X97180000Y-117752663D01*
X96946610Y-117752663D01*
X96652421Y-117458474D01*
X96652420Y-117458474D01*
X96608823Y-117563728D01*
X96608820Y-117563740D01*
X96580000Y-117708626D01*
X87652747Y-117708626D01*
X87755051Y-117567816D01*
X87851557Y-117378412D01*
X87917246Y-117176243D01*
X87928543Y-117104920D01*
X97005974Y-117104920D01*
X97005974Y-117104921D01*
X97329999Y-117428946D01*
X97893946Y-116865000D01*
X97893946Y-116864999D01*
X97864110Y-116835163D01*
X98097500Y-116835163D01*
X98097500Y-116894837D01*
X98120336Y-116949968D01*
X98162532Y-116992164D01*
X98217663Y-117015000D01*
X98277337Y-117015000D01*
X98332468Y-116992164D01*
X98374664Y-116949968D01*
X98397500Y-116894837D01*
X98397500Y-116864999D01*
X98601054Y-116864999D01*
X98719523Y-116983468D01*
X98719523Y-116983469D01*
X99165000Y-117428946D01*
X99728946Y-116865000D01*
X99728946Y-116864999D01*
X99699110Y-116835163D01*
X99932500Y-116835163D01*
X99932500Y-116894837D01*
X99955336Y-116949968D01*
X99997532Y-116992164D01*
X100052663Y-117015000D01*
X100112337Y-117015000D01*
X100167468Y-116992164D01*
X100209664Y-116949968D01*
X100232500Y-116894837D01*
X100232500Y-116864999D01*
X100436054Y-116864999D01*
X100554523Y-116983468D01*
X100554523Y-116983469D01*
X101000000Y-117428946D01*
X101000001Y-117428946D01*
X101324024Y-117104921D01*
X101218767Y-117061322D01*
X101218759Y-117061320D01*
X101073872Y-117032500D01*
X100956500Y-117032500D01*
X100889461Y-117012815D01*
X100843706Y-116960011D01*
X100832500Y-116908500D01*
X100832500Y-116791128D01*
X100832499Y-116791126D01*
X100803679Y-116646240D01*
X100803678Y-116646236D01*
X100760077Y-116540975D01*
X100436054Y-116864999D01*
X100232500Y-116864999D01*
X100232500Y-116835163D01*
X100209664Y-116780032D01*
X100167468Y-116737836D01*
X100112337Y-116715000D01*
X100052663Y-116715000D01*
X99997532Y-116737836D01*
X99955336Y-116780032D01*
X99932500Y-116835163D01*
X99699110Y-116835163D01*
X99404921Y-116540974D01*
X99404920Y-116540974D01*
X99361323Y-116646228D01*
X99361320Y-116646240D01*
X99332500Y-116791126D01*
X99332500Y-116908500D01*
X99329949Y-116917185D01*
X99331238Y-116926147D01*
X99320259Y-116950187D01*
X99312815Y-116975539D01*
X99305974Y-116981466D01*
X99302213Y-116989703D01*
X99279978Y-117003992D01*
X99260011Y-117021294D01*
X99249496Y-117023581D01*
X99243435Y-117027477D01*
X99208500Y-117032500D01*
X99121500Y-117032500D01*
X99054461Y-117012815D01*
X99008706Y-116960011D01*
X98997500Y-116908500D01*
X98997500Y-116791128D01*
X98997499Y-116791126D01*
X98968679Y-116646240D01*
X98968678Y-116646236D01*
X98925077Y-116540975D01*
X98601054Y-116864999D01*
X98397500Y-116864999D01*
X98397500Y-116835163D01*
X98374664Y-116780032D01*
X98332468Y-116737836D01*
X98277337Y-116715000D01*
X98217663Y-116715000D01*
X98162532Y-116737836D01*
X98120336Y-116780032D01*
X98097500Y-116835163D01*
X97864110Y-116835163D01*
X97569921Y-116540974D01*
X97569920Y-116540974D01*
X97526323Y-116646228D01*
X97526320Y-116646240D01*
X97497500Y-116791126D01*
X97497500Y-116908500D01*
X97477815Y-116975539D01*
X97425011Y-117021294D01*
X97373500Y-117032500D01*
X97256128Y-117032500D01*
X97111240Y-117061320D01*
X97111228Y-117061323D01*
X97005974Y-117104920D01*
X87928543Y-117104920D01*
X87950500Y-116966287D01*
X87950500Y-116753713D01*
X87917246Y-116543757D01*
X87851557Y-116341588D01*
X87773005Y-116187420D01*
X97923474Y-116187420D01*
X97923474Y-116187421D01*
X98247500Y-116511446D01*
X98247501Y-116511446D01*
X98571524Y-116187421D01*
X98571522Y-116187420D01*
X99758474Y-116187420D01*
X99758474Y-116187421D01*
X100082500Y-116511446D01*
X100082501Y-116511446D01*
X100406524Y-116187421D01*
X100301267Y-116143822D01*
X100301259Y-116143820D01*
X100156372Y-116115000D01*
X100008628Y-116115000D01*
X99863740Y-116143820D01*
X99863728Y-116143823D01*
X99758474Y-116187420D01*
X98571522Y-116187420D01*
X98466267Y-116143822D01*
X98466259Y-116143820D01*
X98321372Y-116115000D01*
X98173628Y-116115000D01*
X98028740Y-116143820D01*
X98028728Y-116143823D01*
X97923474Y-116187420D01*
X87773005Y-116187420D01*
X87755051Y-116152184D01*
X87755049Y-116152181D01*
X87755048Y-116152179D01*
X87630109Y-115980213D01*
X87479786Y-115829890D01*
X87307820Y-115704951D01*
X87307115Y-115704591D01*
X87299054Y-115700485D01*
X87248259Y-115652512D01*
X87231463Y-115584692D01*
X87253999Y-115518556D01*
X87299054Y-115479515D01*
X87307816Y-115475051D01*
X87373277Y-115427491D01*
X87479786Y-115350109D01*
X87479788Y-115350106D01*
X87479792Y-115350104D01*
X87630104Y-115199792D01*
X87630106Y-115199788D01*
X87630109Y-115199786D01*
X87755048Y-115027820D01*
X87755047Y-115027820D01*
X87755051Y-115027816D01*
X87851557Y-114838412D01*
X87917246Y-114636243D01*
X87950500Y-114426287D01*
X87950500Y-114213713D01*
X87917246Y-114003757D01*
X87851557Y-113801588D01*
X87755051Y-113612184D01*
X87755049Y-113612181D01*
X87755048Y-113612179D01*
X87630109Y-113440213D01*
X87516569Y-113326673D01*
X87483084Y-113265350D01*
X87488068Y-113195658D01*
X87529940Y-113139725D01*
X87560915Y-113122810D01*
X87692331Y-113073796D01*
X87807546Y-112987546D01*
X87893796Y-112872331D01*
X87944091Y-112737483D01*
X87950500Y-112677873D01*
X87950500Y-112421153D01*
X92399500Y-112421153D01*
X92399500Y-112578846D01*
X92430261Y-112733489D01*
X92430264Y-112733501D01*
X92490602Y-112879172D01*
X92490609Y-112879185D01*
X92578210Y-113010288D01*
X92578213Y-113010292D01*
X92689707Y-113121786D01*
X92689711Y-113121789D01*
X92820814Y-113209390D01*
X92820827Y-113209397D01*
X92955912Y-113265350D01*
X92966503Y-113269737D01*
X93110691Y-113298418D01*
X93121153Y-113300499D01*
X93121156Y-113300500D01*
X93121158Y-113300500D01*
X93278843Y-113300500D01*
X93299203Y-113296449D01*
X93399234Y-113276552D01*
X93468823Y-113282779D01*
X93524001Y-113325641D01*
X93547246Y-113391531D01*
X93531179Y-113459528D01*
X93526527Y-113467058D01*
X93490611Y-113520811D01*
X93490602Y-113520827D01*
X93430264Y-113666498D01*
X93430261Y-113666510D01*
X93399500Y-113821153D01*
X93399500Y-113978846D01*
X93430261Y-114133489D01*
X93430264Y-114133501D01*
X93490602Y-114279172D01*
X93490609Y-114279185D01*
X93578210Y-114410288D01*
X93578213Y-114410292D01*
X93689707Y-114521786D01*
X93689711Y-114521789D01*
X93820814Y-114609390D01*
X93820827Y-114609397D01*
X93966498Y-114669735D01*
X93966503Y-114669737D01*
X94121153Y-114700499D01*
X94121156Y-114700500D01*
X94121158Y-114700500D01*
X94278844Y-114700500D01*
X94278845Y-114700499D01*
X94433497Y-114669737D01*
X94579179Y-114609394D01*
X94710289Y-114521789D01*
X94821789Y-114410289D01*
X94909394Y-114279179D01*
X94969737Y-114133497D01*
X95000500Y-113978842D01*
X95000500Y-113821158D01*
X95000500Y-113821155D01*
X95000499Y-113821153D01*
X94969738Y-113666510D01*
X94969737Y-113666503D01*
X94947238Y-113612184D01*
X94909397Y-113520827D01*
X94909390Y-113520814D01*
X94821789Y-113389711D01*
X94821786Y-113389707D01*
X94710292Y-113278213D01*
X94710288Y-113278210D01*
X94579185Y-113190609D01*
X94579172Y-113190602D01*
X94433501Y-113130264D01*
X94433489Y-113130261D01*
X94278845Y-113099500D01*
X94278842Y-113099500D01*
X94121158Y-113099500D01*
X94121155Y-113099500D01*
X94000766Y-113123447D01*
X93931175Y-113117220D01*
X93875997Y-113074357D01*
X93852753Y-113008467D01*
X93868821Y-112940470D01*
X93873473Y-112932939D01*
X93909390Y-112879185D01*
X93909390Y-112879184D01*
X93909394Y-112879179D01*
X93969737Y-112733497D01*
X94000500Y-112578842D01*
X94000500Y-112421158D01*
X94000500Y-112421155D01*
X94000499Y-112421153D01*
X93969738Y-112266510D01*
X93969737Y-112266503D01*
X93933907Y-112180000D01*
X93909397Y-112120827D01*
X93909390Y-112120814D01*
X93821789Y-111989711D01*
X93821786Y-111989707D01*
X93710292Y-111878213D01*
X93710288Y-111878210D01*
X93579185Y-111790609D01*
X93579172Y-111790602D01*
X93433501Y-111730264D01*
X93433489Y-111730261D01*
X93278845Y-111699500D01*
X93278842Y-111699500D01*
X93121158Y-111699500D01*
X93121155Y-111699500D01*
X92966510Y-111730261D01*
X92966498Y-111730264D01*
X92820827Y-111790602D01*
X92820814Y-111790609D01*
X92689711Y-111878210D01*
X92689707Y-111878213D01*
X92578213Y-111989707D01*
X92578210Y-111989711D01*
X92490609Y-112120814D01*
X92490602Y-112120827D01*
X92430264Y-112266498D01*
X92430261Y-112266510D01*
X92399500Y-112421153D01*
X87950500Y-112421153D01*
X87950499Y-111745826D01*
X87950499Y-110882129D01*
X87950498Y-110882123D01*
X87944091Y-110822516D01*
X87893797Y-110687671D01*
X87893793Y-110687664D01*
X87842123Y-110618643D01*
X87807546Y-110572454D01*
X87742507Y-110523765D01*
X87700637Y-110467833D01*
X87695653Y-110398141D01*
X87729138Y-110336818D01*
X87790462Y-110303334D01*
X87816819Y-110300500D01*
X90865890Y-110300500D01*
X90865892Y-110300500D01*
X90993186Y-110266392D01*
X91107314Y-110200500D01*
X91200500Y-110107314D01*
X91220889Y-110072000D01*
X91271456Y-110023784D01*
X91328276Y-110010000D01*
X109071724Y-110010000D01*
X109138763Y-110029685D01*
G37*
%TD.AperFunction*%
%TA.AperFunction,Conductor*%
G36*
X86134075Y-144992993D02*
G01*
X86199901Y-145107007D01*
X86292993Y-145200099D01*
X86407007Y-145265925D01*
X86470590Y-145282962D01*
X85838282Y-145915269D01*
X85838282Y-145915270D01*
X85892452Y-145954626D01*
X85892451Y-145954626D01*
X85901495Y-145959234D01*
X85952292Y-146007208D01*
X85969087Y-146075029D01*
X85946550Y-146141164D01*
X85901499Y-146180202D01*
X85892182Y-146184949D01*
X85720213Y-146309890D01*
X85569890Y-146460213D01*
X85444951Y-146632179D01*
X85348445Y-146821582D01*
X85348443Y-146821587D01*
X85348443Y-146821588D01*
X85342429Y-146840094D01*
X85302992Y-146897768D01*
X85238633Y-146924965D01*
X85169787Y-146913050D01*
X85118312Y-146865805D01*
X85100500Y-146801773D01*
X85100500Y-145336611D01*
X85120185Y-145269572D01*
X85172989Y-145223817D01*
X85242147Y-145213873D01*
X85305703Y-145242898D01*
X85342432Y-145298294D01*
X85348906Y-145318221D01*
X85445375Y-145507550D01*
X85484728Y-145561716D01*
X86117037Y-144929408D01*
X86134075Y-144992993D01*
G37*
%TD.AperFunction*%
%TA.AperFunction,Conductor*%
G36*
X85305703Y-142704513D02*
G01*
X85342430Y-142759906D01*
X85348318Y-142778028D01*
X85348444Y-142778414D01*
X85444951Y-142967820D01*
X85569890Y-143139786D01*
X85720213Y-143290109D01*
X85892179Y-143415048D01*
X85892181Y-143415049D01*
X85892184Y-143415051D01*
X85901493Y-143419794D01*
X85952290Y-143467766D01*
X85969087Y-143535587D01*
X85946552Y-143601722D01*
X85901505Y-143640760D01*
X85892446Y-143645376D01*
X85892440Y-143645380D01*
X85838282Y-143684727D01*
X85838282Y-143684728D01*
X86470591Y-144317037D01*
X86407007Y-144334075D01*
X86292993Y-144399901D01*
X86199901Y-144492993D01*
X86134075Y-144607007D01*
X86117037Y-144670591D01*
X85484728Y-144038282D01*
X85484727Y-144038282D01*
X85445380Y-144092439D01*
X85348904Y-144281782D01*
X85342431Y-144301706D01*
X85302994Y-144359381D01*
X85238635Y-144386580D01*
X85169789Y-144374665D01*
X85118313Y-144327421D01*
X85100500Y-144263388D01*
X85100500Y-142798226D01*
X85120185Y-142731187D01*
X85172989Y-142685432D01*
X85242147Y-142675488D01*
X85305703Y-142704513D01*
G37*
%TD.AperFunction*%
%TA.AperFunction,Conductor*%
G36*
X114715270Y-127681717D02*
G01*
X114715270Y-127681716D01*
X114754624Y-127627552D01*
X114765015Y-127607159D01*
X114812989Y-127556362D01*
X114880810Y-127539567D01*
X114946945Y-127562104D01*
X114990397Y-127616819D01*
X114999500Y-127663453D01*
X114999500Y-128715444D01*
X114979815Y-128782483D01*
X114927011Y-128828238D01*
X114857853Y-128838182D01*
X114794297Y-128809157D01*
X114765016Y-128771740D01*
X114755050Y-128752182D01*
X114630109Y-128580213D01*
X114479786Y-128429890D01*
X114307817Y-128304949D01*
X114298504Y-128300204D01*
X114247707Y-128252230D01*
X114230912Y-128184409D01*
X114253449Y-128118274D01*
X114298507Y-128079232D01*
X114307555Y-128074622D01*
X114361716Y-128035270D01*
X114361717Y-128035270D01*
X113729408Y-127402962D01*
X113792993Y-127385925D01*
X113907007Y-127320099D01*
X114000099Y-127227007D01*
X114065925Y-127112993D01*
X114082962Y-127049409D01*
X114715270Y-127681717D01*
G37*
%TD.AperFunction*%
%TA.AperFunction,Conductor*%
G36*
X114946945Y-125023206D02*
G01*
X114990397Y-125077921D01*
X114999500Y-125124555D01*
X114999500Y-126176546D01*
X114979815Y-126243585D01*
X114927011Y-126289340D01*
X114857853Y-126299284D01*
X114794297Y-126270259D01*
X114765016Y-126232842D01*
X114754626Y-126212452D01*
X114715270Y-126158282D01*
X114715269Y-126158282D01*
X114082962Y-126790590D01*
X114065925Y-126727007D01*
X114000099Y-126612993D01*
X113907007Y-126519901D01*
X113792993Y-126454075D01*
X113729409Y-126437037D01*
X114361716Y-125804728D01*
X114307547Y-125765373D01*
X114307547Y-125765372D01*
X114298500Y-125760763D01*
X114247706Y-125712788D01*
X114230912Y-125644966D01*
X114253451Y-125578832D01*
X114298508Y-125539793D01*
X114307816Y-125535051D01*
X114447589Y-125433501D01*
X114479786Y-125410109D01*
X114479788Y-125410106D01*
X114479792Y-125410104D01*
X114630104Y-125259792D01*
X114630106Y-125259788D01*
X114630109Y-125259786D01*
X114755050Y-125087817D01*
X114765015Y-125068261D01*
X114812989Y-125017464D01*
X114880810Y-125000669D01*
X114946945Y-125023206D01*
G37*
%TD.AperFunction*%
%TD*%
M02*
