%TF.GenerationSoftware,KiCad,Pcbnew,10.0.3*%
%TF.CreationDate,2026-06-28T18:01:10+05:30*%
%TF.ProjectId,ESP32 DevKit,45535033-3220-4446-9576-4b69742e6b69,rev?*%
%TF.SameCoordinates,Original*%
%TF.FileFunction,Copper,L4,Bot*%
%TF.FilePolarity,Positive*%
%FSLAX46Y46*%
G04 Gerber Fmt 4.6, Leading zero omitted, Abs format (unit mm)*
G04 Created by KiCad (PCBNEW 10.0.3) date 2026-06-28 18:01:10*
%MOMM*%
%LPD*%
G01*
G04 APERTURE LIST*
G04 Aperture macros list*
%AMRoundRect*
0 Rectangle with rounded corners*
0 $1 Rounding radius*
0 $2 $3 $4 $5 $6 $7 $8 $9 X,Y pos of 4 corners*
0 Add a 4 corners polygon primitive as box body*
4,1,4,$2,$3,$4,$5,$6,$7,$8,$9,$2,$3,0*
0 Add four circle primitives for the rounded corners*
1,1,$1+$1,$2,$3*
1,1,$1+$1,$4,$5*
1,1,$1+$1,$6,$7*
1,1,$1+$1,$8,$9*
0 Add four rect primitives between the rounded corners*
20,1,$1+$1,$2,$3,$4,$5,0*
20,1,$1+$1,$4,$5,$6,$7,0*
20,1,$1+$1,$6,$7,$8,$9,0*
20,1,$1+$1,$8,$9,$2,$3,0*%
G04 Aperture macros list end*
%TA.AperFunction,ComponentPad*%
%ADD10O,1.050000X1.900000*%
%TD*%
%TA.AperFunction,ComponentPad*%
%ADD11C,0.500000*%
%TD*%
%TA.AperFunction,ComponentPad*%
%ADD12R,1.700000X1.700000*%
%TD*%
%TA.AperFunction,ComponentPad*%
%ADD13C,1.700000*%
%TD*%
%TA.AperFunction,SMDPad,CuDef*%
%ADD14RoundRect,0.250000X-0.250000X-0.475000X0.250000X-0.475000X0.250000X0.475000X-0.250000X0.475000X0*%
%TD*%
%TA.AperFunction,SMDPad,CuDef*%
%ADD15RoundRect,0.225000X-0.225000X-0.250000X0.225000X-0.250000X0.225000X0.250000X-0.225000X0.250000X0*%
%TD*%
%TA.AperFunction,SMDPad,CuDef*%
%ADD16RoundRect,0.225000X-0.250000X0.225000X-0.250000X-0.225000X0.250000X-0.225000X0.250000X0.225000X0*%
%TD*%
%TA.AperFunction,SMDPad,CuDef*%
%ADD17RoundRect,0.200000X0.275000X-0.200000X0.275000X0.200000X-0.275000X0.200000X-0.275000X-0.200000X0*%
%TD*%
%TA.AperFunction,SMDPad,CuDef*%
%ADD18RoundRect,0.150000X0.150000X0.200000X-0.150000X0.200000X-0.150000X-0.200000X0.150000X-0.200000X0*%
%TD*%
%TA.AperFunction,SMDPad,CuDef*%
%ADD19RoundRect,0.250000X0.250000X0.475000X-0.250000X0.475000X-0.250000X-0.475000X0.250000X-0.475000X0*%
%TD*%
%TA.AperFunction,SMDPad,CuDef*%
%ADD20RoundRect,0.200000X0.200000X0.275000X-0.200000X0.275000X-0.200000X-0.275000X0.200000X-0.275000X0*%
%TD*%
%TA.AperFunction,SMDPad,CuDef*%
%ADD21RoundRect,0.112500X-0.187500X-0.112500X0.187500X-0.112500X0.187500X0.112500X-0.187500X0.112500X0*%
%TD*%
%TA.AperFunction,SMDPad,CuDef*%
%ADD22RoundRect,0.150000X-0.150000X-0.200000X0.150000X-0.200000X0.150000X0.200000X-0.150000X0.200000X0*%
%TD*%
%TA.AperFunction,SMDPad,CuDef*%
%ADD23RoundRect,0.067500X0.437500X0.067500X-0.437500X0.067500X-0.437500X-0.067500X0.437500X-0.067500X0*%
%TD*%
%TA.AperFunction,SMDPad,CuDef*%
%ADD24RoundRect,0.067500X0.067500X0.437500X-0.067500X0.437500X-0.067500X-0.437500X0.067500X-0.437500X0*%
%TD*%
%TA.AperFunction,SMDPad,CuDef*%
%ADD25R,3.250000X3.250000*%
%TD*%
%TA.AperFunction,SMDPad,CuDef*%
%ADD26RoundRect,0.200000X-0.275000X0.200000X-0.275000X-0.200000X0.275000X-0.200000X0.275000X0.200000X0*%
%TD*%
%TA.AperFunction,SMDPad,CuDef*%
%ADD27RoundRect,0.250000X-0.475000X0.250000X-0.475000X-0.250000X0.475000X-0.250000X0.475000X0.250000X0*%
%TD*%
%TA.AperFunction,SMDPad,CuDef*%
%ADD28RoundRect,0.375000X0.625000X0.375000X-0.625000X0.375000X-0.625000X-0.375000X0.625000X-0.375000X0*%
%TD*%
%TA.AperFunction,SMDPad,CuDef*%
%ADD29RoundRect,0.500000X0.500000X1.400000X-0.500000X1.400000X-0.500000X-1.400000X0.500000X-1.400000X0*%
%TD*%
%TA.AperFunction,ViaPad*%
%ADD30C,0.600000*%
%TD*%
%TA.AperFunction,Conductor*%
%ADD31C,0.200000*%
%TD*%
G04 APERTURE END LIST*
D10*
%TO.P,J1,SH,Shield_SH*%
%TO.N,GND*%
X96429224Y-158650000D03*
X103579224Y-158650000D03*
%TD*%
D11*
%TO.P,MOD1,39_10,GND_39_10*%
%TO.N,GND*%
X98247500Y-116865000D03*
%TO.P,MOD1,39_11,GND_39_11*%
X100082500Y-116865000D03*
%TO.P,MOD1,39_12,GND_39_12*%
X97330000Y-117782500D03*
%TO.P,MOD1,39_13,GND_39_13*%
X99165000Y-117782500D03*
%TO.P,MOD1,39_14,GND_39_14*%
X101000000Y-117782500D03*
%TO.P,MOD1,39_15,GND_39_15*%
X98247500Y-118700000D03*
%TO.P,MOD1,39_16,GND_39_16*%
X100082500Y-118700000D03*
%TO.P,MOD1,39_17,GND_39_17*%
X97330000Y-119617500D03*
%TO.P,MOD1,39_18,GND_39_18*%
X99165000Y-119617500D03*
%TO.P,MOD1,39_19,GND_39_19*%
X101000000Y-119617500D03*
%TO.P,MOD1,39_20,GND_39_20*%
X98247500Y-120535000D03*
%TO.P,MOD1,39_21,GND_39_21*%
X100082500Y-120535000D03*
%TD*%
D12*
%TO.P,J2,1,Pin_1_1*%
%TO.N,/VDD33*%
X86600000Y-111780000D03*
D13*
%TO.P,J2,2,Pin_2_2*%
%TO.N,/EN*%
X86600000Y-114320000D03*
%TO.P,J2,3,Pin_3_3*%
%TO.N,/SENSOR_VP*%
X86600000Y-116860000D03*
%TO.P,J2,4,Pin_4_4*%
%TO.N,/SENSOR_VN*%
X86600000Y-119400000D03*
%TO.P,J2,5,Pin_5_5*%
%TO.N,/IO34*%
X86600000Y-121940000D03*
%TO.P,J2,6,Pin_6_6*%
%TO.N,/IO35*%
X86600000Y-124480000D03*
%TO.P,J2,7,Pin_7_7*%
%TO.N,/IO32*%
X86600000Y-127020000D03*
%TO.P,J2,8,Pin_8_8*%
%TO.N,/IO33*%
X86600000Y-129560000D03*
%TO.P,J2,9,Pin_9_9*%
%TO.N,/IO25*%
X86600000Y-132100000D03*
%TO.P,J2,10,Pin_10_10*%
%TO.N,/IO26*%
X86600000Y-134640000D03*
%TO.P,J2,11,Pin_11_11*%
%TO.N,/IO27*%
X86600000Y-137180000D03*
%TO.P,J2,12,Pin_12_12*%
%TO.N,/IO14*%
X86600000Y-139720000D03*
%TO.P,J2,13,Pin_13_13*%
%TO.N,/IO12*%
X86600000Y-142260000D03*
%TO.P,J2,14,Pin_14_14*%
%TO.N,GND*%
X86600000Y-144800000D03*
%TO.P,J2,15,Pin_15_15*%
%TO.N,/IO13*%
X86600000Y-147340000D03*
%TO.P,J2,16,Pin_16_16*%
%TO.N,/SD2*%
X86600000Y-149880000D03*
%TO.P,J2,17,Pin_17_17*%
%TO.N,/SD3*%
X86600000Y-152420000D03*
%TO.P,J2,18,Pin_18_18*%
%TO.N,/CMD*%
X86600000Y-154960000D03*
%TO.P,J2,19,Pin_19_19*%
%TO.N,/EXT_5V*%
X86600000Y-157500000D03*
%TD*%
D12*
%TO.P,J3,1,Pin_1_1*%
%TO.N,GND*%
X113600000Y-111680000D03*
D13*
%TO.P,J3,2,Pin_2_2*%
%TO.N,/IO23*%
X113600000Y-114220000D03*
%TO.P,J3,3,Pin_3_3*%
%TO.N,/IO22*%
X113600000Y-116760000D03*
%TO.P,J3,4,Pin_4_4*%
%TO.N,/TXD0*%
X113600000Y-119300000D03*
%TO.P,J3,5,Pin_5_5*%
%TO.N,/RXD0*%
X113600000Y-121840000D03*
%TO.P,J3,6,Pin_6_6*%
%TO.N,/IO21*%
X113600000Y-124380000D03*
%TO.P,J3,7,Pin_7_7*%
%TO.N,GND*%
X113600000Y-126920000D03*
%TO.P,J3,8,Pin_8_8*%
%TO.N,/IO19*%
X113600000Y-129460000D03*
%TO.P,J3,9,Pin_9_9*%
%TO.N,/IO18*%
X113600000Y-132000000D03*
%TO.P,J3,10,Pin_10_10*%
%TO.N,/IO5*%
X113600000Y-134540000D03*
%TO.P,J3,11,Pin_11_11*%
%TO.N,/IO17*%
X113600000Y-137080000D03*
%TO.P,J3,12,Pin_12_12*%
%TO.N,/IO16*%
X113600000Y-139620000D03*
%TO.P,J3,13,Pin_13_13*%
%TO.N,/IO4*%
X113600000Y-142160000D03*
%TO.P,J3,14,Pin_14_14*%
%TO.N,/IO0*%
X113600000Y-144700000D03*
%TO.P,J3,15,Pin_15_15*%
%TO.N,/IO2*%
X113600000Y-147240000D03*
%TO.P,J3,16,Pin_16_16*%
%TO.N,/IO15*%
X113600000Y-149780000D03*
%TO.P,J3,17,Pin_17_17*%
%TO.N,/SD1*%
X113600000Y-152320000D03*
%TO.P,J3,18,Pin_18_18*%
%TO.N,/SD0*%
X113600000Y-154860000D03*
%TO.P,J3,19,Pin_19_19*%
%TO.N,/CLK*%
X113600000Y-157400000D03*
%TD*%
D14*
%TO.P,C20,1*%
%TO.N,/VDD33*%
X105000000Y-146600000D03*
%TO.P,C20,2*%
%TO.N,GND*%
X106900000Y-146600000D03*
%TD*%
D15*
%TO.P,C19,1*%
%TO.N,/VDD33*%
X105200000Y-148600000D03*
%TO.P,C19,2*%
%TO.N,GND*%
X106750000Y-148600000D03*
%TD*%
D16*
%TO.P,C22,1*%
%TO.N,Net-(MOD1-3V3)*%
X101300000Y-112450000D03*
%TO.P,C22,2*%
%TO.N,GND*%
X101300000Y-114000000D03*
%TD*%
D17*
%TO.P,R23,1*%
%TO.N,Net-(U1-~{SUSPENDB})*%
X96300000Y-148850000D03*
%TO.P,R23,2*%
%TO.N,GND*%
X96300000Y-147200000D03*
%TD*%
D18*
%TO.P,D6,1,A1_1*%
%TO.N,GND*%
X94800000Y-156400000D03*
%TO.P,D6,2,A2_2*%
%TO.N,/VBUS*%
X96200000Y-156400000D03*
%TD*%
D19*
%TO.P,C3,1*%
%TO.N,/VDD33*%
X92550000Y-131300000D03*
%TO.P,C3,2*%
%TO.N,GND*%
X90650000Y-131300000D03*
%TD*%
D16*
%TO.P,C9,1*%
%TO.N,/EN*%
X91800000Y-120635000D03*
%TO.P,C9,2*%
%TO.N,GND*%
X91800000Y-122185000D03*
%TD*%
D20*
%TO.P,R27,1*%
%TO.N,/VDD33*%
X103250000Y-148600000D03*
%TO.P,R27,2*%
%TO.N,Net-(U1-~{RST})*%
X101600000Y-148600000D03*
%TD*%
D21*
%TO.P,D3,1,K_1*%
%TO.N,/EXT_5V*%
X90700000Y-156400000D03*
%TO.P,D3,2,A_2*%
%TO.N,/VBUS*%
X92800000Y-156400000D03*
%TD*%
D22*
%TO.P,D5,1,A1_1*%
%TO.N,GND*%
X105300000Y-156100000D03*
%TO.P,D5,2,A2_2*%
%TO.N,/USB_DP*%
X103900000Y-156100000D03*
%TD*%
D14*
%TO.P,C1,1*%
%TO.N,/EXT_5V*%
X107500000Y-129700000D03*
%TO.P,C1,2*%
%TO.N,GND*%
X109400000Y-129700000D03*
%TD*%
D23*
%TO.P,U1,1,DCD_1*%
%TO.N,unconnected-(U1-DCD-Pad1)*%
X102307500Y-141500000D03*
%TO.P,U1,2,RI/CLK_2*%
%TO.N,/RI*%
X102307500Y-142000000D03*
%TO.P,U1,3,GND_3*%
%TO.N,GND*%
X102307500Y-142500000D03*
%TO.P,U1,4,D+_4*%
%TO.N,/USB_DP*%
X102307500Y-143000000D03*
%TO.P,U1,5,D-_5*%
%TO.N,/USB_DN*%
X102307500Y-143500000D03*
%TO.P,U1,6,VDD_6*%
%TO.N,/VDD33*%
X102307500Y-144000000D03*
%TO.P,U1,7,VREGIN_7*%
X102307500Y-144500000D03*
D24*
%TO.P,U1,8,VBUS_8*%
%TO.N,Net-(U1-VBUS)*%
X101447500Y-145360000D03*
%TO.P,U1,9,~{RST}_9*%
%TO.N,Net-(U1-~{RST})*%
X100947500Y-145360000D03*
%TO.P,U1,10,NC_10*%
%TO.N,unconnected-(U1-NC-Pad10)*%
X100447500Y-145360000D03*
%TO.P,U1,11,~{SUSPENDB}_11*%
%TO.N,Net-(U1-~{SUSPENDB})*%
X99947500Y-145360000D03*
%TO.P,U1,12,SUSPEND_12*%
%TO.N,unconnected-(U1-SUSPEND-Pad12)*%
X99447500Y-145360000D03*
%TO.P,U1,13,CHREN_13*%
%TO.N,unconnected-(U1-CHREN-Pad13)*%
X98947500Y-145360000D03*
%TO.P,U1,14,CHR1_14*%
%TO.N,unconnected-(U1-CHR1-Pad14)*%
X98447500Y-145360000D03*
D23*
%TO.P,U1,15,CHR0_15*%
%TO.N,unconnected-(U1-CHR0-Pad15)*%
X97587500Y-144500000D03*
%TO.P,U1,16,GPIO.3/WAKEUP_16*%
%TO.N,unconnected-(U1-GPIO.3{slash}WAKEUP-Pad16)*%
X97587500Y-144000000D03*
%TO.P,U1,17,GPIO.2/RS485_17*%
%TO.N,unconnected-(U1-GPIO.2{slash}RS485-Pad17)*%
X97587500Y-143500000D03*
%TO.P,U1,18,GPIO.1/RXT_18*%
%TO.N,unconnected-(U1-GPIO.1{slash}RXT-Pad18)*%
X97587500Y-143000000D03*
%TO.P,U1,19,GPIO.0/TXT_19*%
%TO.N,unconnected-(U1-GPIO.0{slash}TXT-Pad19)*%
X97587500Y-142500000D03*
%TO.P,U1,20,GPIO.6_20*%
%TO.N,unconnected-(U1-GPIO.6-Pad20)*%
X97587500Y-142000000D03*
%TO.P,U1,21,GPIO.5_21*%
%TO.N,unconnected-(U1-GPIO.5-Pad21)*%
X97587500Y-141500000D03*
D24*
%TO.P,U1,22,GPIO.4_22*%
%TO.N,unconnected-(U1-GPIO.4-Pad22)*%
X98447500Y-140640000D03*
%TO.P,U1,23,CTS_23*%
%TO.N,unconnected-(U1-CTS-Pad23)*%
X98947500Y-140640000D03*
%TO.P,U1,24,RTS_24*%
%TO.N,/RTS*%
X99447500Y-140640000D03*
%TO.P,U1,25,RXD_25*%
%TO.N,/RXD*%
X99947500Y-140640000D03*
%TO.P,U1,26,TXD_26*%
%TO.N,/TXD*%
X100447500Y-140640000D03*
%TO.P,U1,27,DSR_27*%
%TO.N,unconnected-(U1-DSR-Pad27)*%
X100947500Y-140640000D03*
%TO.P,U1,28,DTR_28*%
%TO.N,/DTR*%
X101447500Y-140640000D03*
D25*
%TO.P,U1,29,GND_29*%
%TO.N,GND*%
X99947500Y-143000000D03*
%TD*%
D20*
%TO.P,R2,1*%
%TO.N,/EXT_5V*%
X103800000Y-132500000D03*
%TO.P,R2,2*%
%TO.N,Net-(D1-A)*%
X102150000Y-132500000D03*
%TD*%
D26*
%TO.P,R11,1*%
%TO.N,/VDD33*%
X91800000Y-116575000D03*
%TO.P,R11,2*%
%TO.N,/EN*%
X91800000Y-118225000D03*
%TD*%
D27*
%TO.P,C21,1*%
%TO.N,Net-(MOD1-3V3)*%
X98500000Y-112400000D03*
%TO.P,C21,2*%
%TO.N,GND*%
X98500000Y-114300000D03*
%TD*%
D22*
%TO.P,D4,1,A1_1*%
%TO.N,GND*%
X108900000Y-156000000D03*
%TO.P,D4,2,A2_2*%
%TO.N,/USB_DN*%
X107500000Y-156000000D03*
%TD*%
D28*
%TO.P,U2,1,GND_1*%
%TO.N,GND*%
X103200000Y-124700000D03*
%TO.P,U2,2,VO_2*%
%TO.N,/VDD33*%
X103200000Y-127000000D03*
D29*
X96900000Y-127000000D03*
D28*
%TO.P,U2,3,VI_3*%
%TO.N,/EXT_5V*%
X103200000Y-129300000D03*
%TD*%
D30*
%TO.N,Net-(Q2-Pad1)*%
X108300000Y-140600000D03*
X108549263Y-138600735D03*
%TO.N,/IO0*%
X109399265Y-138000735D03*
X105331911Y-142068089D03*
X106600000Y-139600000D03*
X108400000Y-147100000D03*
X109100000Y-133600000D03*
X104500000Y-139600000D03*
X99975735Y-149175735D03*
X108400000Y-152100000D03*
X102300000Y-152300000D03*
%TO.N,/DTR*%
X99200000Y-134100000D03*
X102200000Y-140600000D03*
X100600000Y-137500000D03*
X105900000Y-135900000D03*
X95400000Y-138500000D03*
X97300000Y-136600000D03*
%TO.N,/VBUS*%
X96300000Y-155000000D03*
%TO.N,/RTS*%
X93800000Y-139100000D03*
X102650000Y-139250000D03*
%TO.N,/USB_DN*%
X99300000Y-154000000D03*
%TO.N,/USB_DP*%
X110100000Y-158600000D03*
X100000000Y-154600000D03*
%TO.N,GND*%
X90800000Y-129500000D03*
X107800000Y-149100000D03*
X103100000Y-140200000D03*
X95000000Y-154800000D03*
%TO.N,/VDD33*%
X103600000Y-144100000D03*
X104400000Y-142200000D03*
%TO.N,/EN*%
X99500000Y-131100000D03*
X96600000Y-133800000D03*
X96614152Y-135925730D03*
X94200000Y-113900000D03*
X99600000Y-126400000D03*
%TO.N,/IO27*%
X93400000Y-125200000D03*
%TO.N,/IO14*%
X93400000Y-126400000D03*
%TO.N,/IO12*%
X89400000Y-127900000D03*
%TO.N,/IO13*%
X89800000Y-132900000D03*
%TO.N,/SD2*%
X90400000Y-133465687D03*
%TO.N,/SD3*%
X91300000Y-133500000D03*
%TO.N,/CMD*%
X92000000Y-133900000D03*
%TO.N,Net-(MOD1-3V3)*%
X93200000Y-112500000D03*
%TO.N,/SD0*%
X107991302Y-136914496D03*
X109400000Y-139300000D03*
%TO.N,/SD1*%
X105600000Y-133700000D03*
%TO.N,/IO15*%
X107000000Y-133500000D03*
%TO.N,/IO2*%
X108330778Y-133380222D03*
%TO.N,/RXD0*%
X101300000Y-135500000D03*
%TO.N,/TXD0*%
X102400000Y-134200000D03*
%TO.N,Net-(D1-A)*%
X100800000Y-133800000D03*
%TO.N,/RXD*%
X99600000Y-139100000D03*
%TO.N,Net-(U1-VBUS)*%
X103487500Y-147400000D03*
%TO.N,/TXD*%
X101000000Y-139000000D03*
%TD*%
%TO.N,Net-(Q2-Pad1)*%
D31*
X108300000Y-140600000D02*
X108300000Y-138849998D01*
X108300000Y-138849998D02*
X108549263Y-138600735D01*
%TO.N,/IO0*%
X99975735Y-149175735D02*
X99975735Y-149975735D01*
X106600000Y-139600000D02*
X108199265Y-138000735D01*
X105331911Y-142068089D02*
X105331911Y-140431911D01*
X108400000Y-152100000D02*
X108400000Y-147100000D01*
X99975735Y-149975735D02*
X102300000Y-152300000D01*
X113600000Y-144700000D02*
X112400000Y-143500000D01*
X112400000Y-133600000D02*
X109100000Y-133600000D01*
X108199265Y-138000735D02*
X109399265Y-138000735D01*
X112400000Y-143500000D02*
X112400000Y-133600000D01*
X105331911Y-140431911D02*
X104500000Y-139600000D01*
%TO.N,/DTR*%
X98200000Y-137500000D02*
X100600000Y-137500000D01*
X101487500Y-140600000D02*
X101447500Y-140640000D01*
X105900000Y-135900000D02*
X104900000Y-134900000D01*
X100000000Y-134900000D02*
X99200000Y-134100000D01*
X97300000Y-136600000D02*
X95400000Y-138500000D01*
X97300000Y-136600000D02*
X98200000Y-137500000D01*
X102200000Y-140600000D02*
X101487500Y-140600000D01*
X104900000Y-134900000D02*
X100000000Y-134900000D01*
%TO.N,/EXT_5V*%
X91750000Y-132009744D02*
X91750000Y-130590256D01*
X91025000Y-121083696D02*
X91025000Y-119418654D01*
X91025000Y-119418654D02*
X87076346Y-115470000D01*
X87700000Y-156400000D02*
X90700000Y-156400000D01*
X95600000Y-124711304D02*
X92273696Y-121385000D01*
X92273696Y-121385000D02*
X91326304Y-121385000D01*
X87076346Y-115470000D02*
X86123654Y-115470000D01*
X103200000Y-129300000D02*
X107100000Y-129300000D01*
X104500000Y-124045406D02*
X104500000Y-128000000D01*
X91326304Y-121385000D02*
X91025000Y-121083696D01*
X91750000Y-130590256D02*
X95600000Y-126740256D01*
X107100000Y-129300000D02*
X107500000Y-129700000D01*
X93034744Y-133294488D02*
X91750000Y-132009744D01*
X104104594Y-123650000D02*
X104500000Y-124045406D01*
X93034744Y-154065256D02*
X93034744Y-133294488D01*
X86600000Y-157500000D02*
X87700000Y-156400000D01*
X85450000Y-114796346D02*
X85450000Y-110630000D01*
X102350000Y-123650000D02*
X104104594Y-123650000D01*
X89330000Y-110630000D02*
X102350000Y-123650000D01*
X85450000Y-110630000D02*
X89330000Y-110630000D01*
X90700000Y-156400000D02*
X93034744Y-154065256D01*
X103200000Y-131900000D02*
X103800000Y-132500000D01*
X103200000Y-129300000D02*
X103200000Y-131900000D01*
X86123654Y-115470000D02*
X85450000Y-114796346D01*
X95600000Y-126740256D02*
X95600000Y-124711304D01*
X104500000Y-128000000D02*
X103200000Y-129300000D01*
%TO.N,/VBUS*%
X92800000Y-156400000D02*
X93450000Y-155750000D01*
X96200000Y-156400000D02*
X96200000Y-155100000D01*
X95550000Y-155750000D02*
X96200000Y-156400000D01*
X96200000Y-155100000D02*
X96300000Y-155000000D01*
X93450000Y-155750000D02*
X95550000Y-155750000D01*
%TO.N,/RTS*%
X101800000Y-138400000D02*
X99134096Y-138400000D01*
X99134096Y-138400000D02*
X98434096Y-139100000D01*
X102650000Y-139250000D02*
X101800000Y-138400000D01*
X99447500Y-140113404D02*
X98434096Y-139100000D01*
X99447500Y-140640000D02*
X99447500Y-140113404D01*
X98434096Y-139100000D02*
X93800000Y-139100000D01*
%TO.N,/USB_DN*%
X105309744Y-143500000D02*
X106000000Y-144190256D01*
X107500000Y-156000000D02*
X105500000Y-154000000D01*
X106000000Y-154500000D02*
X107500000Y-156000000D01*
X102307500Y-143500000D02*
X105309744Y-143500000D01*
X106000000Y-144190256D02*
X106000000Y-154500000D01*
X105500000Y-154000000D02*
X99300000Y-154000000D01*
%TO.N,/USB_DP*%
X102400000Y-154600000D02*
X100000000Y-154600000D01*
X105600000Y-143000000D02*
X110100000Y-147500000D01*
X103900000Y-156100000D02*
X102400000Y-154600000D01*
X102307500Y-143000000D02*
X105600000Y-143000000D01*
X110100000Y-147500000D02*
X110100000Y-158600000D01*
%TO.N,GND*%
X107800000Y-149100000D02*
X107250000Y-149100000D01*
X102600000Y-123052500D02*
X100082500Y-120535000D01*
X109400000Y-129700000D02*
X109400000Y-128379720D01*
X106900000Y-148450000D02*
X106750000Y-148600000D01*
X102834096Y-142500000D02*
X103112500Y-142221596D01*
X103200000Y-124700000D02*
X102412500Y-124700000D01*
X98500000Y-114300000D02*
X98500000Y-116612500D01*
X91148529Y-129500000D02*
X90800000Y-129500000D01*
X102600000Y-123250000D02*
X102600000Y-123052500D01*
X94000000Y-124385000D02*
X94000000Y-126648529D01*
X108900000Y-156000000D02*
X106250000Y-158650000D01*
X102412500Y-124700000D02*
X98247500Y-120535000D01*
X96429224Y-158650000D02*
X96429224Y-158029224D01*
X98500000Y-116612500D02*
X98247500Y-116865000D01*
X100447500Y-142500000D02*
X99947500Y-143000000D01*
X106750000Y-148600000D02*
X106750000Y-153850000D01*
X102307500Y-142500000D02*
X100447500Y-142500000D01*
X98800000Y-114000000D02*
X98500000Y-114300000D01*
X101300000Y-114000000D02*
X98800000Y-114000000D01*
X103112500Y-142221596D02*
X103112500Y-140212500D01*
X105300000Y-156100000D02*
X105300000Y-156929224D01*
X91800000Y-122185000D02*
X94000000Y-124385000D01*
X105300000Y-156929224D02*
X103579224Y-158650000D01*
X90800000Y-129500000D02*
X90800000Y-131150000D01*
X96429224Y-158029224D02*
X94800000Y-156400000D01*
X94000000Y-126648529D02*
X91148529Y-129500000D01*
X95000000Y-148500000D02*
X95000000Y-154800000D01*
X106250000Y-158650000D02*
X103579224Y-158650000D01*
X102307500Y-142500000D02*
X102834096Y-142500000D01*
X106900000Y-146600000D02*
X106900000Y-148450000D01*
X107250000Y-149100000D02*
X106750000Y-148600000D01*
X106750000Y-153850000D02*
X108900000Y-156000000D01*
X109400000Y-128379720D02*
X104270280Y-123250000D01*
X90800000Y-131150000D02*
X90650000Y-131300000D01*
X104270280Y-123250000D02*
X102600000Y-123250000D01*
X96300000Y-147200000D02*
X95000000Y-148500000D01*
X103112500Y-140212500D02*
X103100000Y-140200000D01*
%TO.N,/VDD33*%
X104400000Y-142200000D02*
X103700000Y-141500000D01*
X96850000Y-127000000D02*
X96900000Y-127000000D01*
X103500000Y-144000000D02*
X103600000Y-144100000D01*
X102900000Y-144500000D02*
X105000000Y-146600000D01*
X105000000Y-148400000D02*
X105200000Y-148600000D01*
X102307500Y-144500000D02*
X102900000Y-144500000D01*
X91800000Y-116575000D02*
X96900000Y-121675000D01*
X98100000Y-125800000D02*
X102000000Y-125800000D01*
X102307500Y-144500000D02*
X102307500Y-144000000D01*
X96900000Y-121675000D02*
X96900000Y-127000000D01*
X102000000Y-125800000D02*
X103200000Y-127000000D01*
X86600000Y-111780000D02*
X87005000Y-111780000D01*
X96900000Y-127000000D02*
X98100000Y-125800000D01*
X92550000Y-131300000D02*
X96850000Y-127000000D01*
X103700000Y-141500000D02*
X103700000Y-139451471D01*
X87005000Y-111780000D02*
X91800000Y-116575000D01*
X105000000Y-146600000D02*
X105000000Y-148400000D01*
X103700000Y-139451471D02*
X96900000Y-132651471D01*
X102307500Y-144000000D02*
X103500000Y-144000000D01*
X96900000Y-132651471D02*
X96900000Y-127000000D01*
X103250000Y-148600000D02*
X105200000Y-148600000D01*
%TO.N,/EN*%
X99500000Y-131100000D02*
X99500000Y-126500000D01*
X99500000Y-126500000D02*
X99600000Y-126400000D01*
X96614152Y-135925730D02*
X96614152Y-133814152D01*
X91800000Y-118225000D02*
X91800000Y-120635000D01*
X86600000Y-114320000D02*
X90505000Y-118225000D01*
X90505000Y-118225000D02*
X91800000Y-118225000D01*
X96614152Y-133814152D02*
X96600000Y-133800000D01*
%TO.N,/IO27*%
X88400000Y-125300000D02*
X93300000Y-125300000D01*
X93300000Y-125300000D02*
X93400000Y-125200000D01*
X88400000Y-135380000D02*
X88400000Y-125300000D01*
X86600000Y-137180000D02*
X88400000Y-135380000D01*
%TO.N,/IO14*%
X86600000Y-139720000D02*
X87900000Y-138420000D01*
X88800000Y-126500000D02*
X93300000Y-126500000D01*
X87900000Y-138420000D02*
X87900000Y-137100000D01*
X93300000Y-126500000D02*
X93400000Y-126400000D01*
X87900000Y-137100000D02*
X88800000Y-136200000D01*
X88800000Y-136200000D02*
X88800000Y-126500000D01*
%TO.N,/IO12*%
X88100000Y-140760000D02*
X88100000Y-139400000D01*
X89200000Y-128100000D02*
X89400000Y-127900000D01*
X88600000Y-137100000D02*
X89200000Y-136500000D01*
X86600000Y-142260000D02*
X88100000Y-140760000D01*
X88100000Y-139400000D02*
X88600000Y-138900000D01*
X88600000Y-138900000D02*
X88600000Y-137100000D01*
X89200000Y-136500000D02*
X89200000Y-128100000D01*
%TO.N,/IO13*%
X88112843Y-141312843D02*
X89800000Y-139625686D01*
X89800000Y-139625686D02*
X89800000Y-132900000D01*
X88112843Y-145827157D02*
X88112843Y-141312843D01*
X86600000Y-147340000D02*
X88112843Y-145827157D01*
%TO.N,/SD2*%
X88700000Y-141600000D02*
X90400000Y-139900000D01*
X88700000Y-147780000D02*
X88700000Y-141600000D01*
X90400000Y-139900000D02*
X90400000Y-133465687D01*
X86600000Y-149880000D02*
X88700000Y-147780000D01*
%TO.N,/SD3*%
X86600000Y-152420000D02*
X88000000Y-151020000D01*
X88000000Y-149600000D02*
X89100000Y-148500000D01*
X89100000Y-148500000D02*
X89100000Y-142900000D01*
X89100000Y-142900000D02*
X91300000Y-140700000D01*
X88000000Y-151020000D02*
X88000000Y-149600000D01*
X91300000Y-140700000D02*
X91300000Y-133500000D01*
%TO.N,/CMD*%
X86600000Y-154960000D02*
X88700000Y-152860000D01*
X89700000Y-143200000D02*
X92000000Y-140900000D01*
X92000000Y-140900000D02*
X92000000Y-133900000D01*
X89700000Y-148900000D02*
X89700000Y-143200000D01*
X88700000Y-152860000D02*
X88700000Y-149900000D01*
X88700000Y-149900000D02*
X89700000Y-148900000D01*
%TO.N,Net-(MOD1-3V3)*%
X93300000Y-112400000D02*
X98500000Y-112400000D01*
X93200000Y-112500000D02*
X93300000Y-112400000D01*
X98500000Y-112400000D02*
X101250000Y-112400000D01*
X101250000Y-112400000D02*
X101300000Y-112450000D01*
%TO.N,/SD0*%
X108376806Y-137300000D02*
X107991302Y-136914496D01*
X109400000Y-139300000D02*
X110000000Y-138700000D01*
X110000000Y-138700000D02*
X110000000Y-137300000D01*
X110000000Y-137300000D02*
X108376806Y-137300000D01*
%TO.N,/SD1*%
X110900000Y-149620000D02*
X110900000Y-136400000D01*
X113600000Y-152320000D02*
X110900000Y-149620000D01*
X110900000Y-136400000D02*
X108300000Y-136400000D01*
X108300000Y-136400000D02*
X105600000Y-133700000D01*
%TO.N,/IO15*%
X111400000Y-135300000D02*
X108800000Y-135300000D01*
X108800000Y-135300000D02*
X107000000Y-133500000D01*
X113600000Y-149780000D02*
X111400000Y-147580000D01*
X111400000Y-147580000D02*
X111400000Y-135300000D01*
%TO.N,/IO2*%
X111800000Y-134300000D02*
X108900000Y-134300000D01*
X111800000Y-145440000D02*
X111800000Y-134300000D01*
X108400000Y-133400000D02*
X108350556Y-133400000D01*
X108400000Y-133800000D02*
X108400000Y-133400000D01*
X113600000Y-147240000D02*
X111800000Y-145440000D01*
X108350556Y-133400000D02*
X108330778Y-133380222D01*
X108900000Y-134300000D02*
X108400000Y-133800000D01*
%TO.N,/RXD0*%
X110500000Y-144700000D02*
X110500000Y-150846346D01*
X114750000Y-152796346D02*
X114750000Y-122990000D01*
X110500000Y-150846346D02*
X113123654Y-153470000D01*
X114750000Y-122990000D02*
X113600000Y-121840000D01*
X114076346Y-153470000D02*
X114750000Y-152796346D01*
X101300000Y-135500000D02*
X110500000Y-144700000D01*
X113123654Y-153470000D02*
X114076346Y-153470000D01*
%TO.N,/TXD0*%
X102400000Y-134200000D02*
X103287648Y-134200000D01*
X106762648Y-130725000D02*
X109884744Y-130725000D01*
X112450000Y-120450000D02*
X113600000Y-119300000D01*
X109884744Y-130725000D02*
X112450000Y-128159744D01*
X112450000Y-128159744D02*
X112450000Y-120450000D01*
X103287648Y-134200000D02*
X106762648Y-130725000D01*
%TO.N,Net-(D1-A)*%
X102150000Y-132500000D02*
X102150000Y-132850000D01*
X100850000Y-133800000D02*
X102150000Y-132500000D01*
X100800000Y-133800000D02*
X100850000Y-133800000D01*
%TO.N,Net-(U1-~{RST})*%
X100947500Y-147947500D02*
X101600000Y-148600000D01*
X100947500Y-145360000D02*
X100947500Y-147947500D01*
%TO.N,Net-(U1-~{SUSPENDB})*%
X99947500Y-145886596D02*
X96984096Y-148850000D01*
X96984096Y-148850000D02*
X96300000Y-148850000D01*
X99947500Y-145360000D02*
X99947500Y-145886596D01*
%TO.N,/RXD*%
X99947500Y-139447500D02*
X99600000Y-139100000D01*
X99947500Y-140640000D02*
X99947500Y-139447500D01*
%TO.N,Net-(U1-VBUS)*%
X101447500Y-145360000D02*
X103487500Y-147400000D01*
X103500000Y-147400000D02*
X103487500Y-147400000D01*
%TO.N,/TXD*%
X100447500Y-139552500D02*
X101000000Y-139000000D01*
X100447500Y-140640000D02*
X100447500Y-139552500D01*
%TD*%
M02*
