%TF.GenerationSoftware,KiCad,Pcbnew,10.0.3*%
%TF.CreationDate,2026-06-28T18:01:10+05:30*%
%TF.ProjectId,ESP32 DevKit,45535033-3220-4446-9576-4b69742e6b69,rev?*%
%TF.SameCoordinates,Original*%
%TF.FileFunction,Legend,Bot*%
%TF.FilePolarity,Positive*%
%FSLAX46Y46*%
G04 Gerber Fmt 4.6, Leading zero omitted, Abs format (unit mm)*
G04 Created by KiCad (PCBNEW 10.0.3) date 2026-06-28 18:01:10*
%MOMM*%
%LPD*%
G01*
G04 APERTURE LIST*
%ADD10C,0.150000*%
%ADD11C,0.120000*%
%ADD12C,0.127000*%
%ADD13C,0.200000*%
G04 APERTURE END LIST*
D10*
X100590357Y-141159580D02*
X100637976Y-141207200D01*
X100637976Y-141207200D02*
X100780833Y-141254819D01*
X100780833Y-141254819D02*
X100876071Y-141254819D01*
X100876071Y-141254819D02*
X101018928Y-141207200D01*
X101018928Y-141207200D02*
X101114166Y-141111961D01*
X101114166Y-141111961D02*
X101161785Y-141016723D01*
X101161785Y-141016723D02*
X101209404Y-140826247D01*
X101209404Y-140826247D02*
X101209404Y-140683390D01*
X101209404Y-140683390D02*
X101161785Y-140492914D01*
X101161785Y-140492914D02*
X101114166Y-140397676D01*
X101114166Y-140397676D02*
X101018928Y-140302438D01*
X101018928Y-140302438D02*
X100876071Y-140254819D01*
X100876071Y-140254819D02*
X100780833Y-140254819D01*
X100780833Y-140254819D02*
X100637976Y-140302438D01*
X100637976Y-140302438D02*
X100590357Y-140350057D01*
X99637976Y-141254819D02*
X100209404Y-141254819D01*
X99923690Y-141254819D02*
X99923690Y-140254819D01*
X99923690Y-140254819D02*
X100018928Y-140397676D01*
X100018928Y-140397676D02*
X100114166Y-140492914D01*
X100114166Y-140492914D02*
X100209404Y-140540533D01*
X98780833Y-140588152D02*
X98780833Y-141254819D01*
X99018928Y-140207200D02*
X99257023Y-140921485D01*
X99257023Y-140921485D02*
X98637976Y-140921485D01*
X99381009Y-125227142D02*
X98904818Y-124893809D01*
X99381009Y-124655714D02*
X98381009Y-124655714D01*
X98381009Y-124655714D02*
X98381009Y-125036666D01*
X98381009Y-125036666D02*
X98428628Y-125131904D01*
X98428628Y-125131904D02*
X98476247Y-125179523D01*
X98476247Y-125179523D02*
X98571485Y-125227142D01*
X98571485Y-125227142D02*
X98714342Y-125227142D01*
X98714342Y-125227142D02*
X98809580Y-125179523D01*
X98809580Y-125179523D02*
X98857199Y-125131904D01*
X98857199Y-125131904D02*
X98904818Y-125036666D01*
X98904818Y-125036666D02*
X98904818Y-124655714D01*
X98476247Y-125608095D02*
X98428628Y-125655714D01*
X98428628Y-125655714D02*
X98381009Y-125750952D01*
X98381009Y-125750952D02*
X98381009Y-125989047D01*
X98381009Y-125989047D02*
X98428628Y-126084285D01*
X98428628Y-126084285D02*
X98476247Y-126131904D01*
X98476247Y-126131904D02*
X98571485Y-126179523D01*
X98571485Y-126179523D02*
X98666723Y-126179523D01*
X98666723Y-126179523D02*
X98809580Y-126131904D01*
X98809580Y-126131904D02*
X99381009Y-125560476D01*
X99381009Y-125560476D02*
X99381009Y-126179523D01*
X98381009Y-127036666D02*
X98381009Y-126846190D01*
X98381009Y-126846190D02*
X98428628Y-126750952D01*
X98428628Y-126750952D02*
X98476247Y-126703333D01*
X98476247Y-126703333D02*
X98619104Y-126608095D01*
X98619104Y-126608095D02*
X98809580Y-126560476D01*
X98809580Y-126560476D02*
X99190532Y-126560476D01*
X99190532Y-126560476D02*
X99285770Y-126608095D01*
X99285770Y-126608095D02*
X99333390Y-126655714D01*
X99333390Y-126655714D02*
X99381009Y-126750952D01*
X99381009Y-126750952D02*
X99381009Y-126941428D01*
X99381009Y-126941428D02*
X99333390Y-127036666D01*
X99333390Y-127036666D02*
X99285770Y-127084285D01*
X99285770Y-127084285D02*
X99190532Y-127131904D01*
X99190532Y-127131904D02*
X98952437Y-127131904D01*
X98952437Y-127131904D02*
X98857199Y-127084285D01*
X98857199Y-127084285D02*
X98809580Y-127036666D01*
X98809580Y-127036666D02*
X98761961Y-126941428D01*
X98761961Y-126941428D02*
X98761961Y-126750952D01*
X98761961Y-126750952D02*
X98809580Y-126655714D01*
X98809580Y-126655714D02*
X98857199Y-126608095D01*
X98857199Y-126608095D02*
X98952437Y-126560476D01*
X104942857Y-136954819D02*
X105276190Y-136478628D01*
X105514285Y-136954819D02*
X105514285Y-135954819D01*
X105514285Y-135954819D02*
X105133333Y-135954819D01*
X105133333Y-135954819D02*
X105038095Y-136002438D01*
X105038095Y-136002438D02*
X104990476Y-136050057D01*
X104990476Y-136050057D02*
X104942857Y-136145295D01*
X104942857Y-136145295D02*
X104942857Y-136288152D01*
X104942857Y-136288152D02*
X104990476Y-136383390D01*
X104990476Y-136383390D02*
X105038095Y-136431009D01*
X105038095Y-136431009D02*
X105133333Y-136478628D01*
X105133333Y-136478628D02*
X105514285Y-136478628D01*
X103990476Y-136954819D02*
X104561904Y-136954819D01*
X104276190Y-136954819D02*
X104276190Y-135954819D01*
X104276190Y-135954819D02*
X104371428Y-136097676D01*
X104371428Y-136097676D02*
X104466666Y-136192914D01*
X104466666Y-136192914D02*
X104561904Y-136240533D01*
X103657142Y-135954819D02*
X102990476Y-135954819D01*
X102990476Y-135954819D02*
X103419047Y-136954819D01*
X106592857Y-148639580D02*
X106640476Y-148687200D01*
X106640476Y-148687200D02*
X106783333Y-148734819D01*
X106783333Y-148734819D02*
X106878571Y-148734819D01*
X106878571Y-148734819D02*
X107021428Y-148687200D01*
X107021428Y-148687200D02*
X107116666Y-148591961D01*
X107116666Y-148591961D02*
X107164285Y-148496723D01*
X107164285Y-148496723D02*
X107211904Y-148306247D01*
X107211904Y-148306247D02*
X107211904Y-148163390D01*
X107211904Y-148163390D02*
X107164285Y-147972914D01*
X107164285Y-147972914D02*
X107116666Y-147877676D01*
X107116666Y-147877676D02*
X107021428Y-147782438D01*
X107021428Y-147782438D02*
X106878571Y-147734819D01*
X106878571Y-147734819D02*
X106783333Y-147734819D01*
X106783333Y-147734819D02*
X106640476Y-147782438D01*
X106640476Y-147782438D02*
X106592857Y-147830057D01*
X106211904Y-147830057D02*
X106164285Y-147782438D01*
X106164285Y-147782438D02*
X106069047Y-147734819D01*
X106069047Y-147734819D02*
X105830952Y-147734819D01*
X105830952Y-147734819D02*
X105735714Y-147782438D01*
X105735714Y-147782438D02*
X105688095Y-147830057D01*
X105688095Y-147830057D02*
X105640476Y-147925295D01*
X105640476Y-147925295D02*
X105640476Y-148020533D01*
X105640476Y-148020533D02*
X105688095Y-148163390D01*
X105688095Y-148163390D02*
X106259523Y-148734819D01*
X106259523Y-148734819D02*
X105640476Y-148734819D01*
X105021428Y-147734819D02*
X104926190Y-147734819D01*
X104926190Y-147734819D02*
X104830952Y-147782438D01*
X104830952Y-147782438D02*
X104783333Y-147830057D01*
X104783333Y-147830057D02*
X104735714Y-147925295D01*
X104735714Y-147925295D02*
X104688095Y-148115771D01*
X104688095Y-148115771D02*
X104688095Y-148353866D01*
X104688095Y-148353866D02*
X104735714Y-148544342D01*
X104735714Y-148544342D02*
X104783333Y-148639580D01*
X104783333Y-148639580D02*
X104830952Y-148687200D01*
X104830952Y-148687200D02*
X104926190Y-148734819D01*
X104926190Y-148734819D02*
X105021428Y-148734819D01*
X105021428Y-148734819D02*
X105116666Y-148687200D01*
X105116666Y-148687200D02*
X105164285Y-148639580D01*
X105164285Y-148639580D02*
X105211904Y-148544342D01*
X105211904Y-148544342D02*
X105259523Y-148353866D01*
X105259523Y-148353866D02*
X105259523Y-148115771D01*
X105259523Y-148115771D02*
X105211904Y-147925295D01*
X105211904Y-147925295D02*
X105164285Y-147830057D01*
X105164285Y-147830057D02*
X105116666Y-147782438D01*
X105116666Y-147782438D02*
X105021428Y-147734819D01*
X106617857Y-150389580D02*
X106665476Y-150437200D01*
X106665476Y-150437200D02*
X106808333Y-150484819D01*
X106808333Y-150484819D02*
X106903571Y-150484819D01*
X106903571Y-150484819D02*
X107046428Y-150437200D01*
X107046428Y-150437200D02*
X107141666Y-150341961D01*
X107141666Y-150341961D02*
X107189285Y-150246723D01*
X107189285Y-150246723D02*
X107236904Y-150056247D01*
X107236904Y-150056247D02*
X107236904Y-149913390D01*
X107236904Y-149913390D02*
X107189285Y-149722914D01*
X107189285Y-149722914D02*
X107141666Y-149627676D01*
X107141666Y-149627676D02*
X107046428Y-149532438D01*
X107046428Y-149532438D02*
X106903571Y-149484819D01*
X106903571Y-149484819D02*
X106808333Y-149484819D01*
X106808333Y-149484819D02*
X106665476Y-149532438D01*
X106665476Y-149532438D02*
X106617857Y-149580057D01*
X105665476Y-150484819D02*
X106236904Y-150484819D01*
X105951190Y-150484819D02*
X105951190Y-149484819D01*
X105951190Y-149484819D02*
X106046428Y-149627676D01*
X106046428Y-149627676D02*
X106141666Y-149722914D01*
X106141666Y-149722914D02*
X106236904Y-149770533D01*
X105189285Y-150484819D02*
X104998809Y-150484819D01*
X104998809Y-150484819D02*
X104903571Y-150437200D01*
X104903571Y-150437200D02*
X104855952Y-150389580D01*
X104855952Y-150389580D02*
X104760714Y-150246723D01*
X104760714Y-150246723D02*
X104713095Y-150056247D01*
X104713095Y-150056247D02*
X104713095Y-149675295D01*
X104713095Y-149675295D02*
X104760714Y-149580057D01*
X104760714Y-149580057D02*
X104808333Y-149532438D01*
X104808333Y-149532438D02*
X104903571Y-149484819D01*
X104903571Y-149484819D02*
X105094047Y-149484819D01*
X105094047Y-149484819D02*
X105189285Y-149532438D01*
X105189285Y-149532438D02*
X105236904Y-149580057D01*
X105236904Y-149580057D02*
X105284523Y-149675295D01*
X105284523Y-149675295D02*
X105284523Y-149913390D01*
X105284523Y-149913390D02*
X105236904Y-150008628D01*
X105236904Y-150008628D02*
X105189285Y-150056247D01*
X105189285Y-150056247D02*
X105094047Y-150103866D01*
X105094047Y-150103866D02*
X104903571Y-150103866D01*
X104903571Y-150103866D02*
X104808333Y-150056247D01*
X104808333Y-150056247D02*
X104760714Y-150008628D01*
X104760714Y-150008628D02*
X104713095Y-149913390D01*
X100229580Y-112582142D02*
X100277200Y-112534523D01*
X100277200Y-112534523D02*
X100324819Y-112391666D01*
X100324819Y-112391666D02*
X100324819Y-112296428D01*
X100324819Y-112296428D02*
X100277200Y-112153571D01*
X100277200Y-112153571D02*
X100181961Y-112058333D01*
X100181961Y-112058333D02*
X100086723Y-112010714D01*
X100086723Y-112010714D02*
X99896247Y-111963095D01*
X99896247Y-111963095D02*
X99753390Y-111963095D01*
X99753390Y-111963095D02*
X99562914Y-112010714D01*
X99562914Y-112010714D02*
X99467676Y-112058333D01*
X99467676Y-112058333D02*
X99372438Y-112153571D01*
X99372438Y-112153571D02*
X99324819Y-112296428D01*
X99324819Y-112296428D02*
X99324819Y-112391666D01*
X99324819Y-112391666D02*
X99372438Y-112534523D01*
X99372438Y-112534523D02*
X99420057Y-112582142D01*
X99420057Y-112963095D02*
X99372438Y-113010714D01*
X99372438Y-113010714D02*
X99324819Y-113105952D01*
X99324819Y-113105952D02*
X99324819Y-113344047D01*
X99324819Y-113344047D02*
X99372438Y-113439285D01*
X99372438Y-113439285D02*
X99420057Y-113486904D01*
X99420057Y-113486904D02*
X99515295Y-113534523D01*
X99515295Y-113534523D02*
X99610533Y-113534523D01*
X99610533Y-113534523D02*
X99753390Y-113486904D01*
X99753390Y-113486904D02*
X100324819Y-112915476D01*
X100324819Y-112915476D02*
X100324819Y-113534523D01*
X99420057Y-113915476D02*
X99372438Y-113963095D01*
X99372438Y-113963095D02*
X99324819Y-114058333D01*
X99324819Y-114058333D02*
X99324819Y-114296428D01*
X99324819Y-114296428D02*
X99372438Y-114391666D01*
X99372438Y-114391666D02*
X99420057Y-114439285D01*
X99420057Y-114439285D02*
X99515295Y-114486904D01*
X99515295Y-114486904D02*
X99610533Y-114486904D01*
X99610533Y-114486904D02*
X99753390Y-114439285D01*
X99753390Y-114439285D02*
X100324819Y-113867857D01*
X100324819Y-113867857D02*
X100324819Y-114486904D01*
X98184819Y-147382142D02*
X97708628Y-147048809D01*
X98184819Y-146810714D02*
X97184819Y-146810714D01*
X97184819Y-146810714D02*
X97184819Y-147191666D01*
X97184819Y-147191666D02*
X97232438Y-147286904D01*
X97232438Y-147286904D02*
X97280057Y-147334523D01*
X97280057Y-147334523D02*
X97375295Y-147382142D01*
X97375295Y-147382142D02*
X97518152Y-147382142D01*
X97518152Y-147382142D02*
X97613390Y-147334523D01*
X97613390Y-147334523D02*
X97661009Y-147286904D01*
X97661009Y-147286904D02*
X97708628Y-147191666D01*
X97708628Y-147191666D02*
X97708628Y-146810714D01*
X97280057Y-147763095D02*
X97232438Y-147810714D01*
X97232438Y-147810714D02*
X97184819Y-147905952D01*
X97184819Y-147905952D02*
X97184819Y-148144047D01*
X97184819Y-148144047D02*
X97232438Y-148239285D01*
X97232438Y-148239285D02*
X97280057Y-148286904D01*
X97280057Y-148286904D02*
X97375295Y-148334523D01*
X97375295Y-148334523D02*
X97470533Y-148334523D01*
X97470533Y-148334523D02*
X97613390Y-148286904D01*
X97613390Y-148286904D02*
X98184819Y-147715476D01*
X98184819Y-147715476D02*
X98184819Y-148334523D01*
X97184819Y-148667857D02*
X97184819Y-149286904D01*
X97184819Y-149286904D02*
X97565771Y-148953571D01*
X97565771Y-148953571D02*
X97565771Y-149096428D01*
X97565771Y-149096428D02*
X97613390Y-149191666D01*
X97613390Y-149191666D02*
X97661009Y-149239285D01*
X97661009Y-149239285D02*
X97756247Y-149286904D01*
X97756247Y-149286904D02*
X97994342Y-149286904D01*
X97994342Y-149286904D02*
X98089580Y-149239285D01*
X98089580Y-149239285D02*
X98137200Y-149191666D01*
X98137200Y-149191666D02*
X98184819Y-149096428D01*
X98184819Y-149096428D02*
X98184819Y-148810714D01*
X98184819Y-148810714D02*
X98137200Y-148715476D01*
X98137200Y-148715476D02*
X98089580Y-148667857D01*
X96238094Y-158154819D02*
X96238094Y-157154819D01*
X96238094Y-157154819D02*
X95999999Y-157154819D01*
X95999999Y-157154819D02*
X95857142Y-157202438D01*
X95857142Y-157202438D02*
X95761904Y-157297676D01*
X95761904Y-157297676D02*
X95714285Y-157392914D01*
X95714285Y-157392914D02*
X95666666Y-157583390D01*
X95666666Y-157583390D02*
X95666666Y-157726247D01*
X95666666Y-157726247D02*
X95714285Y-157916723D01*
X95714285Y-157916723D02*
X95761904Y-158011961D01*
X95761904Y-158011961D02*
X95857142Y-158107200D01*
X95857142Y-158107200D02*
X95999999Y-158154819D01*
X95999999Y-158154819D02*
X96238094Y-158154819D01*
X94809523Y-157154819D02*
X94999999Y-157154819D01*
X94999999Y-157154819D02*
X95095237Y-157202438D01*
X95095237Y-157202438D02*
X95142856Y-157250057D01*
X95142856Y-157250057D02*
X95238094Y-157392914D01*
X95238094Y-157392914D02*
X95285713Y-157583390D01*
X95285713Y-157583390D02*
X95285713Y-157964342D01*
X95285713Y-157964342D02*
X95238094Y-158059580D01*
X95238094Y-158059580D02*
X95190475Y-158107200D01*
X95190475Y-158107200D02*
X95095237Y-158154819D01*
X95095237Y-158154819D02*
X94904761Y-158154819D01*
X94904761Y-158154819D02*
X94809523Y-158107200D01*
X94809523Y-158107200D02*
X94761904Y-158059580D01*
X94761904Y-158059580D02*
X94714285Y-157964342D01*
X94714285Y-157964342D02*
X94714285Y-157726247D01*
X94714285Y-157726247D02*
X94761904Y-157631009D01*
X94761904Y-157631009D02*
X94809523Y-157583390D01*
X94809523Y-157583390D02*
X94904761Y-157535771D01*
X94904761Y-157535771D02*
X95095237Y-157535771D01*
X95095237Y-157535771D02*
X95190475Y-157583390D01*
X95190475Y-157583390D02*
X95238094Y-157631009D01*
X95238094Y-157631009D02*
X95285713Y-157726247D01*
X91766666Y-129979580D02*
X91814285Y-130027200D01*
X91814285Y-130027200D02*
X91957142Y-130074819D01*
X91957142Y-130074819D02*
X92052380Y-130074819D01*
X92052380Y-130074819D02*
X92195237Y-130027200D01*
X92195237Y-130027200D02*
X92290475Y-129931961D01*
X92290475Y-129931961D02*
X92338094Y-129836723D01*
X92338094Y-129836723D02*
X92385713Y-129646247D01*
X92385713Y-129646247D02*
X92385713Y-129503390D01*
X92385713Y-129503390D02*
X92338094Y-129312914D01*
X92338094Y-129312914D02*
X92290475Y-129217676D01*
X92290475Y-129217676D02*
X92195237Y-129122438D01*
X92195237Y-129122438D02*
X92052380Y-129074819D01*
X92052380Y-129074819D02*
X91957142Y-129074819D01*
X91957142Y-129074819D02*
X91814285Y-129122438D01*
X91814285Y-129122438D02*
X91766666Y-129170057D01*
X91433332Y-129074819D02*
X90814285Y-129074819D01*
X90814285Y-129074819D02*
X91147618Y-129455771D01*
X91147618Y-129455771D02*
X91004761Y-129455771D01*
X91004761Y-129455771D02*
X90909523Y-129503390D01*
X90909523Y-129503390D02*
X90861904Y-129551009D01*
X90861904Y-129551009D02*
X90814285Y-129646247D01*
X90814285Y-129646247D02*
X90814285Y-129884342D01*
X90814285Y-129884342D02*
X90861904Y-129979580D01*
X90861904Y-129979580D02*
X90909523Y-130027200D01*
X90909523Y-130027200D02*
X91004761Y-130074819D01*
X91004761Y-130074819D02*
X91290475Y-130074819D01*
X91290475Y-130074819D02*
X91385713Y-130027200D01*
X91385713Y-130027200D02*
X91433332Y-129979580D01*
X90729580Y-121243333D02*
X90777200Y-121195714D01*
X90777200Y-121195714D02*
X90824819Y-121052857D01*
X90824819Y-121052857D02*
X90824819Y-120957619D01*
X90824819Y-120957619D02*
X90777200Y-120814762D01*
X90777200Y-120814762D02*
X90681961Y-120719524D01*
X90681961Y-120719524D02*
X90586723Y-120671905D01*
X90586723Y-120671905D02*
X90396247Y-120624286D01*
X90396247Y-120624286D02*
X90253390Y-120624286D01*
X90253390Y-120624286D02*
X90062914Y-120671905D01*
X90062914Y-120671905D02*
X89967676Y-120719524D01*
X89967676Y-120719524D02*
X89872438Y-120814762D01*
X89872438Y-120814762D02*
X89824819Y-120957619D01*
X89824819Y-120957619D02*
X89824819Y-121052857D01*
X89824819Y-121052857D02*
X89872438Y-121195714D01*
X89872438Y-121195714D02*
X89920057Y-121243333D01*
X90824819Y-121719524D02*
X90824819Y-121910000D01*
X90824819Y-121910000D02*
X90777200Y-122005238D01*
X90777200Y-122005238D02*
X90729580Y-122052857D01*
X90729580Y-122052857D02*
X90586723Y-122148095D01*
X90586723Y-122148095D02*
X90396247Y-122195714D01*
X90396247Y-122195714D02*
X90015295Y-122195714D01*
X90015295Y-122195714D02*
X89920057Y-122148095D01*
X89920057Y-122148095D02*
X89872438Y-122100476D01*
X89872438Y-122100476D02*
X89824819Y-122005238D01*
X89824819Y-122005238D02*
X89824819Y-121814762D01*
X89824819Y-121814762D02*
X89872438Y-121719524D01*
X89872438Y-121719524D02*
X89920057Y-121671905D01*
X89920057Y-121671905D02*
X90015295Y-121624286D01*
X90015295Y-121624286D02*
X90253390Y-121624286D01*
X90253390Y-121624286D02*
X90348628Y-121671905D01*
X90348628Y-121671905D02*
X90396247Y-121719524D01*
X90396247Y-121719524D02*
X90443866Y-121814762D01*
X90443866Y-121814762D02*
X90443866Y-122005238D01*
X90443866Y-122005238D02*
X90396247Y-122100476D01*
X90396247Y-122100476D02*
X90348628Y-122148095D01*
X90348628Y-122148095D02*
X90253390Y-122195714D01*
X103067857Y-147624819D02*
X103401190Y-147148628D01*
X103639285Y-147624819D02*
X103639285Y-146624819D01*
X103639285Y-146624819D02*
X103258333Y-146624819D01*
X103258333Y-146624819D02*
X103163095Y-146672438D01*
X103163095Y-146672438D02*
X103115476Y-146720057D01*
X103115476Y-146720057D02*
X103067857Y-146815295D01*
X103067857Y-146815295D02*
X103067857Y-146958152D01*
X103067857Y-146958152D02*
X103115476Y-147053390D01*
X103115476Y-147053390D02*
X103163095Y-147101009D01*
X103163095Y-147101009D02*
X103258333Y-147148628D01*
X103258333Y-147148628D02*
X103639285Y-147148628D01*
X102686904Y-146720057D02*
X102639285Y-146672438D01*
X102639285Y-146672438D02*
X102544047Y-146624819D01*
X102544047Y-146624819D02*
X102305952Y-146624819D01*
X102305952Y-146624819D02*
X102210714Y-146672438D01*
X102210714Y-146672438D02*
X102163095Y-146720057D01*
X102163095Y-146720057D02*
X102115476Y-146815295D01*
X102115476Y-146815295D02*
X102115476Y-146910533D01*
X102115476Y-146910533D02*
X102163095Y-147053390D01*
X102163095Y-147053390D02*
X102734523Y-147624819D01*
X102734523Y-147624819D02*
X102115476Y-147624819D01*
X101782142Y-146624819D02*
X101115476Y-146624819D01*
X101115476Y-146624819D02*
X101544047Y-147624819D01*
X92488094Y-158704819D02*
X92488094Y-157704819D01*
X92488094Y-157704819D02*
X92249999Y-157704819D01*
X92249999Y-157704819D02*
X92107142Y-157752438D01*
X92107142Y-157752438D02*
X92011904Y-157847676D01*
X92011904Y-157847676D02*
X91964285Y-157942914D01*
X91964285Y-157942914D02*
X91916666Y-158133390D01*
X91916666Y-158133390D02*
X91916666Y-158276247D01*
X91916666Y-158276247D02*
X91964285Y-158466723D01*
X91964285Y-158466723D02*
X92011904Y-158561961D01*
X92011904Y-158561961D02*
X92107142Y-158657200D01*
X92107142Y-158657200D02*
X92249999Y-158704819D01*
X92249999Y-158704819D02*
X92488094Y-158704819D01*
X91583332Y-157704819D02*
X90964285Y-157704819D01*
X90964285Y-157704819D02*
X91297618Y-158085771D01*
X91297618Y-158085771D02*
X91154761Y-158085771D01*
X91154761Y-158085771D02*
X91059523Y-158133390D01*
X91059523Y-158133390D02*
X91011904Y-158181009D01*
X91011904Y-158181009D02*
X90964285Y-158276247D01*
X90964285Y-158276247D02*
X90964285Y-158514342D01*
X90964285Y-158514342D02*
X91011904Y-158609580D01*
X91011904Y-158609580D02*
X91059523Y-158657200D01*
X91059523Y-158657200D02*
X91154761Y-158704819D01*
X91154761Y-158704819D02*
X91440475Y-158704819D01*
X91440475Y-158704819D02*
X91535713Y-158657200D01*
X91535713Y-158657200D02*
X91583332Y-158609580D01*
X105338094Y-155254819D02*
X105338094Y-154254819D01*
X105338094Y-154254819D02*
X105099999Y-154254819D01*
X105099999Y-154254819D02*
X104957142Y-154302438D01*
X104957142Y-154302438D02*
X104861904Y-154397676D01*
X104861904Y-154397676D02*
X104814285Y-154492914D01*
X104814285Y-154492914D02*
X104766666Y-154683390D01*
X104766666Y-154683390D02*
X104766666Y-154826247D01*
X104766666Y-154826247D02*
X104814285Y-155016723D01*
X104814285Y-155016723D02*
X104861904Y-155111961D01*
X104861904Y-155111961D02*
X104957142Y-155207200D01*
X104957142Y-155207200D02*
X105099999Y-155254819D01*
X105099999Y-155254819D02*
X105338094Y-155254819D01*
X103861904Y-154254819D02*
X104338094Y-154254819D01*
X104338094Y-154254819D02*
X104385713Y-154731009D01*
X104385713Y-154731009D02*
X104338094Y-154683390D01*
X104338094Y-154683390D02*
X104242856Y-154635771D01*
X104242856Y-154635771D02*
X104004761Y-154635771D01*
X104004761Y-154635771D02*
X103909523Y-154683390D01*
X103909523Y-154683390D02*
X103861904Y-154731009D01*
X103861904Y-154731009D02*
X103814285Y-154826247D01*
X103814285Y-154826247D02*
X103814285Y-155064342D01*
X103814285Y-155064342D02*
X103861904Y-155159580D01*
X103861904Y-155159580D02*
X103909523Y-155207200D01*
X103909523Y-155207200D02*
X104004761Y-155254819D01*
X104004761Y-155254819D02*
X104242856Y-155254819D01*
X104242856Y-155254819D02*
X104338094Y-155207200D01*
X104338094Y-155207200D02*
X104385713Y-155159580D01*
X101034404Y-138369819D02*
X101034404Y-139179342D01*
X101034404Y-139179342D02*
X100986785Y-139274580D01*
X100986785Y-139274580D02*
X100939166Y-139322200D01*
X100939166Y-139322200D02*
X100843928Y-139369819D01*
X100843928Y-139369819D02*
X100653452Y-139369819D01*
X100653452Y-139369819D02*
X100558214Y-139322200D01*
X100558214Y-139322200D02*
X100510595Y-139274580D01*
X100510595Y-139274580D02*
X100462976Y-139179342D01*
X100462976Y-139179342D02*
X100462976Y-138369819D01*
X99462976Y-139369819D02*
X100034404Y-139369819D01*
X99748690Y-139369819D02*
X99748690Y-138369819D01*
X99748690Y-138369819D02*
X99843928Y-138512676D01*
X99843928Y-138512676D02*
X99939166Y-138607914D01*
X99939166Y-138607914D02*
X100034404Y-138655533D01*
X103141666Y-131524819D02*
X103474999Y-131048628D01*
X103713094Y-131524819D02*
X103713094Y-130524819D01*
X103713094Y-130524819D02*
X103332142Y-130524819D01*
X103332142Y-130524819D02*
X103236904Y-130572438D01*
X103236904Y-130572438D02*
X103189285Y-130620057D01*
X103189285Y-130620057D02*
X103141666Y-130715295D01*
X103141666Y-130715295D02*
X103141666Y-130858152D01*
X103141666Y-130858152D02*
X103189285Y-130953390D01*
X103189285Y-130953390D02*
X103236904Y-131001009D01*
X103236904Y-131001009D02*
X103332142Y-131048628D01*
X103332142Y-131048628D02*
X103713094Y-131048628D01*
X102760713Y-130620057D02*
X102713094Y-130572438D01*
X102713094Y-130572438D02*
X102617856Y-130524819D01*
X102617856Y-130524819D02*
X102379761Y-130524819D01*
X102379761Y-130524819D02*
X102284523Y-130572438D01*
X102284523Y-130572438D02*
X102236904Y-130620057D01*
X102236904Y-130620057D02*
X102189285Y-130715295D01*
X102189285Y-130715295D02*
X102189285Y-130810533D01*
X102189285Y-130810533D02*
X102236904Y-130953390D01*
X102236904Y-130953390D02*
X102808332Y-131524819D01*
X102808332Y-131524819D02*
X102189285Y-131524819D01*
X90824819Y-116757142D02*
X90348628Y-116423809D01*
X90824819Y-116185714D02*
X89824819Y-116185714D01*
X89824819Y-116185714D02*
X89824819Y-116566666D01*
X89824819Y-116566666D02*
X89872438Y-116661904D01*
X89872438Y-116661904D02*
X89920057Y-116709523D01*
X89920057Y-116709523D02*
X90015295Y-116757142D01*
X90015295Y-116757142D02*
X90158152Y-116757142D01*
X90158152Y-116757142D02*
X90253390Y-116709523D01*
X90253390Y-116709523D02*
X90301009Y-116661904D01*
X90301009Y-116661904D02*
X90348628Y-116566666D01*
X90348628Y-116566666D02*
X90348628Y-116185714D01*
X90824819Y-117709523D02*
X90824819Y-117138095D01*
X90824819Y-117423809D02*
X89824819Y-117423809D01*
X89824819Y-117423809D02*
X89967676Y-117328571D01*
X89967676Y-117328571D02*
X90062914Y-117233333D01*
X90062914Y-117233333D02*
X90110533Y-117138095D01*
X90824819Y-118661904D02*
X90824819Y-118090476D01*
X90824819Y-118376190D02*
X89824819Y-118376190D01*
X89824819Y-118376190D02*
X89967676Y-118280952D01*
X89967676Y-118280952D02*
X90062914Y-118185714D01*
X90062914Y-118185714D02*
X90110533Y-118090476D01*
X97179580Y-112707142D02*
X97227200Y-112659523D01*
X97227200Y-112659523D02*
X97274819Y-112516666D01*
X97274819Y-112516666D02*
X97274819Y-112421428D01*
X97274819Y-112421428D02*
X97227200Y-112278571D01*
X97227200Y-112278571D02*
X97131961Y-112183333D01*
X97131961Y-112183333D02*
X97036723Y-112135714D01*
X97036723Y-112135714D02*
X96846247Y-112088095D01*
X96846247Y-112088095D02*
X96703390Y-112088095D01*
X96703390Y-112088095D02*
X96512914Y-112135714D01*
X96512914Y-112135714D02*
X96417676Y-112183333D01*
X96417676Y-112183333D02*
X96322438Y-112278571D01*
X96322438Y-112278571D02*
X96274819Y-112421428D01*
X96274819Y-112421428D02*
X96274819Y-112516666D01*
X96274819Y-112516666D02*
X96322438Y-112659523D01*
X96322438Y-112659523D02*
X96370057Y-112707142D01*
X96370057Y-113088095D02*
X96322438Y-113135714D01*
X96322438Y-113135714D02*
X96274819Y-113230952D01*
X96274819Y-113230952D02*
X96274819Y-113469047D01*
X96274819Y-113469047D02*
X96322438Y-113564285D01*
X96322438Y-113564285D02*
X96370057Y-113611904D01*
X96370057Y-113611904D02*
X96465295Y-113659523D01*
X96465295Y-113659523D02*
X96560533Y-113659523D01*
X96560533Y-113659523D02*
X96703390Y-113611904D01*
X96703390Y-113611904D02*
X97274819Y-113040476D01*
X97274819Y-113040476D02*
X97274819Y-113659523D01*
X97274819Y-114611904D02*
X97274819Y-114040476D01*
X97274819Y-114326190D02*
X96274819Y-114326190D01*
X96274819Y-114326190D02*
X96417676Y-114230952D01*
X96417676Y-114230952D02*
X96512914Y-114135714D01*
X96512914Y-114135714D02*
X96560533Y-114040476D01*
X108938094Y-155154819D02*
X108938094Y-154154819D01*
X108938094Y-154154819D02*
X108699999Y-154154819D01*
X108699999Y-154154819D02*
X108557142Y-154202438D01*
X108557142Y-154202438D02*
X108461904Y-154297676D01*
X108461904Y-154297676D02*
X108414285Y-154392914D01*
X108414285Y-154392914D02*
X108366666Y-154583390D01*
X108366666Y-154583390D02*
X108366666Y-154726247D01*
X108366666Y-154726247D02*
X108414285Y-154916723D01*
X108414285Y-154916723D02*
X108461904Y-155011961D01*
X108461904Y-155011961D02*
X108557142Y-155107200D01*
X108557142Y-155107200D02*
X108699999Y-155154819D01*
X108699999Y-155154819D02*
X108938094Y-155154819D01*
X107509523Y-154488152D02*
X107509523Y-155154819D01*
X107747618Y-154107200D02*
X107985713Y-154821485D01*
X107985713Y-154821485D02*
X107366666Y-154821485D01*
X100811904Y-121954819D02*
X100811904Y-122764342D01*
X100811904Y-122764342D02*
X100764285Y-122859580D01*
X100764285Y-122859580D02*
X100716666Y-122907200D01*
X100716666Y-122907200D02*
X100621428Y-122954819D01*
X100621428Y-122954819D02*
X100430952Y-122954819D01*
X100430952Y-122954819D02*
X100335714Y-122907200D01*
X100335714Y-122907200D02*
X100288095Y-122859580D01*
X100288095Y-122859580D02*
X100240476Y-122764342D01*
X100240476Y-122764342D02*
X100240476Y-121954819D01*
X99811904Y-122050057D02*
X99764285Y-122002438D01*
X99764285Y-122002438D02*
X99669047Y-121954819D01*
X99669047Y-121954819D02*
X99430952Y-121954819D01*
X99430952Y-121954819D02*
X99335714Y-122002438D01*
X99335714Y-122002438D02*
X99288095Y-122050057D01*
X99288095Y-122050057D02*
X99240476Y-122145295D01*
X99240476Y-122145295D02*
X99240476Y-122240533D01*
X99240476Y-122240533D02*
X99288095Y-122383390D01*
X99288095Y-122383390D02*
X99859523Y-122954819D01*
X99859523Y-122954819D02*
X99240476Y-122954819D01*
%TO.C,C20*%
D11*
X105688748Y-145865000D02*
X106211252Y-145865000D01*
X105688748Y-147335000D02*
X106211252Y-147335000D01*
%TO.C,C19*%
X105834420Y-148090000D02*
X106115580Y-148090000D01*
X105834420Y-149110000D02*
X106115580Y-149110000D01*
%TO.C,C22*%
X100790000Y-113084420D02*
X100790000Y-113365580D01*
X101810000Y-113084420D02*
X101810000Y-113365580D01*
%TO.C,R23*%
X95777500Y-148262258D02*
X95777500Y-147787742D01*
X96822500Y-148262258D02*
X96822500Y-147787742D01*
%TO.C,D6*%
X94240000Y-157000000D02*
X94240000Y-155800000D01*
X96200000Y-155800000D02*
X94240000Y-155800000D01*
X96200000Y-157000000D02*
X94240000Y-157000000D01*
%TO.C,C3*%
X91861252Y-130565000D02*
X91338748Y-130565000D01*
X91861252Y-132035000D02*
X91338748Y-132035000D01*
%TO.C,C9*%
X91290000Y-121269420D02*
X91290000Y-121550580D01*
X92310000Y-121269420D02*
X92310000Y-121550580D01*
%TO.C,R27*%
X102662258Y-148077500D02*
X102187742Y-148077500D01*
X102662258Y-149122500D02*
X102187742Y-149122500D01*
%TO.C,D3*%
X90140000Y-155550000D02*
X92800000Y-155550000D01*
X90140000Y-157250000D02*
X90140000Y-155550000D01*
X90140000Y-157250000D02*
X92800000Y-157250000D01*
%TO.C,D5*%
X103900000Y-155500000D02*
X105860000Y-155500000D01*
X103900000Y-156700000D02*
X105860000Y-156700000D01*
X105860000Y-155500000D02*
X105860000Y-156700000D01*
%TO.C,C1*%
X108188748Y-128965000D02*
X108711252Y-128965000D01*
X108188748Y-130435000D02*
X108711252Y-130435000D01*
%TO.C,U1*%
D12*
X97447500Y-140500000D02*
X97447500Y-141050000D01*
X97447500Y-145100000D02*
X97447500Y-145500000D01*
X97447500Y-145500000D02*
X97947500Y-145500000D01*
X97947500Y-140500000D02*
X97447500Y-140500000D01*
X101947500Y-140500000D02*
X102447500Y-140500000D01*
X102447500Y-140500000D02*
X102447500Y-141050000D01*
X102447500Y-145000000D02*
X102447500Y-145500000D01*
X102447500Y-145500000D02*
X101897500Y-145500000D01*
D13*
X103497500Y-141450000D02*
G75*
G02*
X103297500Y-141450000I-100000J0D01*
G01*
X103297500Y-141450000D02*
G75*
G02*
X103497500Y-141450000I100000J0D01*
G01*
%TO.C,R2*%
D11*
X103212258Y-131977500D02*
X102737742Y-131977500D01*
X103212258Y-133022500D02*
X102737742Y-133022500D01*
%TO.C,R11*%
X91277500Y-117162742D02*
X91277500Y-117637258D01*
X92322500Y-117162742D02*
X92322500Y-117637258D01*
%TO.C,C21*%
X97765000Y-113088748D02*
X97765000Y-113611252D01*
X99235000Y-113088748D02*
X99235000Y-113611252D01*
%TO.C,D4*%
X107500000Y-155400000D02*
X109460000Y-155400000D01*
X107500000Y-156600000D02*
X109460000Y-156600000D01*
X109460000Y-155400000D02*
X109460000Y-156600000D01*
%TO.C,U2*%
X98140000Y-123590000D02*
X98140000Y-124850000D01*
X98140000Y-130410000D02*
X98140000Y-129150000D01*
X101900000Y-123590000D02*
X98140000Y-123590000D01*
X101900000Y-130410000D02*
X98140000Y-130410000D01*
X103180000Y-123690000D02*
X103420000Y-123360000D01*
X102940000Y-123360000D01*
X103180000Y-123690000D01*
G36*
X103180000Y-123690000D02*
G01*
X102940000Y-123360000D01*
X103420000Y-123360000D01*
X103180000Y-123690000D01*
G37*
%TD*%
M02*
