M48
; DRILL file KiCad 10.0.3 date 2026-06-28T18:02:41
; FORMAT={-:-/ absolute / metric / decimal}
; #@! TF.CreationDate,2026-06-28T18:02:41+05:30
; #@! TF.GenerationSoftware,Kicad,Pcbnew,10.0.3
; #@! TF.FileFunction,Plated,1,4,PTH
FMAT,2
METRIC
; #@! TA.AperFunction,Plated,PTH,ViaDrill
T1C0.300
; #@! TA.AperFunction,Plated,PTH,ComponentDrill
T2C0.300
; #@! TA.AperFunction,Plated,PTH,ComponentDrill
T3C0.450
; #@! TA.AperFunction,Plated,PTH,ComponentDrill
T4C1.000
%
G90
G05
T1
X89.4Y-127.9
X89.8Y-132.9
X90.4Y-133.466
X90.8Y-129.5
X91.3Y-133.5
X92.0Y-133.9
X93.2Y-112.5
X93.4Y-125.2
X93.4Y-126.4
X93.8Y-139.1
X94.2Y-113.9
X95.0Y-154.8
X95.4Y-138.5
X96.3Y-155.0
X96.6Y-133.8
X96.614Y-135.926
X97.3Y-136.6
X99.2Y-134.1
X99.3Y-154.0
X99.5Y-131.1
X99.6Y-126.4
X99.6Y-139.1
X99.976Y-149.176
X100.0Y-154.6
X100.6Y-137.5
X100.8Y-133.8
X101.0Y-139.0
X101.3Y-135.5
X102.2Y-140.6
X102.3Y-152.3
X102.4Y-134.2
X102.65Y-139.25
X103.1Y-140.2
X103.487Y-147.4
X103.6Y-144.1
X104.4Y-142.2
X104.5Y-139.6
X105.332Y-142.068
X105.6Y-133.7
X105.9Y-135.9
X106.6Y-139.6
X107.0Y-133.5
X107.8Y-149.1
X107.991Y-136.914
X108.3Y-140.6
X108.331Y-133.38
X108.4Y-147.1
X108.4Y-152.1
X108.549Y-138.601
X109.1Y-133.6
X109.399Y-138.001
X109.4Y-139.3
X110.1Y-158.6
T2
X97.33Y-117.782
X97.33Y-119.617
X98.248Y-116.865
X98.248Y-118.7
X98.248Y-120.535
X99.165Y-117.782
X99.165Y-119.617
X100.082Y-116.865
X100.082Y-118.7
X100.082Y-120.535
X101.0Y-117.782
X101.0Y-119.617
T4
X86.6Y-111.78
X86.6Y-114.32
X86.6Y-116.86
X86.6Y-119.4
X86.6Y-121.94
X86.6Y-124.48
X86.6Y-127.02
X86.6Y-129.56
X86.6Y-132.1
X86.6Y-134.64
X86.6Y-137.18
X86.6Y-139.72
X86.6Y-142.26
X86.6Y-144.8
X86.6Y-147.34
X86.6Y-149.88
X86.6Y-152.42
X86.6Y-154.96
X86.6Y-157.5
X113.6Y-111.68
X113.6Y-114.22
X113.6Y-116.76
X113.6Y-119.3
X113.6Y-121.84
X113.6Y-124.38
X113.6Y-126.92
X113.6Y-129.46
X113.6Y-132.0
X113.6Y-134.54
X113.6Y-137.08
X113.6Y-139.62
X113.6Y-142.16
X113.6Y-144.7
X113.6Y-147.24
X113.6Y-149.78
X113.6Y-152.32
X113.6Y-154.86
X113.6Y-157.4
T3
G00X96.429Y-159.05
M15
G01X96.429Y-158.25
M16
G05
G00X103.579Y-158.25
M15
G01X103.579Y-159.05
M16
G05
M30
