%TF.GenerationSoftware,KiCad,Pcbnew,10.0.3*%
%TF.CreationDate,2026-06-28T18:01:10+05:30*%
%TF.ProjectId,ESP32 DevKit,45535033-3220-4446-9576-4b69742e6b69,rev?*%
%TF.SameCoordinates,Original*%
%TF.FileFunction,Paste,Bot*%
%TF.FilePolarity,Positive*%
%FSLAX46Y46*%
G04 Gerber Fmt 4.6, Leading zero omitted, Abs format (unit mm)*
G04 Created by KiCad (PCBNEW 10.0.3) date 2026-06-28 18:01:10*
%MOMM*%
%LPD*%
G01*
G04 APERTURE LIST*
G04 Aperture macros list*
%AMRoundRect*
0 Rectangle with rounded corners*
0 $1 Rounding radius*
0 $2 $3 $4 $5 $6 $7 $8 $9 X,Y pos of 4 corners*
0 Add a 4 corners polygon primitive as box body*
4,1,4,$2,$3,$4,$5,$6,$7,$8,$9,$2,$3,0*
0 Add four circle primitives for the rounded corners*
1,1,$1+$1,$2,$3*
1,1,$1+$1,$4,$5*
1,1,$1+$1,$6,$7*
1,1,$1+$1,$8,$9*
0 Add four rect primitives between the rounded corners*
20,1,$1+$1,$2,$3,$4,$5,0*
20,1,$1+$1,$4,$5,$6,$7,0*
20,1,$1+$1,$6,$7,$8,$9,0*
20,1,$1+$1,$8,$9,$2,$3,0*%
G04 Aperture macros list end*
%ADD10C,0.010000*%
%ADD11RoundRect,0.250000X-0.250000X-0.475000X0.250000X-0.475000X0.250000X0.475000X-0.250000X0.475000X0*%
%ADD12RoundRect,0.225000X-0.225000X-0.250000X0.225000X-0.250000X0.225000X0.250000X-0.225000X0.250000X0*%
%ADD13RoundRect,0.225000X-0.250000X0.225000X-0.250000X-0.225000X0.250000X-0.225000X0.250000X0.225000X0*%
%ADD14RoundRect,0.200000X0.275000X-0.200000X0.275000X0.200000X-0.275000X0.200000X-0.275000X-0.200000X0*%
%ADD15RoundRect,0.150000X0.150000X0.200000X-0.150000X0.200000X-0.150000X-0.200000X0.150000X-0.200000X0*%
%ADD16RoundRect,0.250000X0.250000X0.475000X-0.250000X0.475000X-0.250000X-0.475000X0.250000X-0.475000X0*%
%ADD17RoundRect,0.200000X0.200000X0.275000X-0.200000X0.275000X-0.200000X-0.275000X0.200000X-0.275000X0*%
%ADD18RoundRect,0.112500X-0.187500X-0.112500X0.187500X-0.112500X0.187500X0.112500X-0.187500X0.112500X0*%
%ADD19RoundRect,0.150000X-0.150000X-0.200000X0.150000X-0.200000X0.150000X0.200000X-0.150000X0.200000X0*%
%ADD20RoundRect,0.067500X0.437500X0.067500X-0.437500X0.067500X-0.437500X-0.067500X0.437500X-0.067500X0*%
%ADD21RoundRect,0.067500X0.067500X0.437500X-0.067500X0.437500X-0.067500X-0.437500X0.067500X-0.437500X0*%
%ADD22RoundRect,0.200000X-0.275000X0.200000X-0.275000X-0.200000X0.275000X-0.200000X0.275000X0.200000X0*%
%ADD23RoundRect,0.250000X-0.475000X0.250000X-0.475000X-0.250000X0.475000X-0.250000X0.475000X0.250000X0*%
%ADD24RoundRect,0.375000X0.625000X0.375000X-0.625000X0.375000X-0.625000X-0.375000X0.625000X-0.375000X0*%
%ADD25RoundRect,0.500000X0.500000X1.400000X-0.500000X1.400000X-0.500000X-1.400000X0.500000X-1.400000X0*%
G04 APERTURE END LIST*
D10*
%TO.C,U1*%
X98616375Y-143181125D02*
X98616375Y-144330856D01*
X99768355Y-144330856D01*
X99768355Y-143181125D01*
X98616375Y-143181125D01*
G36*
X99768355Y-144330856D02*
G01*
X98616375Y-144330856D01*
X98616375Y-143181125D01*
X99768355Y-143181125D01*
X99768355Y-144330856D01*
G37*
X99767413Y-141670000D02*
X98617500Y-141670000D01*
X98617500Y-142819913D01*
X99767413Y-142819913D01*
X99767413Y-141670000D01*
G36*
X99767413Y-142819913D02*
G01*
X98617500Y-142819913D01*
X98617500Y-141670000D01*
X99767413Y-141670000D01*
X99767413Y-142819913D01*
G37*
X100127500Y-144331400D02*
X101278900Y-144331400D01*
X101278900Y-143180000D01*
X100127500Y-143180000D01*
X100127500Y-144331400D01*
G36*
X101278900Y-144331400D02*
G01*
X100127500Y-144331400D01*
X100127500Y-143180000D01*
X101278900Y-143180000D01*
X101278900Y-144331400D01*
G37*
X101278287Y-142820786D02*
X101278287Y-141668966D01*
X100128534Y-141668966D01*
X100128534Y-142820786D01*
X101278287Y-142820786D01*
G36*
X101278287Y-142820786D02*
G01*
X100128534Y-142820786D01*
X100128534Y-141668966D01*
X101278287Y-141668966D01*
X101278287Y-142820786D01*
G37*
%TD*%
D11*
%TO.C,C20*%
X105000000Y-146600000D03*
X106900000Y-146600000D03*
%TD*%
D12*
%TO.C,C19*%
X105200000Y-148600000D03*
X106750000Y-148600000D03*
%TD*%
D13*
%TO.C,C22*%
X101300000Y-112450000D03*
X101300000Y-114000000D03*
%TD*%
D14*
%TO.C,R23*%
X96300000Y-148850000D03*
X96300000Y-147200000D03*
%TD*%
D15*
%TO.C,D6*%
X94800000Y-156400000D03*
X96200000Y-156400000D03*
%TD*%
D16*
%TO.C,C3*%
X92550000Y-131300000D03*
X90650000Y-131300000D03*
%TD*%
D13*
%TO.C,C9*%
X91800000Y-120635000D03*
X91800000Y-122185000D03*
%TD*%
D17*
%TO.C,R27*%
X103250000Y-148600000D03*
X101600000Y-148600000D03*
%TD*%
D18*
%TO.C,D3*%
X90700000Y-156400000D03*
X92800000Y-156400000D03*
%TD*%
D19*
%TO.C,D5*%
X105300000Y-156100000D03*
X103900000Y-156100000D03*
%TD*%
D11*
%TO.C,C1*%
X107500000Y-129700000D03*
X109400000Y-129700000D03*
%TD*%
D20*
%TO.C,U1*%
X102307500Y-141500000D03*
X102307500Y-142000000D03*
X102307500Y-142500000D03*
X102307500Y-143000000D03*
X102307500Y-143500000D03*
X102307500Y-144000000D03*
X102307500Y-144500000D03*
D21*
X101447500Y-145360000D03*
X100947500Y-145360000D03*
X100447500Y-145360000D03*
X99947500Y-145360000D03*
X99447500Y-145360000D03*
X98947500Y-145360000D03*
X98447500Y-145360000D03*
D20*
X97587500Y-144500000D03*
X97587500Y-144000000D03*
X97587500Y-143500000D03*
X97587500Y-143000000D03*
X97587500Y-142500000D03*
X97587500Y-142000000D03*
X97587500Y-141500000D03*
D21*
X98447500Y-140640000D03*
X98947500Y-140640000D03*
X99447500Y-140640000D03*
X99947500Y-140640000D03*
X100447500Y-140640000D03*
X100947500Y-140640000D03*
X101447500Y-140640000D03*
%TD*%
D17*
%TO.C,R2*%
X103800000Y-132500000D03*
X102150000Y-132500000D03*
%TD*%
D22*
%TO.C,R11*%
X91800000Y-116575000D03*
X91800000Y-118225000D03*
%TD*%
D23*
%TO.C,C21*%
X98500000Y-112400000D03*
X98500000Y-114300000D03*
%TD*%
D19*
%TO.C,D4*%
X108900000Y-156000000D03*
X107500000Y-156000000D03*
%TD*%
D24*
%TO.C,U2*%
X103200000Y-124700000D03*
X103200000Y-127000000D03*
D25*
X96900000Y-127000000D03*
D24*
X103200000Y-129300000D03*
%TD*%
M02*
